<ttFont>
<head>
    <!-- Most of this table will be recalculated by the compiler -->
    <tableVersion value="1.0"/>
    <fontRevision value="1.301"/>
    <checkSumAdjustment value="0x5c9bf861"/>
    <magicNumber value="0x5f0f3cf5"/>
    <flags value="00000000 00001011"/>
    <unitsPerEm value="1000"/>
    <created value="Tue Oct  2 22:58:00 2007"/>
    <modified value="Thu Mar  6 18:39:45 2014"/>
    <xMin value="-56"/>
    <yMin value="-239"/>
    <xMax value="855"/>
    <yMax value="1039"/>
    <macStyle value="00000000 00000000"/>
    <lowestRecPPEM value="9"/>
    <fontDirectionHint value="2"/>
    <indexToLocFormat value="0"/>
    <glyphDataFormat value="0"/>
  </head>
    <TTGlyph name="A" xMin="17" yMin="0" xMax="502" yMax="743">
      <contour>
        <pt x="251" y="743" on="1"/>
        <pt x="269" y="743" on="1"/>
        <pt x="502" y="0" on="1"/>
        <pt x="447" y="0" on="1"/>
        <pt x="381" y="214" on="1"/>
        <pt x="137" y="214" on="1"/>
        <pt x="72" y="0" on="1"/>
        <pt x="17" y="0" on="1"/>
      </contour>
      <contour>
        <pt x="366" y="261" on="1"/>
        <pt x="259" y="619" on="1"/>
        <pt x="152" y="261" on="1"/>
      </contour>
    </TTGlyph>
    <TTGlyph name="AE" xMin="16" yMin="0" xMax="717" yMax="733">
      <contour>
        <pt x="399" y="0" on="1"/>
        <pt x="399" y="221" on="1"/>
        <pt x="190" y="221" on="1"/>
        <pt x="74" y="0" on="1"/>
        <pt x="16" y="0" on="1"/>
        <pt x="393" y="733" on="1"/>
        <pt x="717" y="733" on="1"/>
        <pt x="717" y="684" on="1"/>
        <pt x="452" y="684" on="1"/>
        <pt x="452" y="398" on="1"/>
        <pt x="695" y="398" on="1"/>
        <pt x="695" y="350" on="1"/>
        <pt x="452" y="350" on="1"/>
        <pt x="452" y="49" on="1"/>
        <pt x="717" y="49" on="1"/>
        <pt x="717" y="0" on="1"/>
      </contour>
      <contour>
        <pt x="399" y="634" on="1"/>
        <pt x="213" y="267" on="1"/>
        <pt x="399" y="267" on="1"/>
      </contour>
    </TTGlyph>
    <TTGlyph name="AEacute" xMin="16" yMin="0" xMax="717" yMax="914">
      <component glyphName="acute" x="329" y="299" flags="0x4"/>
      <component glyphName="AE" x="0" y="0" flags="0x4"/>
    </TTGlyph>
    <TTGlyph name="Aacute" xMin="17" yMin="0" xMax="502" yMax="919">
      <component glyphName="A" x="0" y="0" flags="0x204"/>
      <component glyphName="acute" x="103" y="304" flags="0x4"/>
    </TTGlyph>
    <TTGlyph name="Abreve" xMin="17" yMin="0" xMax="502" yMax="899">
      <component glyphName="A" x="0" y="0" flags="0x204"/>
      <component glyphName="breve" x="51" y="304" flags="0x4"/>
    </TTGlyph>
    <TTGlyph name="Acircumflex" xMin="17" yMin="0" xMax="502" yMax="917">
      <component glyphName="A" x="0" y="0" flags="0x204"/>
      <component glyphName="circumflex" x="49" y="304" flags="0x4"/>
    </TTGlyph>
    <TTGlyph name="Adieresis" xMin="17" yMin="0" xMax="502" yMax="874">
      <component glyphName="A" x="0" y="0" flags="0x204"/>
      <component glyphName="dieresis" x="51" y="304" flags="0x4"/>
    </TTGlyph>
    <TTGlyph name="Agrave" xMin="17" yMin="0" xMax="502" yMax="919">
      <component glyphName="A" x="0" y="0" flags="0x204"/>
      <component glyphName="grave" x="-5" y="304" flags="0x4"/>
    </TTGlyph>
    <TTGlyph name="Amacron" xMin="17" yMin="0" xMax="502" yMax="851">
      <component glyphName="A" x="0" y="0" flags="0x204"/>
      <component glyphName="macron" x="51" y="304" flags="0x4"/>
    </TTGlyph>
    <TTGlyph name="Aogonek" xMin="17" yMin="-202" xMax="512" yMax="743">
      <contour>
        <pt x="512" y="-166" on="1"/>
        <pt x="499" y="-182" on="0"/>
        <pt x="467" y="-201" on="0"/>
        <pt x="444" y="-202" on="1"/>
        <pt x="414" y="-202" on="0"/>
        <pt x="377" y="-163" on="0"/>
        <pt x="377" y="-131" on="1"/>
        <pt x="378" y="-102" on="0"/>
        <pt x="408" y="-41" on="0"/>
        <pt x="446" y="3" on="1"/>
        <pt x="381" y="214" on="1"/>
        <pt x="137" y="214" on="1"/>
        <pt x="72" y="0" on="1"/>
        <pt x="17" y="0" on="1"/>
        <pt x="251" y="743" on="1"/>
        <pt x="269" y="743" on="1"/>
        <pt x="502" y="0" on="1"/>
        <pt x="483" y="0" on="1"/>
        <pt x="420" y="-76" on="0"/>
        <pt x="420" y="-124" on="1"/>
        <pt x="420" y="-143" on="0"/>
        <pt x="438" y="-163" on="0"/>
        <pt x="452" y="-163" on="1"/>
        <pt x="474" y="-163" on="0"/>
        <pt x="492" y="-142" on="1"/>
      </contour>
      <contour>
        <pt x="366" y="261" on="1"/>
        <pt x="259" y="619" on="1"/>
        <pt x="152" y="261" on="1"/>
      </contour>
    </TTGlyph>
    <TTGlyph name="Aring" xMin="17" yMin="0" xMax="502" yMax="876">
      <contour>
        <pt x="349" y="789" on="1"/>
        <pt x="349" y="758" on="0"/>
        <pt x="312" y="711" on="0"/>
        <pt x="280" y="704" on="1"/>
        <pt x="502" y="0" on="1"/>
        <pt x="446" y="0" on="1"/>
        <pt x="380" y="214" on="1"/>
        <pt x="138" y="214" on="1"/>
        <pt x="71" y="0" on="1"/>
        <pt x="17" y="0" on="1"/>
        <pt x="240" y="705" on="1"/>
        <pt x="208" y="712" on="0"/>
        <pt x="172" y="759" on="0"/>
        <pt x="172" y="789" on="1"/>
        <pt x="172" y="824" on="0"/>
        <pt x="220" y="876" on="0"/>
        <pt x="261" y="876" on="1"/>
        <pt x="301" y="876" on="0"/>
        <pt x="349" y="824" on="0"/>
      </contour>
      <contour>
        <pt x="259" y="614" on="1"/>
        <pt x="152" y="260" on="1"/>
        <pt x="365" y="260" on="1"/>
      </contour>
      <contour>
        <pt x="311" y="790" on="1"/>
        <pt x="311" y="813" on="0"/>
        <pt x="284" y="845" on="0"/>
        <pt x="261" y="845" on="1"/>
        <pt x="238" y="845" on="0"/>
        <pt x="210" y="813" on="0"/>
        <pt x="210" y="790" on="1"/>
        <pt x="210" y="766" on="0"/>
        <pt x="238" y="734" on="0"/>
        <pt x="261" y="734" on="1"/>
        <pt x="284" y="734" on="0"/>
        <pt x="311" y="766" on="0"/>
      </contour>
    </TTGlyph>
    <TTGlyph name="Aringacute" xMin="17" yMin="0" xMax="502" yMax="1039">
      <component glyphName="acute" x="100" y="424" flags="0x4"/>
      <component glyphName="Aring" x="0" y="0" flags="0x4"/>
    </TTGlyph>
    <TTGlyph name="Atilde" xMin="17" yMin="0" xMax="502" yMax="876">
      <component glyphName="A" x="0" y="0" flags="0x204"/>
      <component glyphName="tilde" x="52" y="304" flags="0x4"/>
    </TTGlyph>
    <TTGlyph name="B" xMin="67" yMin="-6" xMax="421" yMax="739">
      <contour>
        <pt x="421" y="198" on="1"/>
        <pt x="421" y="154" on="0"/>
        <pt x="390" y="79" on="0"/>
        <pt x="331" y="25" on="0"/>
        <pt x="244" y="-6" on="0"/>
        <pt x="189" y="-6" on="1"/>
        <pt x="159" y="-6" on="0"/>
        <pt x="93" y="0" on="0"/>
        <pt x="67" y="3" on="1"/>
        <pt x="67" y="730" on="1"/>
        <pt x="125" y="739" on="0"/>
        <pt x="189" y="739" on="1"/>
        <pt x="245" y="739" on="0"/>
        <pt x="327" y="709" on="0"/>
        <pt x="381" y="658" on="0"/>
        <pt x="408" y="591" on="0"/>
        <pt x="408" y="555" on="1"/>
        <pt x="408" y="488" on="0"/>
        <pt x="339" y="399" on="0"/>
        <pt x="278" y="379" on="1"/>
        <pt x="347" y="362" on="0"/>
        <pt x="421" y="265" on="0"/>
      </contour>
      <contour>
        <pt x="354" y="549" on="1"/>
        <pt x="354" y="613" on="0"/>
        <pt x="272" y="692" on="0"/>
        <pt x="190" y="692" on="1"/>
        <pt x="173" y="692" on="0"/>
        <pt x="137" y="689" on="0"/>
        <pt x="120" y="687" on="1"/>
        <pt x="120" y="401" on="1"/>
        <pt x="133" y="399" on="0"/>
        <pt x="165" y="399" on="0"/>
        <pt x="180" y="399" on="1"/>
        <pt x="265" y="399" on="0"/>
        <pt x="354" y="483" on="0"/>
      </contour>
      <contour>
        <pt x="367" y="201" on="1"/>
        <pt x="367" y="271" on="0"/>
        <pt x="270" y="356" on="0"/>
        <pt x="182" y="356" on="1"/>
        <pt x="170" y="356" on="0"/>
        <pt x="134" y="355" on="0"/>
        <pt x="120" y="354" on="1"/>
        <pt x="120" y="47" on="1"/>
        <pt x="137" y="45" on="0"/>
        <pt x="178" y="41" on="0"/>
        <pt x="197" y="41" on="1"/>
        <pt x="275" y="41" on="0"/>
        <pt x="367" y="126" on="0"/>
      </contour>
    </TTGlyph>
    <TTGlyph name="C" xMin="44" yMin="-10" xMax="488" yMax="744">
      <contour>
        <pt x="486" y="50" on="1"/>
        <pt x="452" y="24" on="0"/>
        <pt x="369" y="-10" on="0"/>
        <pt x="317" y="-10" on="1"/>
        <pt x="259" y="-10" on="0"/>
        <pt x="159" y="39" on="0"/>
        <pt x="86" y="135" on="0"/>
        <pt x="44" y="274" on="0"/>
        <pt x="44" y="364" on="1"/>
        <pt x="44" y="452" on="0"/>
        <pt x="86" y="592" on="0"/>
        <pt x="160" y="691" on="0"/>
        <pt x="260" y="744" on="0"/>
        <pt x="318" y="744" on="1"/>
        <pt x="372" y="744" on="0"/>
        <pt x="454" y="711" on="0"/>
        <pt x="488" y="685" on="1"/>
        <pt x="463" y="642" on="1"/>
        <pt x="431" y="665" on="0"/>
        <pt x="357" y="694" on="0"/>
        <pt x="315" y="695" on="1"/>
        <pt x="269" y="695" on="0"/>
        <pt x="190" y="650" on="0"/>
        <pt x="133" y="564" on="0"/>
        <pt x="100" y="442" on="0"/>
        <pt x="100" y="366" on="1"/>
        <pt x="100" y="288" on="0"/>
        <pt x="134" y="166" on="0"/>
        <pt x="193" y="82" on="0"/>
        <pt x="273" y="39" on="0"/>
        <pt x="319" y="39" on="1"/>
        <pt x="360" y="39" on="0"/>
        <pt x="432" y="68" on="0"/>
        <pt x="464" y="91" on="1"/>
      </contour>
    </TTGlyph>
    <TTGlyph name="Cacute" xMin="44" yMin="-10" xMax="488" yMax="919">
      <component glyphName="acute" x="149" y="304" flags="0x4"/>
      <component glyphName="C" x="0" y="0" flags="0x4"/>
    </TTGlyph>
    <TTGlyph name="Ccaron" xMin="44" yMin="-10" xMax="488" yMax="914">
      <component glyphName="caron" x="97" y="304" flags="0x4"/>
      <component glyphName="C" x="0" y="0" flags="0x4"/>
    </TTGlyph>
    <TTGlyph name="Ccedilla" xMin="44" yMin="-201" xMax="488" yMax="744">
      <contour>
        <pt x="388" y="-127" on="1"/>
        <pt x="388" y="-156" on="0"/>
        <pt x="344" y="-201" on="0"/>
        <pt x="302" y="-201" on="1"/>
        <pt x="280" y="-201" on="0"/>
        <pt x="236" y="-186" on="0"/>
        <pt x="213" y="-173" on="1"/>
        <pt x="229" y="-140" on="1"/>
        <pt x="271" y="-165" on="0"/>
        <pt x="303" y="-165" on="1"/>
        <pt x="324" y="-165" on="0"/>
        <pt x="347" y="-145" on="0"/>
        <pt x="347" y="-129" on="1"/>
        <pt x="347" y="-110" on="0"/>
        <pt x="308" y="-81" on="0"/>
        <pt x="261" y="-76" on="1"/>
        <pt x="259" y="-71" on="1"/>
        <pt x="275" y="-6" on="1"/>
        <pt x="225" y="2" on="0"/>
        <pt x="140" y="58" on="0"/>
        <pt x="79" y="152" on="0"/>
        <pt x="44" y="282" on="0"/>
        <pt x="44" y="364" on="1"/>
        <pt x="44" y="452" on="0"/>
        <pt x="86" y="592" on="0"/>
        <pt x="160" y="691" on="0"/>
        <pt x="260" y="744" on="0"/>
        <pt x="318" y="744" on="1"/>
        <pt x="372" y="744" on="0"/>
        <pt x="454" y="711" on="0"/>
        <pt x="488" y="685" on="1"/>
        <pt x="463" y="642" on="1"/>
        <pt x="431" y="665" on="0"/>
        <pt x="357" y="694" on="0"/>
        <pt x="315" y="695" on="1"/>
        <pt x="269" y="695" on="0"/>
        <pt x="190" y="650" on="0"/>
        <pt x="133" y="564" on="0"/>
        <pt x="100" y="442" on="0"/>
        <pt x="100" y="366" on="1"/>
        <pt x="100" y="288" on="0"/>
        <pt x="134" y="166" on="0"/>
        <pt x="193" y="82" on="0"/>
        <pt x="273" y="39" on="0"/>
        <pt x="319" y="39" on="1"/>
        <pt x="360" y="39" on="0"/>
        <pt x="432" y="68" on="0"/>
        <pt x="464" y="91" on="1"/>
        <pt x="486" y="50" on="1"/>
        <pt x="452" y="24" on="0"/>
        <pt x="369" y="-10" on="0"/>
        <pt x="317" y="-10" on="1"/>
        <pt x="315" y="-10" on="0"/>
        <pt x="312" y="-9" on="0"/>
        <pt x="310" y="-9" on="1"/>
        <pt x="300" y="-46" on="1"/>
        <pt x="348" y="-57" on="0"/>
        <pt x="388" y="-101" on="0"/>
      </contour>
    </TTGlyph>
    <TTGlyph name="Cdotaccent" xMin="44" yMin="-10" xMax="488" yMax="874">
      <component glyphName="C" x="0" y="0" flags="0x204"/>
      <component glyphName="dotaccent" x="96" y="304" flags="0x4"/>
    </TTGlyph>
    <TTGlyph name="D" xMin="69" yMin="-6" xMax="509" yMax="739">
      <contour>
        <pt x="509" y="370" on="1"/>
        <pt x="509" y="291" on="0"/>
        <pt x="467" y="154" on="0"/>
        <pt x="387" y="52" on="0"/>
        <pt x="269" y="-6" on="0"/>
        <pt x="193" y="-6" on="1"/>
        <pt x="158" y="-6" on="0"/>
        <pt x="94" y="-1" on="0"/>
        <pt x="69" y="3" on="1"/>
        <pt x="69" y="731" on="1"/>
        <pt x="93" y="734" on="0"/>
        <pt x="156" y="739" on="0"/>
        <pt x="191" y="739" on="1"/>
        <pt x="268" y="739" on="0"/>
        <pt x="387" y="680" on="0"/>
        <pt x="468" y="580" on="0"/>
        <pt x="509" y="445" on="0"/>
      </contour>
      <contour>
        <pt x="454" y="370" on="1"/>
        <pt x="454" y="438" on="0"/>
        <pt x="419" y="556" on="0"/>
        <pt x="352" y="643" on="0"/>
        <pt x="255" y="692" on="0"/>
        <pt x="193" y="692" on="1"/>
        <pt x="150" y="692" on="0"/>
        <pt x="122" y="687" on="1"/>
        <pt x="122" y="46" on="1"/>
        <pt x="136" y="44" on="0"/>
        <pt x="172" y="41" on="0"/>
        <pt x="195" y="41" on="1"/>
        <pt x="257" y="41" on="0"/>
        <pt x="354" y="88" on="0"/>
        <pt x="420" y="174" on="0"/>
        <pt x="454" y="296" on="0"/>
      </contour>
    </TTGlyph>
    <TTGlyph name="Dcaron" xMin="69" yMin="-6" xMax="509" yMax="909">
      <component glyphName="caron" x="49" y="299" flags="0x4"/>
      <component glyphName="D" x="0" y="0" flags="0x4"/>
    </TTGlyph>
    <TTGlyph name="Dcroat" xMin="29" yMin="-7" xMax="527" yMax="740">
      <component glyphName="Eth" x="0" y="0" flags="0x204"/>
    </TTGlyph>
    <TTGlyph name="E" xMin="69" yMin="0" xMax="387" yMax="733">
      <contour>
        <pt x="69" y="0" on="1"/>
        <pt x="69" y="733" on="1"/>
        <pt x="387" y="733" on="1"/>
        <pt x="387" y="684" on="1"/>
        <pt x="122" y="684" on="1"/>
        <pt x="122" y="398" on="1"/>
        <pt x="365" y="398" on="1"/>
        <pt x="365" y="350" on="1"/>
        <pt x="122" y="350" on="1"/>
        <pt x="122" y="49" on="1"/>
        <pt x="387" y="49" on="1"/>
        <pt x="387" y="0" on="1"/>
      </contour>
    </TTGlyph>
    <TTGlyph name="Eacute" xMin="69" yMin="0" xMax="387" yMax="914">
      <component glyphName="acute" x="72" y="299" flags="0x4"/>
      <component glyphName="E" x="0" y="0" flags="0x4"/>
    </TTGlyph>
    <TTGlyph name="Ebreve" xMin="69" yMin="0" xMax="387" yMax="894">
      <component glyphName="E" x="0" y="0" flags="0x204"/>
      <component glyphName="breve" x="19" y="299" flags="0x4"/>
    </TTGlyph>
    <TTGlyph name="Ecaron" xMin="69" yMin="0" xMax="387" yMax="909">
      <component glyphName="caron" x="20" y="299" flags="0x4"/>
      <component glyphName="E" x="0" y="0" flags="0x4"/>
    </TTGlyph>
    <TTGlyph name="Ecircumflex" xMin="69" yMin="0" xMax="387" yMax="912">
      <component glyphName="circumflex" x="17" y="299" flags="0x4"/>
      <component glyphName="E" x="0" y="0" flags="0x4"/>
    </TTGlyph>
    <TTGlyph name="Edieresis" xMin="69" yMin="0" xMax="387" yMax="869">
      <component glyphName="dieresis" x="19" y="299" flags="0x4"/>
      <component glyphName="E" x="0" y="0" flags="0x4"/>
    </TTGlyph>
    <TTGlyph name="Edotaccent" xMin="69" yMin="0" xMax="387" yMax="869">
      <component glyphName="E" x="0" y="0" flags="0x204"/>
      <component glyphName="dotaccent" x="19" y="299" flags="0x4"/>
    </TTGlyph>
    <TTGlyph name="Egrave" xMin="69" yMin="0" xMax="387" yMax="914">
      <component glyphName="E" x="0" y="0" flags="0x204"/>
      <component glyphName="grave" x="-37" y="299" flags="0x4"/>
    </TTGlyph>
    <TTGlyph name="Emacron" xMin="69" yMin="0" xMax="387" yMax="846">
      <component glyphName="E" x="0" y="0" flags="0x204"/>
      <component glyphName="macron" x="19" y="299" flags="0x4"/>
    </TTGlyph>
    <TTGlyph name="Eogonek" xMin="69" yMin="-202" xMax="392" yMax="733">
      <contour>
        <pt x="363" y="0" on="1"/>
        <pt x="300" y="-76" on="0"/>
        <pt x="300" y="-124" on="1"/>
        <pt x="300" y="-143" on="0"/>
        <pt x="318" y="-163" on="0"/>
        <pt x="332" y="-163" on="1"/>
        <pt x="354" y="-163" on="0"/>
        <pt x="372" y="-142" on="1"/>
        <pt x="392" y="-166" on="1"/>
        <pt x="379" y="-182" on="0"/>
        <pt x="347" y="-201" on="0"/>
        <pt x="324" y="-202" on="1"/>
        <pt x="294" y="-202" on="0"/>
        <pt x="257" y="-163" on="0"/>
        <pt x="257" y="-131" on="1"/>
        <pt x="258" y="-102" on="0"/>
        <pt x="287" y="-42" on="0"/>
        <pt x="323" y="0" on="1"/>
        <pt x="69" y="0" on="1"/>
        <pt x="69" y="733" on="1"/>
        <pt x="387" y="733" on="1"/>
        <pt x="387" y="684" on="1"/>
        <pt x="122" y="684" on="1"/>
        <pt x="122" y="398" on="1"/>
        <pt x="365" y="398" on="1"/>
        <pt x="365" y="350" on="1"/>
        <pt x="122" y="350" on="1"/>
        <pt x="122" y="49" on="1"/>
        <pt x="387" y="49" on="1"/>
        <pt x="387" y="0" on="1"/>
      </contour>
    </TTGlyph>
    <TTGlyph name="Eth" xMin="29" yMin="-7" xMax="527" yMax="740">
      <contour>
        <pt x="527" y="370" on="1"/>
        <pt x="527" y="290" on="0"/>
        <pt x="485" y="153" on="0"/>
        <pt x="405" y="51" on="0"/>
        <pt x="287" y="-7" on="0"/>
        <pt x="211" y="-7" on="1"/>
        <pt x="176" y="-7" on="0"/>
        <pt x="112" y="-1" on="0"/>
        <pt x="87" y="2" on="1"/>
        <pt x="87" y="348" on="1"/>
        <pt x="29" y="348" on="1"/>
        <pt x="29" y="397" on="1"/>
        <pt x="87" y="397" on="1"/>
        <pt x="87" y="731" on="1"/>
        <pt x="111" y="735" on="0"/>
        <pt x="174" y="740" on="0"/>
        <pt x="209" y="740" on="1"/>
        <pt x="286" y="740" on="0"/>
        <pt x="405" y="681" on="0"/>
        <pt x="486" y="580" on="0"/>
        <pt x="527" y="445" on="0"/>
      </contour>
      <contour>
        <pt x="472" y="370" on="1"/>
        <pt x="472" y="438" on="0"/>
        <pt x="437" y="556" on="0"/>
        <pt x="370" y="643" on="0"/>
        <pt x="273" y="692" on="0"/>
        <pt x="211" y="692" on="1"/>
        <pt x="191" y="692" on="0"/>
        <pt x="153" y="690" on="0"/>
        <pt x="140" y="688" on="1"/>
        <pt x="140" y="397" on="1"/>
        <pt x="255" y="397" on="1"/>
        <pt x="255" y="348" on="1"/>
        <pt x="140" y="348" on="1"/>
        <pt x="140" y="45" on="1"/>
        <pt x="154" y="43" on="0"/>
        <pt x="190" y="40" on="0"/>
        <pt x="213" y="40" on="1"/>
        <pt x="275" y="40" on="0"/>
        <pt x="372" y="87" on="0"/>
        <pt x="438" y="174" on="0"/>
        <pt x="472" y="295" on="0"/>
      </contour>
    </TTGlyph>
    <TTGlyph name="Euro" xMin="20" yMin="-10" xMax="452" yMax="668">
      <contour>
        <pt x="20" y="380" on="1"/>
        <pt x="20" y="425" on="1"/>
        <pt x="84" y="425" on="1"/>
        <pt x="94" y="482" on="0"/>
        <pt x="136" y="573" on="0"/>
        <pt x="195" y="635" on="0"/>
        <pt x="270" y="668" on="0"/>
        <pt x="312" y="668" on="1"/>
        <pt x="355" y="668" on="0"/>
        <pt x="423" y="641" on="0"/>
        <pt x="452" y="620" on="1"/>
        <pt x="428" y="577" on="1"/>
        <pt x="402" y="596" on="0"/>
        <pt x="342" y="620" on="0"/>
        <pt x="308" y="620" on="1"/>
        <pt x="246" y="620" on="0"/>
        <pt x="156" y="519" on="0"/>
        <pt x="139" y="425" on="1"/>
        <pt x="372" y="425" on="1"/>
        <pt x="372" y="380" on="1"/>
        <pt x="131" y="380" on="1"/>
        <pt x="130" y="368" on="0"/>
        <pt x="129" y="342" on="0"/>
        <pt x="129" y="328" on="1"/>
        <pt x="129" y="313" on="0"/>
        <pt x="130" y="286" on="0"/>
        <pt x="131" y="272" on="1"/>
        <pt x="372" y="272" on="1"/>
        <pt x="372" y="228" on="1"/>
        <pt x="139" y="228" on="1"/>
        <pt x="156" y="135" on="0"/>
        <pt x="251" y="39" on="0"/>
        <pt x="312" y="39" on="1"/>
        <pt x="345" y="39" on="0"/>
        <pt x="404" y="62" on="0"/>
        <pt x="430" y="81" on="1"/>
        <pt x="451" y="39" on="1"/>
        <pt x="422" y="19" on="0"/>
        <pt x="353" y="-10" on="0"/>
        <pt x="311" y="-10" on="1"/>
        <pt x="269" y="-10" on="0"/>
        <pt x="195" y="21" on="0"/>
        <pt x="135" y="81" on="0"/>
        <pt x="93" y="170" on="0"/>
        <pt x="83" y="228" on="1"/>
        <pt x="20" y="228" on="1"/>
        <pt x="20" y="272" on="1"/>
        <pt x="76" y="272" on="1"/>
        <pt x="75" y="286" on="0"/>
        <pt x="75" y="312" on="0"/>
        <pt x="75" y="326" on="1"/>
        <pt x="75" y="340" on="0"/>
        <pt x="76" y="367" on="0"/>
        <pt x="77" y="380" on="1"/>
      </contour>
    </TTGlyph>
    <TTGlyph name="Euro.lin" xMin="25" yMin="-10" xMax="519" yMax="736">
      <contour>
        <pt x="25" y="419" on="1"/>
        <pt x="25" y="464" on="1"/>
        <pt x="98" y="464" on="1"/>
        <pt x="109" y="528" on="0"/>
        <pt x="156" y="629" on="0"/>
        <pt x="224" y="699" on="0"/>
        <pt x="310" y="736" on="0"/>
        <pt x="359" y="736" on="1"/>
        <pt x="410" y="736" on="0"/>
        <pt x="487" y="705" on="0"/>
        <pt x="519" y="682" on="1"/>
        <pt x="496" y="640" on="1"/>
        <pt x="465" y="661" on="0"/>
        <pt x="395" y="688" on="0"/>
        <pt x="355" y="688" on="1"/>
        <pt x="280" y="688" on="0"/>
        <pt x="172" y="570" on="0"/>
        <pt x="152" y="464" on="1"/>
        <pt x="429" y="464" on="1"/>
        <pt x="429" y="419" on="1"/>
        <pt x="145" y="419" on="1"/>
        <pt x="142" y="392" on="0"/>
        <pt x="142" y="362" on="1"/>
        <pt x="142" y="345" on="0"/>
        <pt x="144" y="314" on="0"/>
        <pt x="145" y="300" on="1"/>
        <pt x="429" y="300" on="1"/>
        <pt x="429" y="255" on="1"/>
        <pt x="152" y="255" on="1"/>
        <pt x="162" y="202" on="0"/>
        <pt x="202" y="122" on="0"/>
        <pt x="256" y="66" on="0"/>
        <pt x="322" y="38" on="0"/>
        <pt x="359" y="38" on="1"/>
        <pt x="397" y="38" on="0"/>
        <pt x="467" y="65" on="0"/>
        <pt x="498" y="87" on="1"/>
        <pt x="518" y="46" on="1"/>
        <pt x="486" y="23" on="0"/>
        <pt x="406" y="-10" on="0"/>
        <pt x="358" y="-10" on="1"/>
        <pt x="260" y="-10" on="0"/>
        <pt x="120" y="126" on="0"/>
        <pt x="98" y="255" on="1"/>
        <pt x="25" y="255" on="1"/>
        <pt x="25" y="300" on="1"/>
        <pt x="92" y="300" on="1"/>
        <pt x="89" y="328" on="0"/>
        <pt x="89" y="360" on="1"/>
        <pt x="89" y="390" on="0"/>
        <pt x="92" y="419" on="1"/>
      </contour>
    </TTGlyph>
    <TTGlyph name="F" xMin="69" yMin="0" xMax="385" yMax="733">
      <contour>
        <pt x="122" y="684" on="1"/>
        <pt x="122" y="394" on="1"/>
        <pt x="359" y="394" on="1"/>
        <pt x="359" y="345" on="1"/>
        <pt x="122" y="345" on="1"/>
        <pt x="122" y="0" on="1"/>
        <pt x="69" y="0" on="1"/>
        <pt x="69" y="733" on="1"/>
        <pt x="385" y="733" on="1"/>
        <pt x="385" y="684" on="1"/>
      </contour>
    </TTGlyph>
    <TTGlyph name="G" xMin="44" yMin="-9" xMax="505" yMax="744">
      <contour>
        <pt x="505" y="369" on="1"/>
        <pt x="505" y="52" on="1"/>
        <pt x="469" y="23" on="0"/>
        <pt x="379" y="-9" on="0"/>
        <pt x="326" y="-9" on="1"/>
        <pt x="267" y="-9" on="0"/>
        <pt x="164" y="40" on="0"/>
        <pt x="88" y="136" on="0"/>
        <pt x="44" y="276" on="0"/>
        <pt x="44" y="366" on="1"/>
        <pt x="44" y="455" on="0"/>
        <pt x="88" y="596" on="0"/>
        <pt x="165" y="693" on="0"/>
        <pt x="266" y="744" on="0"/>
        <pt x="323" y="744" on="1"/>
        <pt x="383" y="744" on="0"/>
        <pt x="468" y="705" on="0"/>
        <pt x="504" y="676" on="1"/>
        <pt x="475" y="635" on="1"/>
        <pt x="442" y="662" on="0"/>
        <pt x="368" y="695" on="0"/>
        <pt x="322" y="695" on="1"/>
        <pt x="274" y="695" on="0"/>
        <pt x="193" y="650" on="0"/>
        <pt x="134" y="566" on="0"/>
        <pt x="100" y="445" on="0"/>
        <pt x="100" y="368" on="1"/>
        <pt x="100" y="289" on="0"/>
        <pt x="134" y="166" on="0"/>
        <pt x="195" y="82" on="0"/>
        <pt x="278" y="38" on="0"/>
        <pt x="327" y="38" on="1"/>
        <pt x="365" y="38" on="0"/>
        <pt x="426" y="58" on="0"/>
        <pt x="452" y="77" on="1"/>
        <pt x="452" y="320" on="1"/>
        <pt x="305" y="320" on="1"/>
        <pt x="305" y="369" on="1"/>
      </contour>
    </TTGlyph>
    <TTGlyph name="G.alt" xMin="44" yMin="-9" xMax="541" yMax="744">
      <contour>
        <pt x="541" y="367" on="1"/>
        <pt x="541" y="286" on="0"/>
        <pt x="511" y="148" on="0"/>
        <pt x="452" y="47" on="0"/>
        <pt x="363" y="-9" on="0"/>
        <pt x="305" y="-9" on="1"/>
        <pt x="248" y="-9" on="0"/>
        <pt x="153" y="45" on="0"/>
        <pt x="83" y="143" on="0"/>
        <pt x="44" y="281" on="0"/>
        <pt x="44" y="366" on="1"/>
        <pt x="44" y="454" on="0"/>
        <pt x="86" y="595" on="0"/>
        <pt x="160" y="692" on="0"/>
        <pt x="257" y="744" on="0"/>
        <pt x="313" y="744" on="1"/>
        <pt x="372" y="744" on="0"/>
        <pt x="462" y="697" on="0"/>
        <pt x="498" y="659" on="1"/>
        <pt x="465" y="622" on="1"/>
        <pt x="433" y="655" on="0"/>
        <pt x="358" y="695" on="0"/>
        <pt x="312" y="696" on="1"/>
        <pt x="266" y="696" on="0"/>
        <pt x="189" y="651" on="0"/>
        <pt x="132" y="566" on="0"/>
        <pt x="100" y="444" on="0"/>
        <pt x="100" y="368" on="1"/>
        <pt x="100" y="290" on="0"/>
        <pt x="132" y="168" on="0"/>
        <pt x="187" y="82" on="0"/>
        <pt x="263" y="37" on="0"/>
        <pt x="307" y="37" on="1"/>
        <pt x="346" y="37" on="0"/>
        <pt x="411" y="76" on="0"/>
        <pt x="458" y="149" on="0"/>
        <pt x="486" y="253" on="0"/>
        <pt x="488" y="318" on="1"/>
        <pt x="291" y="318" on="1"/>
        <pt x="291" y="367" on="1"/>
      </contour>
    </TTGlyph>
    <TTGlyph name="Gbreve" xMin="44" yMin="-9" xMax="505" yMax="899">
      <component glyphName="G" x="0" y="0" flags="0x204"/>
      <component glyphName="breve" x="102" y="304" flags="0x4"/>
    </TTGlyph>
    <TTGlyph name="Gbreve.alt" xMin="44" yMin="-9" xMax="541" yMax="899">
      <component glyphName="G.alt" x="0" y="0" flags="0x204"/>
      <component glyphName="breve" x="104" y="304" flags="0x4"/>
    </TTGlyph>
    <TTGlyph name="Gcommaaccent" xMin="44" yMin="-239" xMax="505" yMax="744">
      <component glyphName="commaaccent" x="233" y="0" flags="0x4"/>
      <component glyphName="G" x="0" y="0" flags="0x4"/>
    </TTGlyph>
    <TTGlyph name="Gcommaaccent.alt" xMin="44" yMin="-239" xMax="541" yMax="744">
      <component glyphName="commaaccent" x="230" y="0" flags="0x4"/>
      <component glyphName="G.alt" x="0" y="0" flags="0x4"/>
    </TTGlyph>
    <TTGlyph name="Gdotaccent" xMin="44" yMin="-9" xMax="505" yMax="874">
      <component glyphName="G" x="0" y="0" flags="0x204"/>
      <component glyphName="dotaccent" x="102" y="304" flags="0x4"/>
    </TTGlyph>
    <TTGlyph name="Gdotaccent.alt" xMin="44" yMin="-9" xMax="541" yMax="874">
      <component glyphName="G.alt" x="0" y="0" flags="0x204"/>
      <component glyphName="dotaccent" x="104" y="304" flags="0x4"/>
    </TTGlyph>
    <TTGlyph name="H" xMin="69" yMin="0" xMax="474" yMax="733">
      <contour>
        <pt x="420" y="0" on="1"/>
        <pt x="420" y="349" on="1"/>
        <pt x="122" y="349" on="1"/>
        <pt x="122" y="0" on="1"/>
        <pt x="69" y="0" on="1"/>
        <pt x="69" y="733" on="1"/>
        <pt x="122" y="733" on="1"/>
        <pt x="122" y="398" on="1"/>
        <pt x="420" y="398" on="1"/>
        <pt x="420" y="733" on="1"/>
        <pt x="474" y="733" on="1"/>
        <pt x="474" y="0" on="1"/>
      </contour>
    </TTGlyph>
    <TTGlyph name="Hbar" xMin="7" yMin="0" xMax="536" yMax="733">
      <contour>
        <pt x="420" y="0" on="1"/>
        <pt x="420" y="349" on="1"/>
        <pt x="122" y="349" on="1"/>
        <pt x="122" y="0" on="1"/>
        <pt x="69" y="0" on="1"/>
        <pt x="69" y="556" on="1"/>
        <pt x="7" y="556" on="1"/>
        <pt x="7" y="600" on="1"/>
        <pt x="69" y="600" on="1"/>
        <pt x="69" y="733" on="1"/>
        <pt x="122" y="733" on="1"/>
        <pt x="122" y="600" on="1"/>
        <pt x="420" y="600" on="1"/>
        <pt x="420" y="733" on="1"/>
        <pt x="474" y="733" on="1"/>
        <pt x="474" y="600" on="1"/>
        <pt x="536" y="600" on="1"/>
        <pt x="536" y="556" on="1"/>
        <pt x="474" y="556" on="1"/>
        <pt x="474" y="0" on="1"/>
      </contour>
      <contour>
        <pt x="420" y="398" on="1"/>
        <pt x="420" y="556" on="1"/>
        <pt x="122" y="556" on="1"/>
        <pt x="122" y="398" on="1"/>
      </contour>
    </TTGlyph>
    <TTGlyph name="I" xMin="73" yMin="0" xMax="126" yMax="733">
      <contour>
        <pt x="73" y="0" on="1"/>
        <pt x="73" y="733" on="1"/>
        <pt x="126" y="733" on="1"/>
        <pt x="126" y="0" on="1"/>
      </contour>
    </TTGlyph>
    <TTGlyph name="Iacute" xMin="62" yMin="0" xMax="236" yMax="914">
      <component glyphName="I" x="0" y="0" flags="0x204"/>
      <component glyphName="acute" x="-55" y="299" flags="0x4"/>
    </TTGlyph>
    <TTGlyph name="Ibreve" xMin="-2" yMin="0" xMax="204" yMax="894">
      <component glyphName="I" x="0" y="0" flags="0x204"/>
      <component glyphName="breve" x="-108" y="299" flags="0x4"/>
    </TTGlyph>
    <TTGlyph name="Icircumflex" xMin="-15" yMin="0" xMax="215" yMax="912">
      <component glyphName="I" x="0" y="0" flags="0x204"/>
      <component glyphName="circumflex" x="-110" y="299" flags="0x4"/>
    </TTGlyph>
    <TTGlyph name="Idieresis" xMin="-4" yMin="0" xMax="205" yMax="869">
      <component glyphName="I" x="0" y="0" flags="0x204"/>
      <component glyphName="dieresis" x="-108" y="299" flags="0x4"/>
    </TTGlyph>
    <TTGlyph name="Idotaccent" xMin="64" yMin="0" xMax="137" yMax="869">
      <component glyphName="I" x="0" y="0" flags="0x204"/>
      <component glyphName="dotaccent" x="-108" y="299" flags="0x4"/>
    </TTGlyph>
    <TTGlyph name="Igrave" xMin="-38" yMin="0" xMax="136" yMax="914">
      <component glyphName="I" x="0" y="0" flags="0x204"/>
      <component glyphName="grave" x="-166" y="299" flags="0x4"/>
    </TTGlyph>
    <TTGlyph name="Imacron" xMin="-17" yMin="0" xMax="218" yMax="846">
      <component glyphName="I" x="0" y="0" flags="0x204"/>
      <component glyphName="macron" x="-108" y="299" flags="0x4"/>
    </TTGlyph>
    <TTGlyph name="Iogonek" xMin="20" yMin="-202" xMax="154" yMax="733">
      <contour>
        <pt x="154" y="-166" on="1"/>
        <pt x="142" y="-182" on="0"/>
        <pt x="109" y="-201" on="0"/>
        <pt x="86" y="-202" on="1"/>
        <pt x="57" y="-202" on="0"/>
        <pt x="20" y="-162" on="0"/>
        <pt x="21" y="-129" on="1"/>
        <pt x="21" y="-101" on="0"/>
        <pt x="46" y="-43" on="0"/>
        <pt x="79" y="0" on="1"/>
        <pt x="73" y="0" on="1"/>
        <pt x="73" y="733" on="1"/>
        <pt x="126" y="733" on="1"/>
        <pt x="126" y="0" on="1"/>
        <pt x="119" y="0" on="1"/>
        <pt x="88" y="-41" on="0"/>
        <pt x="62" y="-97" on="0"/>
        <pt x="62" y="-123" on="1"/>
        <pt x="62" y="-143" on="0"/>
        <pt x="80" y="-164" on="0"/>
        <pt x="94" y="-164" on="1"/>
        <pt x="117" y="-164" on="0"/>
        <pt x="136" y="-142" on="1"/>
      </contour>
    </TTGlyph>
    <TTGlyph name="J" xMin="9" yMin="-11" xMax="293" yMax="734">
      <contour>
        <pt x="293" y="166" on="1"/>
        <pt x="293" y="83" on="0"/>
        <pt x="211" y="-11" on="0"/>
        <pt x="139" y="-11" on="1"/>
        <pt x="98" y="-11" on="0"/>
        <pt x="34" y="16" on="0"/>
        <pt x="9" y="37" on="1"/>
        <pt x="37" y="78" on="1"/>
        <pt x="59" y="60" on="0"/>
        <pt x="110" y="38" on="0"/>
        <pt x="139" y="38" on="1"/>
        <pt x="187" y="38" on="0"/>
        <pt x="239" y="103" on="0"/>
        <pt x="239" y="169" on="1"/>
        <pt x="239" y="734" on="1"/>
        <pt x="293" y="734" on="1"/>
      </contour>
    </TTGlyph>
    <TTGlyph name="K" xMin="69" yMin="0" xMax="445" yMax="733">
      <contour>
        <pt x="69" y="733" on="1"/>
        <pt x="122" y="733" on="1"/>
        <pt x="122" y="388" on="1"/>
        <pt x="372" y="733" on="1"/>
        <pt x="435" y="733" on="1"/>
        <pt x="172" y="378" on="1"/>
        <pt x="445" y="0" on="1"/>
        <pt x="380" y="0" on="1"/>
        <pt x="122" y="363" on="1"/>
        <pt x="122" y="0" on="1"/>
        <pt x="69" y="0" on="1"/>
      </contour>
    </TTGlyph>
    <TTGlyph name="Kcommaaccent" xMin="69" yMin="-228" xMax="445" yMax="733">
      <component glyphName="commaaccent" x="164" y="11" flags="0x4"/>
      <component glyphName="K" x="0" y="0" flags="0x4"/>
    </TTGlyph>
    <TTGlyph name="L" xMin="69" yMin="0" xMax="382" yMax="733">
      <contour>
        <pt x="69" y="0" on="1"/>
        <pt x="69" y="733" on="1"/>
        <pt x="122" y="733" on="1"/>
        <pt x="122" y="49" on="1"/>
        <pt x="382" y="49" on="1"/>
        <pt x="382" y="0" on="1"/>
      </contour>
    </TTGlyph>
    <TTGlyph name="Lacute" xMin="69" yMin="0" xMax="382" yMax="914">
      <component glyphName="acute" x="-38" y="299" flags="0x4"/>
      <component glyphName="L" x="0" y="0" flags="0x4"/>
    </TTGlyph>
    <TTGlyph name="Lcaron" xMin="69" yMin="0" xMax="382" yMax="734">
      <component glyphName="caron.alt" x="132" y="-3" flags="0x4"/>
      <component glyphName="L" x="0" y="0" flags="0x4"/>
    </TTGlyph>
    <TTGlyph name="Lcommaaccent" xMin="69" yMin="-239" xMax="382" yMax="733">
      <component glyphName="commaaccent" x="146" y="0" flags="0x4"/>
      <component glyphName="L" x="0" y="0" flags="0x4"/>
    </TTGlyph>
    <TTGlyph name="Ldot" xMin="69" yMin="0" xMax="382" yMax="733">
      <component glyphName="L" x="0" y="0" flags="0x204"/>
      <component glyphName="dotaccent" x="86" y="-164" flags="0x4"/>
    </TTGlyph>
    <TTGlyph name="Lslash" xMin="23" yMin="0" xMax="397" yMax="733">
      <contour>
        <pt x="84" y="0" on="1"/>
        <pt x="84" y="324" on="1"/>
        <pt x="23" y="297" on="1"/>
        <pt x="23" y="350" on="1"/>
        <pt x="84" y="378" on="1"/>
        <pt x="84" y="733" on="1"/>
        <pt x="137" y="733" on="1"/>
        <pt x="137" y="402" on="1"/>
        <pt x="237" y="447" on="1"/>
        <pt x="237" y="394" on="1"/>
        <pt x="209" y="381" on="0"/>
        <pt x="187" y="371" on="1"/>
        <pt x="177" y="366" on="0"/>
        <pt x="160" y="358" on="0"/>
        <pt x="153" y="355" on="1"/>
        <pt x="145" y="351" on="0"/>
        <pt x="137" y="348" on="1"/>
        <pt x="137" y="49" on="1"/>
        <pt x="397" y="49" on="1"/>
        <pt x="397" y="0" on="1"/>
      </contour>
    </TTGlyph>
    <TTGlyph name="M" xMin="62" yMin="0" xMax="580" yMax="740">
      <contour>
        <pt x="80" y="738" on="1"/>
        <pt x="99" y="740" on="1"/>
        <pt x="323" y="235" on="1"/>
        <pt x="543" y="740" on="1"/>
        <pt x="562" y="738" on="1"/>
        <pt x="580" y="0" on="1"/>
        <pt x="528" y="0" on="1"/>
        <pt x="519" y="568" on="1"/>
        <pt x="327" y="135" on="1"/>
        <pt x="316" y="135" on="1"/>
        <pt x="121" y="569" on="1"/>
        <pt x="114" y="0" on="1"/>
        <pt x="62" y="0" on="1"/>
      </contour>
    </TTGlyph>
    <TTGlyph name="M.alt" xMin="61" yMin="0" xMax="580" yMax="739">
      <contour>
        <pt x="527" y="0" on="1"/>
        <pt x="519" y="574" on="1"/>
        <pt x="327" y="167" on="1"/>
        <pt x="315" y="167" on="1"/>
        <pt x="122" y="574" on="1"/>
        <pt x="114" y="0" on="1"/>
        <pt x="61" y="0" on="1"/>
        <pt x="80" y="738" on="1"/>
        <pt x="99" y="739" on="1"/>
        <pt x="323" y="264" on="1"/>
        <pt x="543" y="739" on="1"/>
        <pt x="562" y="738" on="1"/>
        <pt x="580" y="0" on="1"/>
      </contour>
    </TTGlyph>
    <TTGlyph name="N" xMin="69" yMin="-6" xMax="484" yMax="739">
      <contour>
        <pt x="121" y="583" on="1"/>
        <pt x="121" y="0" on="1"/>
        <pt x="69" y="0" on="1"/>
        <pt x="69" y="737" on="1"/>
        <pt x="88" y="739" on="1"/>
        <pt x="432" y="153" on="1"/>
        <pt x="432" y="733" on="1"/>
        <pt x="484" y="733" on="1"/>
        <pt x="484" y="-4" on="1"/>
        <pt x="467" y="-6" on="1"/>
      </contour>
    </TTGlyph>
    <TTGlyph name="Nacute" xMin="69" yMin="-6" xMax="484" yMax="908">
      <component glyphName="acute" x="120" y="293" flags="0x4"/>
      <component glyphName="N" x="0" y="0" flags="0x4"/>
    </TTGlyph>
    <TTGlyph name="Ncaron" xMin="69" yMin="-6" xMax="484" yMax="903">
      <component glyphName="caron" x="67" y="293" flags="0x4"/>
      <component glyphName="N" x="0" y="0" flags="0x4"/>
    </TTGlyph>
    <TTGlyph name="Ncommaaccent" xMin="69" yMin="-228" xMax="484" yMax="739">
      <component glyphName="commaaccent" x="198" y="11" flags="0x4"/>
      <component glyphName="N" x="0" y="0" flags="0x4"/>
    </TTGlyph>
    <TTGlyph name="Ntilde" xMin="69" yMin="-6" xMax="484" yMax="865">
      <component glyphName="N" x="0" y="0" flags="0x204"/>
      <component glyphName="tilde" x="69" y="293" flags="0x4"/>
    </TTGlyph>
    <TTGlyph name="O" xMin="44" yMin="-10" xMax="558" yMax="743">
      <contour>
        <pt x="558" y="367" on="1"/>
        <pt x="558" y="290" on="0"/>
        <pt x="521" y="153" on="0"/>
        <pt x="454" y="50" on="0"/>
        <pt x="358" y="-10" on="0"/>
        <pt x="300" y="-10" on="1"/>
        <pt x="242" y="-10" on="0"/>
        <pt x="147" y="50" on="0"/>
        <pt x="80" y="152" on="0"/>
        <pt x="44" y="289" on="0"/>
        <pt x="44" y="366" on="1"/>
        <pt x="44" y="444" on="0"/>
        <pt x="81" y="581" on="0"/>
        <pt x="149" y="683" on="0"/>
        <pt x="244" y="743" on="0"/>
        <pt x="303" y="743" on="1"/>
        <pt x="361" y="743" on="0"/>
        <pt x="455" y="684" on="0"/>
        <pt x="522" y="582" on="0"/>
        <pt x="558" y="445" on="0"/>
      </contour>
      <contour>
        <pt x="503" y="367" on="1"/>
        <pt x="503" y="438" on="0"/>
        <pt x="473" y="559" on="0"/>
        <pt x="420" y="647" on="0"/>
        <pt x="346" y="696" on="0"/>
        <pt x="302" y="696" on="1"/>
        <pt x="258" y="696" on="0"/>
        <pt x="184" y="647" on="0"/>
        <pt x="130" y="559" on="0"/>
        <pt x="100" y="438" on="0"/>
        <pt x="100" y="367" on="1"/>
        <pt x="100" y="295" on="0"/>
        <pt x="130" y="174" on="0"/>
        <pt x="184" y="86" on="0"/>
        <pt x="258" y="37" on="0"/>
        <pt x="302" y="37" on="1"/>
        <pt x="346" y="37" on="0"/>
        <pt x="420" y="86" on="0"/>
        <pt x="473" y="174" on="0"/>
        <pt x="503" y="295" on="0"/>
      </contour>
    </TTGlyph>
    <TTGlyph name="OE" xMin="44" yMin="-6" xMax="746" yMax="739">
      <contour>
        <pt x="455" y="0" on="1"/>
        <pt x="411" y="-6" on="0"/>
        <pt x="362" y="-6" on="1"/>
        <pt x="285" y="-6" on="0"/>
        <pt x="167" y="52" on="0"/>
        <pt x="86" y="152" on="0"/>
        <pt x="44" y="286" on="0"/>
        <pt x="44" y="363" on="1"/>
        <pt x="44" y="441" on="0"/>
        <pt x="85" y="578" on="0"/>
        <pt x="165" y="680" on="0"/>
        <pt x="283" y="739" on="0"/>
        <pt x="360" y="739" on="1"/>
        <pt x="386" y="739" on="0"/>
        <pt x="439" y="735" on="0"/>
        <pt x="459" y="733" on="1"/>
        <pt x="746" y="733" on="1"/>
        <pt x="746" y="684" on="1"/>
        <pt x="481" y="684" on="1"/>
        <pt x="481" y="398" on="1"/>
        <pt x="724" y="398" on="1"/>
        <pt x="724" y="350" on="1"/>
        <pt x="481" y="350" on="1"/>
        <pt x="481" y="49" on="1"/>
        <pt x="746" y="49" on="1"/>
        <pt x="746" y="0" on="1"/>
      </contour>
      <contour>
        <pt x="428" y="687" on="1"/>
        <pt x="414" y="689" on="0"/>
        <pt x="379" y="692" on="0"/>
        <pt x="358" y="692" on="1"/>
        <pt x="295" y="692" on="0"/>
        <pt x="199" y="643" on="0"/>
        <pt x="133" y="556" on="0"/>
        <pt x="99" y="435" on="0"/>
        <pt x="99" y="363" on="1"/>
        <pt x="99" y="293" on="0"/>
        <pt x="134" y="175" on="0"/>
        <pt x="201" y="89" on="0"/>
        <pt x="298" y="41" on="0"/>
        <pt x="360" y="41" on="1"/>
        <pt x="380" y="41" on="0"/>
        <pt x="415" y="43" on="0"/>
        <pt x="428" y="45" on="1"/>
      </contour>
    </TTGlyph>
    <TTGlyph name="Oacute" xMin="44" yMin="-10" xMax="558" yMax="919">
      <component glyphName="acute" x="145" y="304" flags="0x4"/>
      <component glyphName="O" x="0" y="0" flags="0x4"/>
    </TTGlyph>
    <TTGlyph name="Obreve" xMin="44" yMin="-10" xMax="558" yMax="899">
      <component glyphName="O" x="0" y="0" flags="0x204"/>
      <component glyphName="breve" x="93" y="304" flags="0x4"/>
    </TTGlyph>
    <TTGlyph name="Ocircumflex" xMin="44" yMin="-10" xMax="558" yMax="917">
      <component glyphName="circumflex" x="91" y="304" flags="0x4"/>
      <component glyphName="O" x="0" y="0" flags="0x4"/>
    </TTGlyph>
    <TTGlyph name="Odieresis" xMin="44" yMin="-10" xMax="558" yMax="874">
      <component glyphName="dieresis" x="93" y="304" flags="0x4"/>
      <component glyphName="O" x="0" y="0" flags="0x4"/>
    </TTGlyph>
    <TTGlyph name="Ograve" xMin="44" yMin="-10" xMax="558" yMax="919">
      <component glyphName="O" x="0" y="0" flags="0x204"/>
      <component glyphName="grave" x="35" y="304" flags="0x4"/>
    </TTGlyph>
    <TTGlyph name="Ohungarumlaut" xMin="44" yMin="-10" xMax="558" yMax="960">
      <component glyphName="hungarumlaut" x="125" y="304" flags="0x4"/>
      <component glyphName="O" x="0" y="0" flags="0x4"/>
    </TTGlyph>
    <TTGlyph name="Omacron" xMin="44" yMin="-10" xMax="558" yMax="851">
      <component glyphName="macron" x="93" y="304" flags="0x4"/>
      <component glyphName="O" x="0" y="0" flags="0x4"/>
    </TTGlyph>
    <TTGlyph name="Oslash" xMin="31" yMin="-10" xMax="570" yMax="743">
      <contour>
        <pt x="558" y="367" on="1"/>
        <pt x="558" y="290" on="0"/>
        <pt x="521" y="153" on="0"/>
        <pt x="454" y="50" on="0"/>
        <pt x="358" y="-10" on="0"/>
        <pt x="300" y="-10" on="1"/>
        <pt x="247" y="-10" on="0"/>
        <pt x="160" y="39" on="0"/>
        <pt x="127" y="82" on="1"/>
        <pt x="124" y="79" on="0"/>
        <pt x="104" y="50" on="0"/>
        <pt x="93" y="34" on="1"/>
        <pt x="80" y="15" on="0"/>
        <pt x="65" y="-8" on="1"/>
        <pt x="31" y="17" on="1"/>
        <pt x="102" y="122" on="1"/>
        <pt x="74" y="172" on="0"/>
        <pt x="44" y="296" on="0"/>
        <pt x="44" y="366" on="1"/>
        <pt x="44" y="444" on="0"/>
        <pt x="81" y="581" on="0"/>
        <pt x="149" y="683" on="0"/>
        <pt x="244" y="743" on="0"/>
        <pt x="303" y="743" on="1"/>
        <pt x="356" y="743" on="0"/>
        <pt x="442" y="695" on="0"/>
        <pt x="475" y="653" on="1"/>
        <pt x="537" y="742" on="1"/>
        <pt x="570" y="717" on="1"/>
        <pt x="552" y="690" on="0"/>
        <pt x="538" y="668" on="1"/>
        <pt x="525" y="649" on="0"/>
        <pt x="503" y="615" on="0"/>
        <pt x="500" y="613" on="1"/>
        <pt x="529" y="563" on="0"/>
        <pt x="558" y="438" on="0"/>
      </contour>
      <contour>
        <pt x="503" y="367" on="1"/>
        <pt x="503" y="422" on="0"/>
        <pt x="483" y="518" on="0"/>
        <pt x="464" y="558" on="1"/>
        <pt x="441" y="526" on="0"/>
        <pt x="416" y="491" on="1"/>
        <pt x="394" y="461" on="0"/>
        <pt x="341" y="385" on="0"/>
        <pt x="312" y="345" on="1"/>
        <pt x="245" y="251" on="0"/>
        <pt x="160" y="132" on="1"/>
        <pt x="186" y="87" on="0"/>
        <pt x="259" y="37" on="0"/>
        <pt x="302" y="37" on="1"/>
        <pt x="346" y="37" on="0"/>
        <pt x="420" y="86" on="0"/>
        <pt x="473" y="174" on="0"/>
        <pt x="503" y="295" on="0"/>
      </contour>
      <contour>
        <pt x="442" y="604" on="1"/>
        <pt x="416" y="648" on="0"/>
        <pt x="344" y="696" on="0"/>
        <pt x="302" y="696" on="1"/>
        <pt x="258" y="696" on="0"/>
        <pt x="184" y="647" on="0"/>
        <pt x="130" y="559" on="0"/>
        <pt x="100" y="438" on="0"/>
        <pt x="100" y="367" on="1"/>
        <pt x="100" y="313" on="0"/>
        <pt x="120" y="217" on="0"/>
        <pt x="138" y="178" on="1"/>
      </contour>
    </TTGlyph>
    <TTGlyph name="Oslashacute" xMin="31" yMin="-10" xMax="570" yMax="919">
      <component glyphName="Oslash" x="0" y="0" flags="0x204"/>
      <component glyphName="acute" x="144" y="304" flags="0x4"/>
    </TTGlyph>
    <TTGlyph name="Otilde" xMin="44" yMin="-10" xMax="558" yMax="876">
      <component glyphName="O" x="0" y="0" flags="0x204"/>
      <component glyphName="tilde" x="94" y="304" flags="0x4"/>
    </TTGlyph>
    <TTGlyph name="P" xMin="69" yMin="0" xMax="416" yMax="739">
      <contour>
        <pt x="416" y="503" on="1"/>
        <pt x="416" y="452" on="0"/>
        <pt x="385" y="364" on="0"/>
        <pt x="326" y="299" on="0"/>
        <pt x="240" y="262" on="0"/>
        <pt x="185" y="262" on="1"/>
        <pt x="170" y="262" on="0"/>
        <pt x="136" y="264" on="0"/>
        <pt x="122" y="266" on="1"/>
        <pt x="122" y="0" on="1"/>
        <pt x="69" y="0" on="1"/>
        <pt x="69" y="730" on="1"/>
        <pt x="95" y="734" on="0"/>
        <pt x="150" y="739" on="0"/>
        <pt x="182" y="739" on="1"/>
        <pt x="242" y="739" on="0"/>
        <pt x="330" y="700" on="0"/>
        <pt x="388" y="635" on="0"/>
        <pt x="416" y="549" on="0"/>
      </contour>
      <contour>
        <pt x="361" y="501" on="1"/>
        <pt x="361" y="540" on="0"/>
        <pt x="339" y="609" on="0"/>
        <pt x="295" y="661" on="0"/>
        <pt x="229" y="691" on="0"/>
        <pt x="185" y="691" on="1"/>
        <pt x="167" y="691" on="0"/>
        <pt x="137" y="688" on="0"/>
        <pt x="122" y="686" on="1"/>
        <pt x="122" y="314" on="1"/>
        <pt x="136" y="312" on="0"/>
        <pt x="170" y="309" on="0"/>
        <pt x="185" y="309" on="1"/>
        <pt x="227" y="309" on="0"/>
        <pt x="292" y="337" on="0"/>
        <pt x="337" y="388" on="0"/>
        <pt x="361" y="459" on="0"/>
      </contour>
    </TTGlyph>
    <TTGlyph name="Q" xMin="44" yMin="-17" xMax="567" yMax="743">
      <contour>
        <pt x="532" y="-17" on="1"/>
        <pt x="515" y="3" on="0"/>
        <pt x="500" y="20" on="1"/>
        <pt x="487" y="34" on="0"/>
        <pt x="464" y="59" on="0"/>
        <pt x="460" y="63" on="1"/>
        <pt x="428" y="28" on="0"/>
        <pt x="348" y="-10" on="0"/>
        <pt x="300" y="-10" on="1"/>
        <pt x="242" y="-10" on="0"/>
        <pt x="147" y="50" on="0"/>
        <pt x="80" y="152" on="0"/>
        <pt x="44" y="289" on="0"/>
        <pt x="44" y="366" on="1"/>
        <pt x="44" y="444" on="0"/>
        <pt x="81" y="581" on="0"/>
        <pt x="149" y="683" on="0"/>
        <pt x="244" y="743" on="0"/>
        <pt x="303" y="743" on="1"/>
        <pt x="361" y="743" on="0"/>
        <pt x="455" y="684" on="0"/>
        <pt x="522" y="582" on="0"/>
        <pt x="558" y="445" on="0"/>
        <pt x="558" y="367" on="1"/>
        <pt x="558" y="290" on="0"/>
        <pt x="523" y="154" on="0"/>
        <pt x="491" y="103" on="1"/>
        <pt x="494" y="99" on="0"/>
        <pt x="518" y="72" on="0"/>
        <pt x="532" y="56" on="1"/>
        <pt x="548" y="38" on="0"/>
        <pt x="567" y="16" on="1"/>
      </contour>
      <contour>
        <pt x="503" y="367" on="1"/>
        <pt x="503" y="438" on="0"/>
        <pt x="473" y="559" on="0"/>
        <pt x="420" y="647" on="0"/>
        <pt x="346" y="696" on="0"/>
        <pt x="302" y="696" on="1"/>
        <pt x="258" y="696" on="0"/>
        <pt x="184" y="647" on="0"/>
        <pt x="130" y="559" on="0"/>
        <pt x="100" y="438" on="0"/>
        <pt x="100" y="367" on="1"/>
        <pt x="100" y="295" on="0"/>
        <pt x="130" y="174" on="0"/>
        <pt x="184" y="86" on="0"/>
        <pt x="258" y="37" on="0"/>
        <pt x="302" y="37" on="1"/>
        <pt x="338" y="37" on="0"/>
        <pt x="402" y="71" on="0"/>
        <pt x="426" y="102" on="1"/>
        <pt x="417" y="113" on="0"/>
        <pt x="407" y="124" on="1"/>
        <pt x="399" y="134" on="0"/>
        <pt x="376" y="158" on="0"/>
        <pt x="365" y="172" on="1"/>
        <pt x="338" y="203" on="0"/>
        <pt x="303" y="243" on="1"/>
        <pt x="338" y="278" on="1"/>
        <pt x="454" y="146" on="1"/>
        <pt x="477" y="189" on="0"/>
        <pt x="503" y="301" on="0"/>
      </contour>
    </TTGlyph>
    <TTGlyph name="R" xMin="69" yMin="0" xMax="449" yMax="739">
      <contour>
        <pt x="388" y="0" on="1"/>
        <pt x="234" y="303" on="1"/>
        <pt x="223" y="301" on="0"/>
        <pt x="198" y="299" on="0"/>
        <pt x="186" y="299" on="1"/>
        <pt x="171" y="299" on="0"/>
        <pt x="136" y="301" on="0"/>
        <pt x="122" y="303" on="1"/>
        <pt x="122" y="0" on="1"/>
        <pt x="69" y="0" on="1"/>
        <pt x="69" y="729" on="1"/>
        <pt x="98" y="734" on="0"/>
        <pt x="153" y="739" on="0"/>
        <pt x="183" y="739" on="1"/>
        <pt x="243" y="739" on="0"/>
        <pt x="332" y="705" on="0"/>
        <pt x="391" y="645" on="0"/>
        <pt x="420" y="566" on="0"/>
        <pt x="420" y="521" on="1"/>
        <pt x="420" y="445" on="0"/>
        <pt x="347" y="340" on="0"/>
        <pt x="284" y="317" on="1"/>
        <pt x="449" y="0" on="1"/>
      </contour>
      <contour>
        <pt x="365" y="519" on="1"/>
        <pt x="365" y="595" on="0"/>
        <pt x="274" y="691" on="0"/>
        <pt x="186" y="691" on="1"/>
        <pt x="169" y="691" on="0"/>
        <pt x="139" y="688" on="0"/>
        <pt x="122" y="686" on="1"/>
        <pt x="122" y="349" on="1"/>
        <pt x="136" y="347" on="0"/>
        <pt x="170" y="345" on="0"/>
        <pt x="187" y="345" on="1"/>
        <pt x="270" y="345" on="0"/>
        <pt x="365" y="435" on="0"/>
      </contour>
    </TTGlyph>
    <TTGlyph name="Racute" xMin="69" yMin="0" xMax="449" yMax="914">
      <component glyphName="acute" x="74" y="299" flags="0x4"/>
      <component glyphName="R" x="0" y="0" flags="0x4"/>
    </TTGlyph>
    <TTGlyph name="Rcaron" xMin="69" yMin="0" xMax="449" yMax="909">
      <component glyphName="caron" x="22" y="299" flags="0x4"/>
      <component glyphName="R" x="0" y="0" flags="0x4"/>
    </TTGlyph>
    <TTGlyph name="Rcommaaccent" xMin="69" yMin="-231" xMax="449" yMax="739">
      <component glyphName="commaaccent" x="155" y="8" flags="0x4"/>
      <component glyphName="R" x="0" y="0" flags="0x4"/>
    </TTGlyph>
    <TTGlyph name="S" xMin="19" yMin="-11" xMax="375" yMax="744">
      <contour>
        <pt x="375" y="175" on="1"/>
        <pt x="375" y="133" on="0"/>
        <pt x="347" y="65" on="0"/>
        <pt x="297" y="16" on="0"/>
        <pt x="231" y="-11" on="0"/>
        <pt x="193" y="-11" on="1"/>
        <pt x="144" y="-11" on="0"/>
        <pt x="58" y="24" on="0"/>
        <pt x="19" y="53" on="1"/>
        <pt x="45" y="98" on="1"/>
        <pt x="79" y="72" on="0"/>
        <pt x="155" y="38" on="0"/>
        <pt x="195" y="38" on="1"/>
        <pt x="252" y="38" on="0"/>
        <pt x="322" y="111" on="0"/>
        <pt x="322" y="171" on="1"/>
        <pt x="322" y="202" on="0"/>
        <pt x="303" y="252" on="0"/>
        <pt x="268" y="295" on="0"/>
        <pt x="220" y="336" on="0"/>
        <pt x="190" y="357" on="1"/>
        <pt x="159" y="378" on="0"/>
        <pt x="107" y="422" on="0"/>
        <pt x="68" y="472" on="0"/>
        <pt x="46" y="531" on="0"/>
        <pt x="46" y="567" on="1"/>
        <pt x="46" y="605" on="0"/>
        <pt x="72" y="670" on="0"/>
        <pt x="119" y="717" on="0"/>
        <pt x="183" y="744" on="0"/>
        <pt x="222" y="744" on="1"/>
        <pt x="268" y="744" on="0"/>
        <pt x="337" y="714" on="0"/>
        <pt x="366" y="691" on="1"/>
        <pt x="340" y="647" on="1"/>
        <pt x="315" y="667" on="0"/>
        <pt x="256" y="695" on="0"/>
        <pt x="219" y="695" on="1"/>
        <pt x="164" y="695" on="0"/>
        <pt x="99" y="624" on="0"/>
        <pt x="99" y="570" on="1"/>
        <pt x="99" y="541" on="0"/>
        <pt x="119" y="494" on="0"/>
        <pt x="153" y="452" on="0"/>
        <pt x="199" y="414" on="0"/>
        <pt x="225" y="395" on="1"/>
        <pt x="258" y="372" on="0"/>
        <pt x="313" y="327" on="0"/>
        <pt x="353" y="274" on="0"/>
        <pt x="375" y="213" on="0"/>
      </contour>
    </TTGlyph>
    <TTGlyph name="Sacute" xMin="19" yMin="-11" xMax="375" yMax="919">
      <component glyphName="acute" x="56" y="304" flags="0x4"/>
      <component glyphName="S" x="0" y="0" flags="0x4"/>
    </TTGlyph>
    <TTGlyph name="Scaron" xMin="19" yMin="-11" xMax="375" yMax="914">
      <component glyphName="caron" x="4" y="304" flags="0x4"/>
      <component glyphName="S" x="0" y="0" flags="0x4"/>
    </TTGlyph>
    <TTGlyph name="Scedilla" xMin="19" yMin="-201" xMax="375" yMax="744">
      <contour>
        <pt x="286" y="-127" on="1"/>
        <pt x="286" y="-156" on="0"/>
        <pt x="242" y="-201" on="0"/>
        <pt x="200" y="-201" on="1"/>
        <pt x="178" y="-201" on="0"/>
        <pt x="134" y="-186" on="0"/>
        <pt x="111" y="-173" on="1"/>
        <pt x="127" y="-140" on="1"/>
        <pt x="169" y="-165" on="0"/>
        <pt x="201" y="-165" on="1"/>
        <pt x="222" y="-165" on="0"/>
        <pt x="245" y="-145" on="0"/>
        <pt x="245" y="-129" on="1"/>
        <pt x="245" y="-110" on="0"/>
        <pt x="206" y="-81" on="0"/>
        <pt x="159" y="-76" on="1"/>
        <pt x="157" y="-71" on="1"/>
        <pt x="172" y="-10" on="1"/>
        <pt x="130" y="-6" on="0"/>
        <pt x="54" y="27" on="0"/>
        <pt x="19" y="53" on="1"/>
        <pt x="45" y="98" on="1"/>
        <pt x="79" y="72" on="0"/>
        <pt x="155" y="38" on="0"/>
        <pt x="195" y="38" on="1"/>
        <pt x="252" y="38" on="0"/>
        <pt x="322" y="111" on="0"/>
        <pt x="322" y="171" on="1"/>
        <pt x="322" y="202" on="0"/>
        <pt x="303" y="252" on="0"/>
        <pt x="268" y="295" on="0"/>
        <pt x="220" y="336" on="0"/>
        <pt x="190" y="357" on="1"/>
        <pt x="159" y="378" on="0"/>
        <pt x="107" y="422" on="0"/>
        <pt x="68" y="472" on="0"/>
        <pt x="46" y="531" on="0"/>
        <pt x="46" y="567" on="1"/>
        <pt x="46" y="605" on="0"/>
        <pt x="72" y="670" on="0"/>
        <pt x="119" y="717" on="0"/>
        <pt x="183" y="744" on="0"/>
        <pt x="222" y="744" on="1"/>
        <pt x="268" y="744" on="0"/>
        <pt x="337" y="714" on="0"/>
        <pt x="366" y="691" on="1"/>
        <pt x="340" y="647" on="1"/>
        <pt x="315" y="667" on="0"/>
        <pt x="256" y="695" on="0"/>
        <pt x="219" y="695" on="1"/>
        <pt x="164" y="695" on="0"/>
        <pt x="99" y="624" on="0"/>
        <pt x="99" y="570" on="1"/>
        <pt x="99" y="541" on="0"/>
        <pt x="119" y="494" on="0"/>
        <pt x="153" y="452" on="0"/>
        <pt x="199" y="414" on="0"/>
        <pt x="225" y="395" on="1"/>
        <pt x="258" y="372" on="0"/>
        <pt x="313" y="327" on="0"/>
        <pt x="353" y="274" on="0"/>
        <pt x="375" y="213" on="0"/>
        <pt x="375" y="175" on="1"/>
        <pt x="375" y="135" on="0"/>
        <pt x="349" y="69" on="0"/>
        <pt x="304" y="21" on="0"/>
        <pt x="242" y="-7" on="0"/>
        <pt x="207" y="-10" on="1"/>
        <pt x="198" y="-46" on="1"/>
        <pt x="246" y="-57" on="0"/>
        <pt x="286" y="-101" on="0"/>
      </contour>
    </TTGlyph>
    <TTGlyph name="Scommaaccent" xMin="19" yMin="-239" xMax="375" yMax="744">
      <component glyphName="commaaccent" x="129" y="0" flags="0x4"/>
      <component glyphName="S" x="0" y="0" flags="0x4"/>
    </TTGlyph>
    <TTGlyph name="T" xMin="21" yMin="0" xMax="424" yMax="733">
      <contour>
        <pt x="249" y="684" on="1"/>
        <pt x="249" y="0" on="1"/>
        <pt x="196" y="0" on="1"/>
        <pt x="196" y="684" on="1"/>
        <pt x="21" y="684" on="1"/>
        <pt x="21" y="733" on="1"/>
        <pt x="424" y="733" on="1"/>
        <pt x="424" y="684" on="1"/>
      </contour>
    </TTGlyph>
    <TTGlyph name="Tcaron" xMin="21" yMin="0" xMax="424" yMax="909">
      <component glyphName="caron" x="13" y="299" flags="0x4"/>
      <component glyphName="T" x="0" y="0" flags="0x4"/>
    </TTGlyph>
    <TTGlyph name="Tcommaaccent" xMin="21" yMin="-239" xMax="424" yMax="733">
      <component glyphName="commaaccent" x="145" y="0" flags="0x4"/>
      <component glyphName="T" x="0" y="0" flags="0x4"/>
    </TTGlyph>
    <TTGlyph name="Thorn" xMin="69" yMin="0" xMax="416" yMax="733">
      <contour>
        <pt x="416" y="384" on="1"/>
        <pt x="416" y="333" on="0"/>
        <pt x="385" y="245" on="0"/>
        <pt x="326" y="180" on="0"/>
        <pt x="240" y="142" on="0"/>
        <pt x="185" y="142" on="1"/>
        <pt x="169" y="142" on="0"/>
        <pt x="136" y="144" on="0"/>
        <pt x="122" y="146" on="1"/>
        <pt x="122" y="0" on="1"/>
        <pt x="69" y="0" on="1"/>
        <pt x="69" y="733" on="1"/>
        <pt x="122" y="733" on="1"/>
        <pt x="122" y="618" on="1"/>
        <pt x="150" y="621" on="0"/>
        <pt x="182" y="621" on="1"/>
        <pt x="242" y="621" on="0"/>
        <pt x="330" y="582" on="0"/>
        <pt x="388" y="517" on="0"/>
        <pt x="416" y="431" on="0"/>
      </contour>
      <contour>
        <pt x="361" y="382" on="1"/>
        <pt x="361" y="421" on="0"/>
        <pt x="339" y="490" on="0"/>
        <pt x="295" y="542" on="0"/>
        <pt x="229" y="572" on="0"/>
        <pt x="185" y="572" on="1"/>
        <pt x="167" y="572" on="0"/>
        <pt x="137" y="570" on="0"/>
        <pt x="122" y="568" on="1"/>
        <pt x="122" y="195" on="1"/>
        <pt x="136" y="193" on="0"/>
        <pt x="168" y="190" on="0"/>
        <pt x="185" y="190" on="1"/>
        <pt x="227" y="190" on="0"/>
        <pt x="292" y="218" on="0"/>
        <pt x="337" y="269" on="0"/>
        <pt x="361" y="340" on="0"/>
      </contour>
    </TTGlyph>
    <TTGlyph name="U" xMin="65" yMin="-9" xMax="474" yMax="733">
      <contour>
        <pt x="474" y="218" on="1"/>
        <pt x="474" y="162" on="0"/>
        <pt x="444" y="78" on="0"/>
        <pt x="390" y="20" on="0"/>
        <pt x="314" y="-9" on="0"/>
        <pt x="268" y="-9" on="1"/>
        <pt x="174" y="-9" on="0"/>
        <pt x="65" y="105" on="0"/>
        <pt x="65" y="218" on="1"/>
        <pt x="65" y="733" on="1"/>
        <pt x="118" y="733" on="1"/>
        <pt x="118" y="214" on="1"/>
        <pt x="118" y="124" on="0"/>
        <pt x="200" y="38" on="0"/>
        <pt x="269" y="38" on="1"/>
        <pt x="338" y="38" on="0"/>
        <pt x="421" y="125" on="0"/>
        <pt x="421" y="215" on="1"/>
        <pt x="421" y="733" on="1"/>
        <pt x="474" y="733" on="1"/>
      </contour>
    </TTGlyph>
    <TTGlyph name="Uacute" xMin="65" yMin="-9" xMax="474" yMax="908">
      <component glyphName="acute" x="113" y="293" flags="0x4"/>
      <component glyphName="U" x="0" y="0" flags="0x4"/>
    </TTGlyph>
    <TTGlyph name="Ubreve" xMin="65" yMin="-9" xMax="474" yMax="888">
      <component glyphName="U" x="0" y="0" flags="0x204"/>
      <component glyphName="breve" x="60" y="293" flags="0x4"/>
    </TTGlyph>
    <TTGlyph name="Ucircumflex" xMin="65" yMin="-9" xMax="474" yMax="906">
      <component glyphName="circumflex" x="58" y="293" flags="0x4"/>
      <component glyphName="U" x="0" y="0" flags="0x4"/>
    </TTGlyph>
    <TTGlyph name="Udieresis" xMin="65" yMin="-9" xMax="474" yMax="863">
      <component glyphName="dieresis" x="60" y="293" flags="0x4"/>
      <component glyphName="U" x="0" y="0" flags="0x4"/>
    </TTGlyph>
    <TTGlyph name="Ugrave" xMin="65" yMin="-9" xMax="474" yMax="908">
      <component glyphName="U" x="0" y="0" flags="0x204"/>
      <component glyphName="grave" x="2" y="293" flags="0x4"/>
    </TTGlyph>
    <TTGlyph name="Uhungarumlaut" xMin="65" yMin="-9" xMax="474" yMax="949">
      <component glyphName="U" x="0" y="0" flags="0x204"/>
      <component glyphName="hungarumlaut" x="93" y="293" flags="0x4"/>
    </TTGlyph>
    <TTGlyph name="Umacron" xMin="65" yMin="-9" xMax="474" yMax="840">
      <component glyphName="U" x="0" y="0" flags="0x204"/>
      <component glyphName="macron" x="60" y="293" flags="0x4"/>
    </TTGlyph>
    <TTGlyph name="Uogonek" xMin="65" yMin="-202" xMax="474" yMax="733">
      <contour>
        <pt x="474" y="218" on="1"/>
        <pt x="474" y="116" on="0"/>
        <pt x="379" y="3" on="0"/>
        <pt x="301" y="-7" on="1"/>
        <pt x="243" y="-78" on="0"/>
        <pt x="243" y="-124" on="1"/>
        <pt x="243" y="-143" on="0"/>
        <pt x="261" y="-163" on="0"/>
        <pt x="275" y="-163" on="1"/>
        <pt x="297" y="-163" on="0"/>
        <pt x="315" y="-142" on="1"/>
        <pt x="335" y="-166" on="1"/>
        <pt x="322" y="-182" on="0"/>
        <pt x="290" y="-201" on="0"/>
        <pt x="267" y="-202" on="1"/>
        <pt x="237" y="-202" on="0"/>
        <pt x="200" y="-163" on="0"/>
        <pt x="200" y="-131" on="1"/>
        <pt x="201" y="-104" on="0"/>
        <pt x="227" y="-47" on="0"/>
        <pt x="259" y="-9" on="1"/>
        <pt x="168" y="-6" on="0"/>
        <pt x="65" y="107" on="0"/>
        <pt x="65" y="218" on="1"/>
        <pt x="65" y="733" on="1"/>
        <pt x="118" y="733" on="1"/>
        <pt x="118" y="214" on="1"/>
        <pt x="118" y="124" on="0"/>
        <pt x="200" y="38" on="0"/>
        <pt x="269" y="38" on="1"/>
        <pt x="338" y="38" on="0"/>
        <pt x="421" y="125" on="0"/>
        <pt x="421" y="215" on="1"/>
        <pt x="421" y="733" on="1"/>
        <pt x="474" y="733" on="1"/>
      </contour>
    </TTGlyph>
    <TTGlyph name="Uring" xMin="65" yMin="-9" xMax="474" yMax="954">
      <component glyphName="ring" x="60" y="293" flags="0x4"/>
      <component glyphName="U" x="0" y="0" flags="0x4"/>
    </TTGlyph>
    <TTGlyph name="V" xMin="19" yMin="-10" xMax="495" yMax="733">
      <contour>
        <pt x="19" y="733" on="1"/>
        <pt x="75" y="733" on="1"/>
        <pt x="259" y="120" on="1"/>
        <pt x="440" y="733" on="1"/>
        <pt x="495" y="733" on="1"/>
        <pt x="266" y="-10" on="1"/>
        <pt x="249" y="-10" on="1"/>
      </contour>
    </TTGlyph>
    <TTGlyph name="W" xMin="25" yMin="-8" xMax="699" yMax="735">
      <contour>
        <pt x="552" y="-7" on="1"/>
        <pt x="532" y="-8" on="1"/>
        <pt x="362" y="596" on="1"/>
        <pt x="192" y="-8" on="1"/>
        <pt x="172" y="-7" on="1"/>
        <pt x="25" y="733" on="1"/>
        <pt x="78" y="733" on="1"/>
        <pt x="190" y="148" on="1"/>
        <pt x="354" y="735" on="1"/>
        <pt x="372" y="735" on="1"/>
        <pt x="535" y="148" on="1"/>
        <pt x="646" y="733" on="1"/>
        <pt x="699" y="733" on="1"/>
      </contour>
    </TTGlyph>
    <TTGlyph name="Wacute" xMin="25" yMin="-8" xMax="699" yMax="914">
      <component glyphName="acute" x="206" y="299" flags="0x4"/>
      <component glyphName="W" x="0" y="0" flags="0x4"/>
    </TTGlyph>
    <TTGlyph name="Wcircumflex" xMin="25" yMin="-8" xMax="699" yMax="912">
      <component glyphName="circumflex" x="151" y="299" flags="0x4"/>
      <component glyphName="W" x="0" y="0" flags="0x4"/>
    </TTGlyph>
    <TTGlyph name="Wdieresis" xMin="25" yMin="-8" xMax="699" yMax="869">
      <component glyphName="dieresis" x="153" y="299" flags="0x4"/>
      <component glyphName="W" x="0" y="0" flags="0x4"/>
    </TTGlyph>
    <TTGlyph name="Wgrave" xMin="25" yMin="-8" xMax="699" yMax="914">
      <component glyphName="W" x="0" y="0" flags="0x204"/>
      <component glyphName="grave" x="95" y="299" flags="0x4"/>
    </TTGlyph>
    <TTGlyph name="X" xMin="21" yMin="0" xMax="471" yMax="733">
      <contour>
        <pt x="218" y="372" on="1"/>
        <pt x="27" y="733" on="1"/>
        <pt x="85" y="733" on="1"/>
        <pt x="247" y="420" on="1"/>
        <pt x="408" y="733" on="1"/>
        <pt x="465" y="733" on="1"/>
        <pt x="275" y="373" on="1"/>
        <pt x="471" y="0" on="1"/>
        <pt x="412" y="0" on="1"/>
        <pt x="246" y="324" on="1"/>
        <pt x="78" y="0" on="1"/>
        <pt x="21" y="0" on="1"/>
      </contour>
    </TTGlyph>
    <TTGlyph name="Y" xMin="14" yMin="0" xMax="453" yMax="733">
      <contour>
        <pt x="207" y="311" on="1"/>
        <pt x="14" y="733" on="1"/>
        <pt x="72" y="733" on="1"/>
        <pt x="234" y="368" on="1"/>
        <pt x="396" y="733" on="1"/>
        <pt x="453" y="733" on="1"/>
        <pt x="260" y="311" on="1"/>
        <pt x="260" y="0" on="1"/>
        <pt x="207" y="0" on="1"/>
      </contour>
    </TTGlyph>
    <TTGlyph name="Yacute" xMin="14" yMin="0" xMax="453" yMax="908">
      <component glyphName="Y" x="0" y="0" flags="0x204"/>
      <component glyphName="acute" x="77" y="293" flags="0x4"/>
    </TTGlyph>
    <TTGlyph name="Ycircumflex" xMin="14" yMin="0" xMax="453" yMax="906">
      <component glyphName="Y" x="0" y="0" flags="0x204"/>
      <component glyphName="circumflex" x="22" y="293" flags="0x4"/>
    </TTGlyph>
    <TTGlyph name="Ydieresis" xMin="14" yMin="0" xMax="453" yMax="863">
      <component glyphName="Y" x="0" y="0" flags="0x204"/>
      <component glyphName="dieresis" x="24" y="293" flags="0x4"/>
    </TTGlyph>
    <TTGlyph name="Ygrave" xMin="14" yMin="0" xMax="453" yMax="908">
      <component glyphName="Y" x="0" y="0" flags="0x204"/>
      <component glyphName="grave" x="-32" y="293" flags="0x4"/>
    </TTGlyph>
    <TTGlyph name="Z" xMin="28" yMin="0" xMax="431" yMax="733">
      <contour>
        <pt x="103" y="49" on="1"/>
        <pt x="427" y="49" on="1"/>
        <pt x="427" y="0" on="1"/>
        <pt x="31" y="0" on="1"/>
        <pt x="28" y="9" on="1"/>
        <pt x="356" y="684" on="1"/>
        <pt x="48" y="684" on="1"/>
        <pt x="48" y="733" on="1"/>
        <pt x="428" y="733" on="1"/>
        <pt x="431" y="724" on="1"/>
      </contour>
    </TTGlyph>
    <TTGlyph name="Zacute" xMin="28" yMin="0" xMax="431" yMax="914">
      <component glyphName="acute" x="78" y="299" flags="0x4"/>
      <component glyphName="Z" x="0" y="0" flags="0x4"/>
    </TTGlyph>
    <TTGlyph name="Zcaron" xMin="28" yMin="0" xMax="431" yMax="909">
      <component glyphName="caron" x="26" y="299" flags="0x4"/>
      <component glyphName="Z" x="0" y="0" flags="0x4"/>
    </TTGlyph>
    <TTGlyph name="Zdotaccent" xMin="28" yMin="0" xMax="431" yMax="869">
      <component glyphName="Z" x="0" y="0" flags="0x204"/>
      <component glyphName="dotaccent" x="25" y="299" flags="0x4"/>
    </TTGlyph>
    <TTGlyph name="a" xMin="28" yMin="-9" xMax="307" yMax="442">
      <contour>
        <pt x="258" y="0" on="1"/>
        <pt x="258" y="46" on="1"/>
        <pt x="239" y="22" on="0"/>
        <pt x="186" y="-9" on="0"/>
        <pt x="153" y="-9" on="1"/>
        <pt x="127" y="-9" on="0"/>
        <pt x="82" y="9" on="0"/>
        <pt x="48" y="44" on="0"/>
        <pt x="28" y="95" on="0"/>
        <pt x="28" y="128" on="1"/>
        <pt x="28" y="191" on="0"/>
        <pt x="102" y="267" on="0"/>
        <pt x="158" y="267" on="1"/>
        <pt x="188" y="267" on="0"/>
        <pt x="236" y="249" on="0"/>
        <pt x="256" y="235" on="1"/>
        <pt x="256" y="302" on="1"/>
        <pt x="256" y="350" on="0"/>
        <pt x="210" y="395" on="0"/>
        <pt x="165" y="395" on="1"/>
        <pt x="142" y="395" on="0"/>
        <pt x="96" y="384" on="0"/>
        <pt x="74" y="374" on="1"/>
        <pt x="63" y="419" on="1"/>
        <pt x="89" y="430" on="0"/>
        <pt x="144" y="442" on="0"/>
        <pt x="173" y="442" on="1"/>
        <pt x="239" y="442" on="0"/>
        <pt x="307" y="375" on="0"/>
        <pt x="307" y="301" on="1"/>
        <pt x="307" y="0" on="1"/>
      </contour>
      <contour>
        <pt x="256" y="194" on="1"/>
        <pt x="235" y="208" on="0"/>
        <pt x="193" y="226" on="0"/>
        <pt x="167" y="226" on="1"/>
        <pt x="129" y="226" on="0"/>
        <pt x="79" y="176" on="0"/>
        <pt x="79" y="130" on="1"/>
        <pt x="79" y="84" on="0"/>
        <pt x="127" y="34" on="0"/>
        <pt x="166" y="34" on="1"/>
        <pt x="195" y="34" on="0"/>
        <pt x="239" y="65" on="0"/>
        <pt x="256" y="89" on="1"/>
      </contour>
    </TTGlyph>
    <TTGlyph name="aacute" xMin="28" yMin="-9" xMax="314" yMax="615">
      <component glyphName="a" x="0" y="0" flags="0x204"/>
      <component glyphName="acute" x="23" y="0" flags="0x4"/>
    </TTGlyph>
    <TTGlyph name="abreve" xMin="28" yMin="-9" xMax="307" yMax="595">
      <component glyphName="a" x="0" y="0" flags="0x204"/>
      <component glyphName="breve" x="-28" y="0" flags="0x4"/>
    </TTGlyph>
    <TTGlyph name="acircumflex" xMin="28" yMin="-9" xMax="307" yMax="613">
      <component glyphName="a" x="0" y="0" flags="0x204"/>
      <component glyphName="circumflex" x="-30" y="0" flags="0x4"/>
    </TTGlyph>
    <TTGlyph name="acute" xMin="117" yMin="481" xMax="291" yMax="615">
      <contour>
        <pt x="135" y="481" on="1"/>
        <pt x="117" y="508" on="1"/>
        <pt x="263" y="615" on="1"/>
        <pt x="291" y="567" on="1"/>
      </contour>
    </TTGlyph>
    <TTGlyph name="adieresis" xMin="28" yMin="-9" xMax="307" yMax="570">
      <component glyphName="a" x="0" y="0" flags="0x204"/>
      <component glyphName="dieresis" x="-28" y="0" flags="0x4"/>
    </TTGlyph>
    <TTGlyph name="ae" xMin="29" yMin="-9" xMax="558" yMax="442">
      <contour>
        <pt x="257" y="302" on="1"/>
        <pt x="257" y="350" on="0"/>
        <pt x="212" y="395" on="0"/>
        <pt x="166" y="395" on="1"/>
        <pt x="143" y="395" on="0"/>
        <pt x="97" y="384" on="0"/>
        <pt x="75" y="374" on="1"/>
        <pt x="64" y="419" on="1"/>
        <pt x="90" y="430" on="0"/>
        <pt x="145" y="442" on="0"/>
        <pt x="174" y="442" on="1"/>
        <pt x="223" y="442" on="0"/>
        <pt x="282" y="404" on="0"/>
        <pt x="293" y="362" on="1"/>
        <pt x="312" y="400" on="0"/>
        <pt x="373" y="442" on="0"/>
        <pt x="415" y="442" on="1"/>
        <pt x="449" y="442" on="0"/>
        <pt x="503" y="411" on="0"/>
        <pt x="539" y="355" on="0"/>
        <pt x="558" y="279" on="0"/>
        <pt x="558" y="234" on="1"/>
        <pt x="558" y="225" on="0"/>
        <pt x="558" y="209" on="0"/>
        <pt x="557" y="201" on="1"/>
        <pt x="307" y="201" on="1"/>
        <pt x="308" y="128" on="0"/>
        <pt x="372" y="36" on="0"/>
        <pt x="437" y="36" on="1"/>
        <pt x="460" y="36" on="0"/>
        <pt x="506" y="50" on="0"/>
        <pt x="529" y="62" on="1"/>
        <pt x="544" y="20" on="1"/>
        <pt x="518" y="7" on="0"/>
        <pt x="461" y="-9" on="0"/>
        <pt x="432" y="-9" on="1"/>
        <pt x="376" y="-9" on="0"/>
        <pt x="302" y="45" on="0"/>
        <pt x="284" y="95" on="1"/>
        <pt x="267" y="41" on="0"/>
        <pt x="199" y="-9" on="0"/>
        <pt x="154" y="-9" on="1"/>
        <pt x="128" y="-9" on="0"/>
        <pt x="83" y="9" on="0"/>
        <pt x="49" y="44" on="0"/>
        <pt x="29" y="95" on="0"/>
        <pt x="29" y="128" on="1"/>
        <pt x="29" y="191" on="0"/>
        <pt x="103" y="267" on="0"/>
        <pt x="159" y="267" on="1"/>
        <pt x="189" y="267" on="0"/>
        <pt x="239" y="246" on="0"/>
        <pt x="257" y="231" on="1"/>
      </contour>
      <contour>
        <pt x="258" y="187" on="1"/>
        <pt x="241" y="204" on="0"/>
        <pt x="195" y="226" on="0"/>
        <pt x="167" y="226" on="1"/>
        <pt x="129" y="226" on="0"/>
        <pt x="80" y="176" on="0"/>
        <pt x="80" y="130" on="1"/>
        <pt x="80" y="84" on="0"/>
        <pt x="126" y="34" on="0"/>
        <pt x="162" y="34" on="1"/>
        <pt x="202" y="34" on="0"/>
        <pt x="253" y="111" on="0"/>
      </contour>
      <contour>
        <pt x="509" y="242" on="1"/>
        <pt x="508" y="275" on="0"/>
        <pt x="495" y="331" on="0"/>
        <pt x="471" y="373" on="0"/>
        <pt x="436" y="397" on="0"/>
        <pt x="413" y="397" on="1"/>
        <pt x="368" y="397" on="0"/>
        <pt x="313" y="314" on="0"/>
        <pt x="309" y="242" on="1"/>
      </contour>
    </TTGlyph>
    <TTGlyph name="aeacute" xMin="29" yMin="-9" xMax="558" yMax="615">
      <component glyphName="acute" x="145" y="0" flags="0x4"/>
      <component glyphName="ae" x="0" y="0" flags="0x4"/>
    </TTGlyph>
    <TTGlyph name="agrave" xMin="28" yMin="-9" xMax="307" yMax="615">
      <component glyphName="a" x="0" y="0" flags="0x204"/>
      <component glyphName="grave" x="-86" y="0" flags="0x4"/>
    </TTGlyph>
    <TTGlyph name="amacron" xMin="28" yMin="-9" xMax="307" yMax="547">
      <component glyphName="a" x="0" y="0" flags="0x204"/>
      <component glyphName="macron" x="-28" y="0" flags="0x4"/>
    </TTGlyph>
    <TTGlyph name="ampersand" xMin="35" yMin="-14" xMax="466" yMax="672">
      <contour>
        <pt x="466" y="293" on="1"/>
        <pt x="445" y="245" on="0"/>
        <pt x="399" y="156" on="0"/>
        <pt x="374" y="120" on="1"/>
        <pt x="398" y="91" on="0"/>
        <pt x="442" y="41" on="0"/>
        <pt x="463" y="18" on="1"/>
        <pt x="426" y="-14" on="1"/>
        <pt x="406" y="7" on="0"/>
        <pt x="366" y="53" on="0"/>
        <pt x="344" y="79" on="1"/>
        <pt x="312" y="38" on="0"/>
        <pt x="235" y="-9" on="0"/>
        <pt x="190" y="-9" on="1"/>
        <pt x="122" y="-9" on="0"/>
        <pt x="35" y="81" on="0"/>
        <pt x="35" y="159" on="1"/>
        <pt x="35" y="222" on="0"/>
        <pt x="100" y="322" on="0"/>
        <pt x="156" y="358" on="1"/>
        <pt x="136" y="399" on="0"/>
        <pt x="111" y="478" on="0"/>
        <pt x="111" y="516" on="1"/>
        <pt x="111" y="547" on="0"/>
        <pt x="129" y="603" on="0"/>
        <pt x="162" y="646" on="0"/>
        <pt x="208" y="672" on="0"/>
        <pt x="236" y="672" on="1"/>
        <pt x="264" y="672" on="0"/>
        <pt x="307" y="650" on="0"/>
        <pt x="336" y="613" on="0"/>
        <pt x="351" y="566" on="0"/>
        <pt x="351" y="542" on="1"/>
        <pt x="351" y="479" on="0"/>
        <pt x="283" y="383" on="0"/>
        <pt x="220" y="342" on="1"/>
        <pt x="243" y="298" on="0"/>
        <pt x="308" y="203" on="0"/>
        <pt x="343" y="158" on="1"/>
        <pt x="388" y="227" on="0"/>
        <pt x="427" y="317" on="1"/>
      </contour>
      <contour>
        <pt x="302" y="540" on="1"/>
        <pt x="302" y="578" on="0"/>
        <pt x="267" y="627" on="0"/>
        <pt x="236" y="627" on="1"/>
        <pt x="219" y="627" on="0"/>
        <pt x="192" y="609" on="0"/>
        <pt x="172" y="579" on="0"/>
        <pt x="161" y="539" on="0"/>
        <pt x="161" y="518" on="1"/>
        <pt x="161" y="485" on="0"/>
        <pt x="182" y="416" on="0"/>
        <pt x="199" y="380" on="1"/>
        <pt x="254" y="418" on="0"/>
        <pt x="302" y="491" on="0"/>
      </contour>
      <contour>
        <pt x="314" y="115" on="1"/>
        <pt x="275" y="165" on="0"/>
        <pt x="203" y="270" on="0"/>
        <pt x="177" y="318" on="1"/>
        <pt x="135" y="290" on="0"/>
        <pt x="85" y="208" on="0"/>
        <pt x="85" y="160" on="1"/>
        <pt x="85" y="134" on="0"/>
        <pt x="100" y="88" on="0"/>
        <pt x="129" y="55" on="0"/>
        <pt x="168" y="36" on="0"/>
        <pt x="192" y="36" on="1"/>
        <pt x="226" y="36" on="0"/>
        <pt x="287" y="79" on="0"/>
      </contour>
    </TTGlyph>
    <TTGlyph name="ampersand.cap" xMin="38" yMin="-15" xMax="527" yMax="740">
      <contour>
        <pt x="217" y="415" on="1"/>
        <pt x="247" y="434" on="0"/>
        <pt x="294" y="473" on="0"/>
        <pt x="326" y="516" on="0"/>
        <pt x="343" y="565" on="0"/>
        <pt x="343" y="594" on="1"/>
        <pt x="343" y="638" on="0"/>
        <pt x="301" y="694" on="0"/>
        <pt x="264" y="694" on="1"/>
        <pt x="244" y="694" on="0"/>
        <pt x="211" y="674" on="0"/>
        <pt x="188" y="639" on="0"/>
        <pt x="175" y="594" on="0"/>
        <pt x="175" y="570" on="1"/>
        <pt x="175" y="532" on="0"/>
        <pt x="197" y="455" on="0"/>
      </contour>
      <contour>
        <pt x="355" y="125" on="1"/>
        <pt x="309" y="179" on="0"/>
        <pt x="227" y="294" on="0"/>
        <pt x="195" y="351" on="1"/>
        <pt x="148" y="321" on="0"/>
        <pt x="91" y="232" on="0"/>
        <pt x="91" y="177" on="1"/>
        <pt x="91" y="148" on="0"/>
        <pt x="109" y="96" on="0"/>
        <pt x="141" y="58" on="0"/>
        <pt x="187" y="36" on="0"/>
        <pt x="216" y="36" on="1"/>
        <pt x="254" y="36" on="0"/>
        <pt x="323" y="84" on="0"/>
      </contour>
      <contour>
        <pt x="239" y="375" on="1"/>
        <pt x="267" y="324" on="0"/>
        <pt x="343" y="218" on="0"/>
        <pt x="385" y="167" on="1"/>
        <pt x="412" y="207" on="0"/>
        <pt x="462" y="297" on="0"/>
        <pt x="486" y="347" on="1"/>
        <pt x="527" y="324" on="1"/>
        <pt x="502" y="270" on="0"/>
        <pt x="447" y="171" on="0"/>
        <pt x="417" y="129" on="1"/>
        <pt x="446" y="97" on="0"/>
        <pt x="496" y="42" on="0"/>
        <pt x="520" y="17" on="1"/>
        <pt x="483" y="-15" on="1"/>
        <pt x="460" y="8" on="0"/>
        <pt x="413" y="59" on="0"/>
        <pt x="387" y="88" on="1"/>
        <pt x="349" y="43" on="0"/>
        <pt x="264" y="-10" on="0"/>
        <pt x="214" y="-10" on="1"/>
        <pt x="176" y="-10" on="0"/>
        <pt x="112" y="16" on="0"/>
        <pt x="65" y="65" on="0"/>
        <pt x="38" y="134" on="0"/>
        <pt x="38" y="176" on="1"/>
        <pt x="38" y="245" on="0"/>
        <pt x="113" y="355" on="0"/>
        <pt x="173" y="392" on="1"/>
        <pt x="151" y="437" on="0"/>
        <pt x="125" y="525" on="0"/>
        <pt x="125" y="568" on="1"/>
        <pt x="125" y="602" on="0"/>
        <pt x="145" y="665" on="0"/>
        <pt x="182" y="712" on="0"/>
        <pt x="233" y="740" on="0"/>
        <pt x="264" y="740" on="1"/>
        <pt x="295" y="740" on="0"/>
        <pt x="344" y="715" on="0"/>
        <pt x="376" y="675" on="0"/>
        <pt x="393" y="623" on="0"/>
        <pt x="393" y="596" on="1"/>
        <pt x="393" y="559" on="0"/>
        <pt x="371" y="497" on="0"/>
        <pt x="331" y="443" on="0"/>
        <pt x="274" y="396" on="0"/>
      </contour>
    </TTGlyph>
    <TTGlyph name="aogonek" xMin="28" yMin="-202" xMax="322" yMax="442">
      <contour>
        <pt x="322" y="-166" on="1"/>
        <pt x="309" y="-182" on="0"/>
        <pt x="277" y="-201" on="0"/>
        <pt x="254" y="-202" on="1"/>
        <pt x="224" y="-202" on="0"/>
        <pt x="187" y="-163" on="0"/>
        <pt x="187" y="-131" on="1"/>
        <pt x="188" y="-102" on="0"/>
        <pt x="219" y="-40" on="0"/>
        <pt x="258" y="5" on="1"/>
        <pt x="258" y="46" on="1"/>
        <pt x="239" y="22" on="0"/>
        <pt x="186" y="-9" on="0"/>
        <pt x="153" y="-9" on="1"/>
        <pt x="127" y="-9" on="0"/>
        <pt x="82" y="9" on="0"/>
        <pt x="48" y="44" on="0"/>
        <pt x="28" y="95" on="0"/>
        <pt x="28" y="128" on="1"/>
        <pt x="28" y="191" on="0"/>
        <pt x="102" y="267" on="0"/>
        <pt x="158" y="267" on="1"/>
        <pt x="188" y="267" on="0"/>
        <pt x="236" y="249" on="0"/>
        <pt x="256" y="235" on="1"/>
        <pt x="256" y="302" on="1"/>
        <pt x="256" y="350" on="0"/>
        <pt x="210" y="395" on="0"/>
        <pt x="165" y="395" on="1"/>
        <pt x="142" y="395" on="0"/>
        <pt x="96" y="384" on="0"/>
        <pt x="74" y="374" on="1"/>
        <pt x="63" y="419" on="1"/>
        <pt x="89" y="430" on="0"/>
        <pt x="144" y="442" on="0"/>
        <pt x="173" y="442" on="1"/>
        <pt x="239" y="442" on="0"/>
        <pt x="307" y="375" on="0"/>
        <pt x="307" y="301" on="1"/>
        <pt x="307" y="0" on="1"/>
        <pt x="293" y="0" on="1"/>
        <pt x="230" y="-76" on="0"/>
        <pt x="230" y="-124" on="1"/>
        <pt x="230" y="-143" on="0"/>
        <pt x="248" y="-163" on="0"/>
        <pt x="262" y="-163" on="1"/>
        <pt x="284" y="-163" on="0"/>
        <pt x="302" y="-142" on="1"/>
      </contour>
      <contour>
        <pt x="256" y="194" on="1"/>
        <pt x="235" y="208" on="0"/>
        <pt x="193" y="226" on="0"/>
        <pt x="167" y="226" on="1"/>
        <pt x="129" y="226" on="0"/>
        <pt x="79" y="176" on="0"/>
        <pt x="79" y="130" on="1"/>
        <pt x="79" y="84" on="0"/>
        <pt x="127" y="34" on="0"/>
        <pt x="166" y="34" on="1"/>
        <pt x="195" y="34" on="0"/>
        <pt x="239" y="65" on="0"/>
        <pt x="256" y="89" on="1"/>
      </contour>
    </TTGlyph>
    <TTGlyph name="aring" xMin="28" yMin="-9" xMax="307" yMax="661">
      <component glyphName="a" x="0" y="0" flags="0x204"/>
      <component glyphName="ring" x="-28" y="0" flags="0x4"/>
    </TTGlyph>
    <TTGlyph name="aringacute" xMin="28" yMin="-9" xMax="313" yMax="831">
      <component glyphName="a" x="0" y="0" flags="0x204"/>
      <component glyphName="acute" x="22" y="216" flags="0x4"/>
      <component glyphName="ring" x="-29" y="0" flags="0x4"/>
    </TTGlyph>
    <TTGlyph name="arrowleft" xMin="23" yMin="50" xMax="509" yMax="484">
      <contour>
        <pt x="105" y="243" on="1"/>
        <pt x="262" y="82" on="1"/>
        <pt x="228" y="50" on="1"/>
        <pt x="23" y="262" on="1"/>
        <pt x="23" y="271" on="1"/>
        <pt x="228" y="484" on="1"/>
        <pt x="262" y="451" on="1"/>
        <pt x="105" y="290" on="1"/>
        <pt x="509" y="290" on="1"/>
        <pt x="509" y="243" on="1"/>
      </contour>
    </TTGlyph>
    <TTGlyph name="arrowleft.cap" xMin="23" yMin="154" xMax="509" yMax="588">
      <component glyphName="arrowleft" x="0" y="104" flags="0x204"/>
    </TTGlyph>
    <TTGlyph name="arrowright" xMin="37" yMin="50" xMax="524" yMax="484">
      <contour>
        <pt x="442" y="290" on="1"/>
        <pt x="285" y="451" on="1"/>
        <pt x="319" y="484" on="1"/>
        <pt x="524" y="271" on="1"/>
        <pt x="524" y="262" on="1"/>
        <pt x="319" y="50" on="1"/>
        <pt x="285" y="82" on="1"/>
        <pt x="442" y="243" on="1"/>
        <pt x="37" y="243" on="1"/>
        <pt x="37" y="290" on="1"/>
      </contour>
    </TTGlyph>
    <TTGlyph name="arrowright.cap" xMin="37" yMin="154" xMax="524" yMax="588">
      <component glyphName="arrowright" x="0" y="104" flags="0x204"/>
    </TTGlyph>
    <TTGlyph name="asciicircum" xMin="95" yMin="539" xMax="325" yMax="662">
      <contour>
        <pt x="272" y="539" on="1"/>
        <pt x="208" y="614" on="1"/>
        <pt x="146" y="539" on="1"/>
        <pt x="95" y="539" on="1"/>
        <pt x="201" y="662" on="1"/>
        <pt x="221" y="662" on="1"/>
        <pt x="325" y="539" on="1"/>
      </contour>
    </TTGlyph>
    <TTGlyph name="asciitilde" xMin="85" yMin="249" xMax="331" yMax="327">
      <contour>
        <pt x="331" y="293" on="1"/>
        <pt x="314" y="271" on="0"/>
        <pt x="274" y="249" on="0"/>
        <pt x="254" y="249" on="1"/>
        <pt x="240" y="249" on="0"/>
        <pt x="215" y="259" on="0"/>
        <pt x="203" y="267" on="1"/>
        <pt x="191" y="275" on="0"/>
        <pt x="170" y="284" on="0"/>
        <pt x="160" y="285" on="1"/>
        <pt x="136" y="285" on="0"/>
        <pt x="109" y="252" on="1"/>
        <pt x="85" y="283" on="1"/>
        <pt x="102" y="305" on="0"/>
        <pt x="142" y="327" on="0"/>
        <pt x="162" y="327" on="1"/>
        <pt x="175" y="327" on="0"/>
        <pt x="201" y="317" on="0"/>
        <pt x="212" y="309" on="1"/>
        <pt x="225" y="301" on="0"/>
        <pt x="245" y="292" on="0"/>
        <pt x="255" y="291" on="1"/>
        <pt x="280" y="291" on="0"/>
        <pt x="307" y="324" on="1"/>
      </contour>
    </TTGlyph>
    <TTGlyph name="asterisk" xMin="19" yMin="510" xMax="255" yMax="734">
      <contour>
        <pt x="163" y="607" on="1"/>
        <pt x="222" y="531" on="1"/>
        <pt x="191" y="510" on="1"/>
        <pt x="137" y="588" on="1"/>
        <pt x="83" y="510" on="1"/>
        <pt x="52" y="531" on="1"/>
        <pt x="111" y="607" on="1"/>
        <pt x="19" y="635" on="1"/>
        <pt x="31" y="670" on="1"/>
        <pt x="121" y="638" on="1"/>
        <pt x="118" y="734" on="1"/>
        <pt x="157" y="734" on="1"/>
        <pt x="153" y="638" on="1"/>
        <pt x="243" y="670" on="1"/>
        <pt x="255" y="635" on="1"/>
      </contour>
    </TTGlyph>
    <TTGlyph name="at" xMin="43" yMin="-10" xMax="536" yMax="608">
      <contour>
        <pt x="536" y="326" on="1"/>
        <pt x="536" y="217" on="0"/>
        <pt x="489" y="170" on="1"/>
        <pt x="465" y="144" on="0"/>
        <pt x="431" y="144" on="1"/>
        <pt x="405" y="144" on="0"/>
        <pt x="368" y="173" on="0"/>
        <pt x="359" y="199" on="1"/>
        <pt x="325" y="148" on="0"/>
        <pt x="275" y="148" on="1"/>
        <pt x="240" y="148" on="0"/>
        <pt x="192" y="195" on="0"/>
        <pt x="192" y="237" on="1"/>
        <pt x="192" y="275" on="0"/>
        <pt x="240" y="326" on="0"/>
        <pt x="279" y="326" on="1"/>
        <pt x="299" y="326" on="0"/>
        <pt x="333" y="313" on="0"/>
        <pt x="345" y="303" on="1"/>
        <pt x="345" y="334" on="1"/>
        <pt x="345" y="367" on="0"/>
        <pt x="315" y="395" on="0"/>
        <pt x="286" y="395" on="1"/>
        <pt x="255" y="395" on="0"/>
        <pt x="224" y="381" on="1"/>
        <pt x="215" y="417" on="1"/>
        <pt x="232" y="424" on="0"/>
        <pt x="271" y="434" on="0"/>
        <pt x="292" y="434" on="1"/>
        <pt x="338" y="434" on="0"/>
        <pt x="388" y="387" on="0"/>
        <pt x="388" y="333" on="1"/>
        <pt x="388" y="248" on="1"/>
        <pt x="388" y="209" on="0"/>
        <pt x="415" y="180" on="0"/>
        <pt x="432" y="180" on="1"/>
        <pt x="452" y="180" on="0"/>
        <pt x="466" y="195" on="1"/>
        <pt x="482" y="212" on="0"/>
        <pt x="497" y="277" on="0"/>
        <pt x="497" y="322" on="1"/>
        <pt x="497" y="368" on="0"/>
        <pt x="472" y="457" on="0"/>
        <pt x="423" y="528" on="0"/>
        <pt x="347" y="571" on="0"/>
        <pt x="296" y="571" on="1"/>
        <pt x="250" y="571" on="0"/>
        <pt x="172" y="527" on="0"/>
        <pt x="115" y="452" on="0"/>
        <pt x="83" y="350" on="0"/>
        <pt x="83" y="293" on="1"/>
        <pt x="83" y="236" on="0"/>
        <pt x="113" y="138" on="0"/>
        <pt x="171" y="67" on="0"/>
        <pt x="256" y="27" on="0"/>
        <pt x="312" y="27" on="1"/>
        <pt x="338" y="27" on="0"/>
        <pt x="392" y="41" on="0"/>
        <pt x="417" y="52" on="1"/>
        <pt x="428" y="16" on="1"/>
        <pt x="399" y="5" on="0"/>
        <pt x="339" y="-10" on="0"/>
        <pt x="310" y="-10" on="1"/>
        <pt x="247" y="-10" on="0"/>
        <pt x="148" y="35" on="0"/>
        <pt x="79" y="116" on="0"/>
        <pt x="43" y="227" on="0"/>
        <pt x="43" y="293" on="1"/>
        <pt x="43" y="359" on="0"/>
        <pt x="82" y="474" on="0"/>
        <pt x="150" y="559" on="0"/>
        <pt x="243" y="608" on="0"/>
        <pt x="297" y="608" on="1"/>
        <pt x="355" y="608" on="0"/>
        <pt x="444" y="561" on="0"/>
        <pt x="505" y="483" on="0"/>
        <pt x="536" y="381" on="0"/>
      </contour>
      <contour>
        <pt x="345" y="270" on="1"/>
        <pt x="333" y="280" on="0"/>
        <pt x="303" y="293" on="0"/>
        <pt x="286" y="293" on="1"/>
        <pt x="263" y="293" on="0"/>
        <pt x="234" y="263" on="0"/>
        <pt x="234" y="238" on="1"/>
        <pt x="234" y="213" on="0"/>
        <pt x="261" y="183" on="0"/>
        <pt x="283" y="183" on="1"/>
        <pt x="303" y="183" on="0"/>
        <pt x="334" y="206" on="0"/>
        <pt x="345" y="223" on="1"/>
      </contour>
    </TTGlyph>
    <TTGlyph name="at.cap" xMin="50" yMin="-10" xMax="608" yMax="743">
      <contour>
        <pt x="608" y="400" on="1"/>
        <pt x="608" y="337" on="0"/>
        <pt x="581" y="240" on="0"/>
        <pt x="554" y="214" on="1"/>
        <pt x="526" y="186" on="0"/>
        <pt x="487" y="186" on="1"/>
        <pt x="460" y="186" on="0"/>
        <pt x="419" y="218" on="0"/>
        <pt x="410" y="247" on="1"/>
        <pt x="370" y="189" on="0"/>
        <pt x="313" y="189" on="1"/>
        <pt x="274" y="189" on="0"/>
        <pt x="220" y="244" on="0"/>
        <pt x="220" y="295" on="1"/>
        <pt x="220" y="342" on="0"/>
        <pt x="275" y="400" on="0"/>
        <pt x="318" y="400" on="1"/>
        <pt x="340" y="400" on="0"/>
        <pt x="377" y="385" on="0"/>
        <pt x="393" y="374" on="1"/>
        <pt x="393" y="420" on="1"/>
        <pt x="393" y="457" on="0"/>
        <pt x="361" y="492" on="0"/>
        <pt x="324" y="492" on="1"/>
        <pt x="292" y="492" on="0"/>
        <pt x="255" y="476" on="1"/>
        <pt x="246" y="516" on="1"/>
        <pt x="264" y="523" on="0"/>
        <pt x="308" y="534" on="0"/>
        <pt x="331" y="534" on="1"/>
        <pt x="384" y="534" on="0"/>
        <pt x="439" y="480" on="0"/>
        <pt x="439" y="419" on="1"/>
        <pt x="439" y="299" on="1"/>
        <pt x="439" y="257" on="0"/>
        <pt x="471" y="224" on="0"/>
        <pt x="490" y="224" on="1"/>
        <pt x="513" y="224" on="0"/>
        <pt x="530" y="242" on="1"/>
        <pt x="547" y="261" on="0"/>
        <pt x="566" y="341" on="0"/>
        <pt x="566" y="395" on="1"/>
        <pt x="566" y="446" on="0"/>
        <pt x="542" y="556" on="0"/>
        <pt x="488" y="646" on="0"/>
        <pt x="401" y="704" on="0"/>
        <pt x="337" y="704" on="1"/>
        <pt x="283" y="704" on="0"/>
        <pt x="192" y="650" on="0"/>
        <pt x="128" y="558" on="0"/>
        <pt x="92" y="434" on="0"/>
        <pt x="92" y="365" on="1"/>
        <pt x="92" y="296" on="0"/>
        <pt x="124" y="175" on="0"/>
        <pt x="190" y="83" on="0"/>
        <pt x="289" y="30" on="0"/>
        <pt x="356" y="30" on="1"/>
        <pt x="384" y="30" on="0"/>
        <pt x="445" y="44" on="0"/>
        <pt x="473" y="57" on="1"/>
        <pt x="484" y="19" on="1"/>
        <pt x="452" y="5" on="0"/>
        <pt x="384" y="-10" on="0"/>
        <pt x="355" y="-10" on="1"/>
        <pt x="279" y="-10" on="0"/>
        <pt x="165" y="49" on="0"/>
        <pt x="88" y="150" on="0"/>
        <pt x="50" y="287" on="0"/>
        <pt x="50" y="365" on="1"/>
        <pt x="50" y="443" on="0"/>
        <pt x="93" y="581" on="0"/>
        <pt x="169" y="683" on="0"/>
        <pt x="275" y="743" on="0"/>
        <pt x="338" y="743" on="1"/>
        <pt x="409" y="743" on="0"/>
        <pt x="511" y="682" on="0"/>
        <pt x="577" y="584" on="0"/>
        <pt x="608" y="461" on="0"/>
      </contour>
      <contour>
        <pt x="393" y="338" on="1"/>
        <pt x="379" y="349" on="0"/>
        <pt x="346" y="364" on="0"/>
        <pt x="326" y="364" on="1"/>
        <pt x="300" y="364" on="0"/>
        <pt x="265" y="328" on="0"/>
        <pt x="265" y="296" on="1"/>
        <pt x="265" y="264" on="0"/>
        <pt x="298" y="227" on="0"/>
        <pt x="323" y="227" on="1"/>
        <pt x="345" y="227" on="0"/>
        <pt x="381" y="253" on="0"/>
        <pt x="393" y="273" on="1"/>
      </contour>
    </TTGlyph>
    <TTGlyph name="atilde" xMin="28" yMin="-9" xMax="307" yMax="572">
      <component glyphName="a" x="0" y="0" flags="0x204"/>
      <component glyphName="tilde" x="-26" y="0" flags="0x4"/>
    </TTGlyph>
    <TTGlyph name="b" xMin="52" yMin="-7" xMax="368" yMax="733">
      <contour>
        <pt x="368" y="221" on="1"/>
        <pt x="368" y="169" on="0"/>
        <pt x="342" y="85" on="0"/>
        <pt x="298" y="25" on="0"/>
        <pt x="240" y="-7" on="0"/>
        <pt x="208" y="-7" on="1"/>
        <pt x="177" y="-7" on="0"/>
        <pt x="123" y="20" on="0"/>
        <pt x="103" y="43" on="1"/>
        <pt x="103" y="0" on="1"/>
        <pt x="52" y="0" on="1"/>
        <pt x="52" y="733" on="1"/>
        <pt x="104" y="733" on="1"/>
        <pt x="104" y="389" on="1"/>
        <pt x="124" y="410" on="0"/>
        <pt x="180" y="440" on="0"/>
        <pt x="215" y="440" on="1"/>
        <pt x="246" y="440" on="0"/>
        <pt x="302" y="411" on="0"/>
        <pt x="344" y="355" on="0"/>
        <pt x="368" y="273" on="0"/>
      </contour>
      <contour>
        <pt x="317" y="220" on="1"/>
        <pt x="317" y="307" on="0"/>
        <pt x="252" y="395" on="0"/>
        <pt x="203" y="395" on="1"/>
        <pt x="173" y="395" on="0"/>
        <pt x="122" y="364" on="0"/>
        <pt x="104" y="342" on="1"/>
        <pt x="104" y="90" on="1"/>
        <pt x="121" y="68" on="0"/>
        <pt x="170" y="36" on="0"/>
        <pt x="200" y="36" on="1"/>
        <pt x="225" y="36" on="0"/>
        <pt x="268" y="62" on="0"/>
        <pt x="299" y="110" on="0"/>
        <pt x="317" y="178" on="0"/>
      </contour>
    </TTGlyph>
    <TTGlyph name="backslash" xMin="1" yMin="-216" xMax="232" yMax="733">
      <contour>
        <pt x="184" y="-216" on="1"/>
        <pt x="1" y="733" on="1"/>
        <pt x="48" y="733" on="1"/>
        <pt x="232" y="-216" on="1"/>
      </contour>
    </TTGlyph>
    <TTGlyph name="backslash.cap" xMin="10" yMin="-111" xMax="241" yMax="838">
      <component glyphName="backslash" x="9" y="105" flags="0x204"/>
    </TTGlyph>
    <TTGlyph name="bar" xMin="73" yMin="-216" xMax="118" yMax="733">
      <contour>
        <pt x="73" y="-216" on="1"/>
        <pt x="73" y="733" on="1"/>
        <pt x="118" y="733" on="1"/>
        <pt x="118" y="-216" on="1"/>
      </contour>
    </TTGlyph>
    <TTGlyph name="bar.cap" xMin="73" yMin="-111" xMax="118" yMax="838">
      <component glyphName="bar" x="0" y="105" flags="0x204"/>
    </TTGlyph>
    <TTGlyph name="braceleft" xMin="18" yMin="-223" xMax="236" yMax="740">
      <contour>
        <pt x="236" y="-223" on="1"/>
        <pt x="173" y="-223" on="0"/>
        <pt x="97" y="-155" on="0"/>
        <pt x="97" y="-81" on="1"/>
        <pt x="97" y="169" on="1"/>
        <pt x="97" y="204" on="0"/>
        <pt x="66" y="236" on="0"/>
        <pt x="36" y="236" on="1"/>
        <pt x="18" y="236" on="1"/>
        <pt x="18" y="282" on="1"/>
        <pt x="36" y="282" on="1"/>
        <pt x="66" y="282" on="0"/>
        <pt x="97" y="313" on="0"/>
        <pt x="97" y="348" on="1"/>
        <pt x="97" y="598" on="1"/>
        <pt x="97" y="672" on="0"/>
        <pt x="173" y="740" on="0"/>
        <pt x="236" y="740" on="1"/>
        <pt x="236" y="694" on="1"/>
        <pt x="194" y="694" on="0"/>
        <pt x="147" y="651" on="0"/>
        <pt x="147" y="600" on="1"/>
        <pt x="147" y="359" on="1"/>
        <pt x="147" y="315" on="0"/>
        <pt x="118" y="269" on="0"/>
        <pt x="86" y="258" on="1"/>
        <pt x="118" y="247" on="0"/>
        <pt x="147" y="202" on="0"/>
        <pt x="147" y="158" on="1"/>
        <pt x="147" y="-83" on="1"/>
        <pt x="147" y="-134" on="0"/>
        <pt x="194" y="-177" on="0"/>
        <pt x="236" y="-177" on="1"/>
      </contour>
    </TTGlyph>
    <TTGlyph name="braceleft.cap" xMin="18" yMin="-118" xMax="236" yMax="845">
      <component glyphName="braceleft" x="0" y="105" flags="0x204"/>
    </TTGlyph>
    <TTGlyph name="braceright" xMin="11" yMin="-223" xMax="229" yMax="740">
      <contour>
        <pt x="211" y="236" on="1"/>
        <pt x="181" y="236" on="0"/>
        <pt x="150" y="204" on="0"/>
        <pt x="150" y="169" on="1"/>
        <pt x="150" y="-81" on="1"/>
        <pt x="150" y="-155" on="0"/>
        <pt x="75" y="-223" on="0"/>
        <pt x="12" y="-223" on="1"/>
        <pt x="11" y="-177" on="1"/>
        <pt x="53" y="-177" on="0"/>
        <pt x="101" y="-134" on="0"/>
        <pt x="101" y="-83" on="1"/>
        <pt x="101" y="158" on="1"/>
        <pt x="101" y="202" on="0"/>
        <pt x="129" y="247" on="0"/>
        <pt x="161" y="258" on="1"/>
        <pt x="129" y="269" on="0"/>
        <pt x="101" y="315" on="0"/>
        <pt x="101" y="359" on="1"/>
        <pt x="101" y="600" on="1"/>
        <pt x="101" y="651" on="0"/>
        <pt x="53" y="694" on="0"/>
        <pt x="11" y="694" on="1"/>
        <pt x="11" y="740" on="1"/>
        <pt x="74" y="740" on="0"/>
        <pt x="150" y="672" on="0"/>
        <pt x="150" y="598" on="1"/>
        <pt x="150" y="348" on="1"/>
        <pt x="150" y="313" on="0"/>
        <pt x="181" y="282" on="0"/>
        <pt x="211" y="282" on="1"/>
        <pt x="229" y="282" on="1"/>
        <pt x="229" y="236" on="1"/>
      </contour>
    </TTGlyph>
    <TTGlyph name="braceright.cap" xMin="11" yMin="-118" xMax="229" yMax="845">
      <component glyphName="braceright" x="0" y="105" flags="0x204"/>
    </TTGlyph>
    <TTGlyph name="bracketleft" xMin="61" yMin="-216" xMax="222" yMax="733">
      <contour>
        <pt x="61" y="-216" on="1"/>
        <pt x="61" y="733" on="1"/>
        <pt x="222" y="733" on="1"/>
        <pt x="222" y="689" on="1"/>
        <pt x="110" y="689" on="1"/>
        <pt x="110" y="-173" on="1"/>
        <pt x="222" y="-173" on="1"/>
        <pt x="222" y="-216" on="1"/>
      </contour>
    </TTGlyph>
    <TTGlyph name="bracketleft.cap" xMin="61" yMin="-111" xMax="222" yMax="838">
      <component glyphName="bracketleft" x="0" y="105" flags="0x204"/>
    </TTGlyph>
    <TTGlyph name="bracketright" xMin="14" yMin="-216" xMax="175" yMax="733">
      <contour>
        <pt x="14" y="-216" on="1"/>
        <pt x="14" y="-173" on="1"/>
        <pt x="127" y="-173" on="1"/>
        <pt x="127" y="690" on="1"/>
        <pt x="14" y="690" on="1"/>
        <pt x="14" y="733" on="1"/>
        <pt x="175" y="733" on="1"/>
        <pt x="175" y="-216" on="1"/>
      </contour>
    </TTGlyph>
    <TTGlyph name="bracketright.cap" xMin="14" yMin="-111" xMax="175" yMax="838">
      <component glyphName="bracketright" x="0" y="105" flags="0x204"/>
    </TTGlyph>
    <TTGlyph name="breve" xMin="106" yMin="490" xMax="312" yMax="595">
      <contour>
        <pt x="312" y="592" on="1"/>
        <pt x="311" y="550" on="0"/>
        <pt x="258" y="490" on="0"/>
        <pt x="208" y="490" on="1"/>
        <pt x="184" y="490" on="0"/>
        <pt x="146" y="506" on="0"/>
        <pt x="120" y="534" on="0"/>
        <pt x="106" y="571" on="0"/>
        <pt x="106" y="592" on="1"/>
        <pt x="151" y="595" on="1"/>
        <pt x="151" y="565" on="0"/>
        <pt x="181" y="529" on="0"/>
        <pt x="208" y="529" on="1"/>
        <pt x="237" y="529" on="0"/>
        <pt x="266" y="565" on="0"/>
        <pt x="267" y="595" on="1"/>
      </contour>
    </TTGlyph>
    <TTGlyph name="bullet" xMin="51" yMin="268" xMax="244" yMax="464">
      <contour>
        <pt x="244" y="366" on="1"/>
        <pt x="244" y="325" on="0"/>
        <pt x="188" y="268" on="0"/>
        <pt x="147" y="268" on="1"/>
        <pt x="127" y="268" on="0"/>
        <pt x="92" y="283" on="0"/>
        <pt x="66" y="310" on="0"/>
        <pt x="51" y="346" on="0"/>
        <pt x="51" y="366" on="1"/>
        <pt x="51" y="386" on="0"/>
        <pt x="66" y="422" on="0"/>
        <pt x="92" y="449" on="0"/>
        <pt x="127" y="464" on="0"/>
        <pt x="147" y="464" on="1"/>
        <pt x="188" y="464" on="0"/>
        <pt x="244" y="407" on="0"/>
      </contour>
    </TTGlyph>
    <TTGlyph name="c" xMin="32" yMin="-9" xMax="315" yMax="441">
      <contour>
        <pt x="314" y="29" on="1"/>
        <pt x="291" y="12" on="0"/>
        <pt x="237" y="-9" on="0"/>
        <pt x="205" y="-9" on="1"/>
        <pt x="166" y="-9" on="0"/>
        <pt x="102" y="25" on="0"/>
        <pt x="57" y="85" on="0"/>
        <pt x="32" y="167" on="0"/>
        <pt x="32" y="214" on="1"/>
        <pt x="32" y="262" on="0"/>
        <pt x="56" y="344" on="0"/>
        <pt x="101" y="406" on="0"/>
        <pt x="166" y="441" on="0"/>
        <pt x="206" y="441" on="1"/>
        <pt x="239" y="441" on="0"/>
        <pt x="292" y="420" on="0"/>
        <pt x="315" y="403" on="1"/>
        <pt x="291" y="364" on="1"/>
        <pt x="272" y="377" on="0"/>
        <pt x="230" y="396" on="0"/>
        <pt x="204" y="396" on="1"/>
        <pt x="176" y="396" on="0"/>
        <pt x="131" y="368" on="0"/>
        <pt x="100" y="319" on="0"/>
        <pt x="83" y="253" on="0"/>
        <pt x="83" y="215" on="1"/>
        <pt x="83" y="178" on="0"/>
        <pt x="100" y="113" on="0"/>
        <pt x="132" y="65" on="0"/>
        <pt x="178" y="37" on="0"/>
        <pt x="206" y="37" on="1"/>
        <pt x="232" y="37" on="0"/>
        <pt x="273" y="54" on="0"/>
        <pt x="293" y="68" on="1"/>
      </contour>
    </TTGlyph>
    <TTGlyph name="cacute" xMin="32" yMin="-9" xMax="331" yMax="615">
      <component glyphName="acute" x="40" y="0" flags="0x4"/>
      <component glyphName="c" x="0" y="0" flags="0x4"/>
    </TTGlyph>
    <TTGlyph name="caron" xMin="93" yMin="486" xMax="323" yMax="610">
      <contour>
        <pt x="217" y="486" on="1"/>
        <pt x="197" y="486" on="1"/>
        <pt x="93" y="610" on="1"/>
        <pt x="146" y="610" on="1"/>
        <pt x="210" y="534" on="1"/>
        <pt x="271" y="610" on="1"/>
        <pt x="323" y="610" on="1"/>
      </contour>
    </TTGlyph>
    <TTGlyph name="caron.alt" xMin="50" yMin="539" xMax="146" yMax="737">
      <contour>
        <pt x="146" y="731" on="1"/>
        <pt x="146" y="671" on="0"/>
        <pt x="111" y="575" on="0"/>
        <pt x="73" y="539" on="1"/>
        <pt x="50" y="555" on="1"/>
        <pt x="78" y="593" on="0"/>
        <pt x="97" y="684" on="0"/>
        <pt x="98" y="737" on="1"/>
      </contour>
    </TTGlyph>
    <TTGlyph name="ccaron" xMin="32" yMin="-9" xMax="315" yMax="610">
      <component glyphName="caron" x="-10" y="0" flags="0x4"/>
      <component glyphName="c" x="0" y="0" flags="0x4"/>
    </TTGlyph>
    <TTGlyph name="ccedilla" xMin="32" yMin="-201" xMax="315" yMax="441">
      <contour>
        <pt x="281" y="-127" on="1"/>
        <pt x="281" y="-156" on="0"/>
        <pt x="237" y="-201" on="0"/>
        <pt x="195" y="-201" on="1"/>
        <pt x="173" y="-201" on="0"/>
        <pt x="129" y="-186" on="0"/>
        <pt x="106" y="-173" on="1"/>
        <pt x="122" y="-140" on="1"/>
        <pt x="164" y="-165" on="0"/>
        <pt x="196" y="-165" on="1"/>
        <pt x="217" y="-165" on="0"/>
        <pt x="240" y="-145" on="0"/>
        <pt x="240" y="-129" on="1"/>
        <pt x="240" y="-110" on="0"/>
        <pt x="201" y="-81" on="0"/>
        <pt x="154" y="-76" on="1"/>
        <pt x="152" y="-71" on="1"/>
        <pt x="169" y="-5" on="1"/>
        <pt x="137" y="2" on="0"/>
        <pt x="86" y="41" on="0"/>
        <pt x="51" y="99" on="0"/>
        <pt x="32" y="172" on="0"/>
        <pt x="32" y="214" on="1"/>
        <pt x="32" y="262" on="0"/>
        <pt x="56" y="344" on="0"/>
        <pt x="101" y="406" on="0"/>
        <pt x="166" y="441" on="0"/>
        <pt x="206" y="441" on="1"/>
        <pt x="239" y="441" on="0"/>
        <pt x="292" y="420" on="0"/>
        <pt x="315" y="403" on="1"/>
        <pt x="291" y="364" on="1"/>
        <pt x="272" y="377" on="0"/>
        <pt x="230" y="396" on="0"/>
        <pt x="204" y="396" on="1"/>
        <pt x="176" y="396" on="0"/>
        <pt x="131" y="368" on="0"/>
        <pt x="100" y="319" on="0"/>
        <pt x="83" y="253" on="0"/>
        <pt x="83" y="215" on="1"/>
        <pt x="83" y="178" on="0"/>
        <pt x="100" y="113" on="0"/>
        <pt x="132" y="65" on="0"/>
        <pt x="178" y="37" on="0"/>
        <pt x="206" y="37" on="1"/>
        <pt x="232" y="37" on="0"/>
        <pt x="273" y="54" on="0"/>
        <pt x="293" y="68" on="1"/>
        <pt x="314" y="29" on="1"/>
        <pt x="291" y="12" on="0"/>
        <pt x="237" y="-9" on="0"/>
        <pt x="205" y="-9" on="1"/>
        <pt x="203" y="-9" on="1"/>
        <pt x="193" y="-46" on="1"/>
        <pt x="241" y="-57" on="0"/>
        <pt x="281" y="-101" on="0"/>
      </contour>
    </TTGlyph>
    <TTGlyph name="cdotaccent" xMin="32" yMin="-9" xMax="315" yMax="570">
      <component glyphName="c" x="0" y="0" flags="0x204"/>
      <component glyphName="dotaccent" x="-11" y="0" flags="0x4"/>
    </TTGlyph>
    <TTGlyph name="cedilla" xMin="131" yMin="-201" xMax="306" yMax="14">
      <contour>
        <pt x="306" y="-127" on="1"/>
        <pt x="306" y="-156" on="0"/>
        <pt x="262" y="-201" on="0"/>
        <pt x="220" y="-201" on="1"/>
        <pt x="198" y="-201" on="0"/>
        <pt x="154" y="-186" on="0"/>
        <pt x="131" y="-173" on="1"/>
        <pt x="147" y="-140" on="1"/>
        <pt x="189" y="-165" on="0"/>
        <pt x="221" y="-165" on="1"/>
        <pt x="242" y="-165" on="0"/>
        <pt x="265" y="-145" on="0"/>
        <pt x="265" y="-129" on="1"/>
        <pt x="265" y="-110" on="0"/>
        <pt x="226" y="-81" on="0"/>
        <pt x="179" y="-76" on="1"/>
        <pt x="177" y="-71" on="1"/>
        <pt x="199" y="14" on="1"/>
        <pt x="232" y="5" on="1"/>
        <pt x="218" y="-46" on="1"/>
        <pt x="266" y="-57" on="0"/>
        <pt x="306" y="-101" on="0"/>
      </contour>
    </TTGlyph>
    <TTGlyph name="cent" xMin="31" yMin="-81" xMax="315" yMax="520">
      <contour>
        <pt x="160" y="-3" on="1"/>
        <pt x="130" y="5" on="0"/>
        <pt x="82" y="45" on="0"/>
        <pt x="49" y="102" on="0"/>
        <pt x="31" y="173" on="0"/>
        <pt x="31" y="214" on="1"/>
        <pt x="31" y="259" on="0"/>
        <pt x="54" y="339" on="0"/>
        <pt x="96" y="400" on="0"/>
        <pt x="155" y="437" on="0"/>
        <pt x="192" y="440" on="1"/>
        <pt x="198" y="520" on="1"/>
        <pt x="239" y="517" on="1"/>
        <pt x="239" y="514" on="0"/>
        <pt x="235" y="471" on="0"/>
        <pt x="233" y="439" on="1"/>
        <pt x="257" y="435" on="0"/>
        <pt x="297" y="417" on="0"/>
        <pt x="315" y="403" on="1"/>
        <pt x="291" y="364" on="1"/>
        <pt x="277" y="373" on="0"/>
        <pt x="248" y="389" on="0"/>
        <pt x="230" y="393" on="1"/>
        <pt x="227" y="354" on="0"/>
        <pt x="221" y="261" on="0"/>
        <pt x="214" y="167" on="0"/>
        <pt x="207" y="76" on="0"/>
        <pt x="204" y="37" on="1"/>
        <pt x="205" y="37" on="1"/>
        <pt x="249" y="37" on="0"/>
        <pt x="292" y="68" on="1"/>
        <pt x="313" y="29" on="1"/>
        <pt x="288" y="11" on="0"/>
        <pt x="233" y="-9" on="0"/>
        <pt x="203" y="-9" on="1"/>
        <pt x="201" y="-9" on="1"/>
        <pt x="199" y="-26" on="0"/>
        <pt x="198" y="-53" on="0"/>
        <pt x="197" y="-62" on="1"/>
        <pt x="196" y="-73" on="0"/>
        <pt x="196" y="-81" on="1"/>
        <pt x="155" y="-79" on="1"/>
      </contour>
      <contour>
        <pt x="83" y="214" on="1"/>
        <pt x="83" y="156" on="0"/>
        <pt x="125" y="63" on="0"/>
        <pt x="164" y="45" on="1"/>
        <pt x="189" y="395" on="1"/>
        <pt x="138" y="387" on="0"/>
        <pt x="83" y="286" on="0"/>
      </contour>
    </TTGlyph>
    <TTGlyph name="cent.lin" xMin="31" yMin="68" xMax="315" yMax="669">
      <component glyphName="cent" x="0" y="149" flags="0x4"/>
    </TTGlyph>
    <TTGlyph name="circumflex" xMin="95" yMin="490" xMax="325" yMax="613">
      <contour>
        <pt x="272" y="490" on="1"/>
        <pt x="208" y="566" on="1"/>
        <pt x="147" y="490" on="1"/>
        <pt x="95" y="490" on="1"/>
        <pt x="201" y="613" on="1"/>
        <pt x="221" y="613" on="1"/>
        <pt x="325" y="490" on="1"/>
      </contour>
    </TTGlyph>
    <TTGlyph name="colon" xMin="32" yMin="-9" xMax="112" yMax="384">
      <contour>
        <pt x="32" y="32" on="1"/>
        <pt x="32" y="49" on="0"/>
        <pt x="55" y="72" on="0"/>
        <pt x="72" y="72" on="1"/>
        <pt x="89" y="72" on="0"/>
        <pt x="112" y="49" on="0"/>
        <pt x="112" y="32" on="1"/>
        <pt x="112" y="15" on="0"/>
        <pt x="89" y="-9" on="0"/>
        <pt x="72" y="-9" on="1"/>
        <pt x="55" y="-9" on="0"/>
        <pt x="32" y="15" on="0"/>
      </contour>
      <contour>
        <pt x="32" y="344" on="1"/>
        <pt x="32" y="361" on="0"/>
        <pt x="55" y="384" on="0"/>
        <pt x="72" y="384" on="1"/>
        <pt x="89" y="384" on="0"/>
        <pt x="112" y="361" on="0"/>
        <pt x="112" y="344" on="1"/>
        <pt x="112" y="327" on="0"/>
        <pt x="89" y="304" on="0"/>
        <pt x="72" y="304" on="1"/>
        <pt x="55" y="304" on="0"/>
        <pt x="32" y="327" on="0"/>
      </contour>
    </TTGlyph>
    <TTGlyph name="comma" xMin="23" yMin="-104" xMax="114" yMax="72">
      <contour>
        <pt x="114" y="20" on="1"/>
        <pt x="114" y="2" on="0"/>
        <pt x="100" y="-35" on="0"/>
        <pt x="78" y="-68" on="0"/>
        <pt x="49" y="-96" on="0"/>
        <pt x="33" y="-104" on="1"/>
        <pt x="23" y="-92" on="1"/>
        <pt x="46" y="-72" on="0"/>
        <pt x="71" y="-29" on="0"/>
        <pt x="75" y="-7" on="1"/>
        <pt x="55" y="-5" on="0"/>
        <pt x="32" y="18" on="0"/>
        <pt x="32" y="34" on="1"/>
        <pt x="32" y="50" on="0"/>
        <pt x="54" y="72" on="0"/>
        <pt x="70" y="72" on="1"/>
        <pt x="90" y="72" on="0"/>
        <pt x="114" y="43" on="0"/>
      </contour>
    </TTGlyph>
    <TTGlyph name="commaaccent" xMin="32" yMin="-239" xMax="119" yMax="-69">
      <contour>
        <pt x="119" y="-120" on="1"/>
        <pt x="119" y="-137" on="0"/>
        <pt x="106" y="-172" on="0"/>
        <pt x="85" y="-204" on="0"/>
        <pt x="57" y="-231" on="0"/>
        <pt x="42" y="-239" on="1"/>
        <pt x="32" y="-228" on="1"/>
        <pt x="74" y="-189" on="0"/>
        <pt x="82" y="-145" on="1"/>
        <pt x="62" y="-143" on="0"/>
        <pt x="40" y="-121" on="0"/>
        <pt x="40" y="-106" on="1"/>
        <pt x="40" y="-91" on="0"/>
        <pt x="62" y="-69" on="0"/>
        <pt x="77" y="-69" on="1"/>
        <pt x="96" y="-69" on="0"/>
        <pt x="119" y="-97" on="0"/>
      </contour>
    </TTGlyph>
    <TTGlyph name="copyright" xMin="37" yMin="-12" xMax="613" yMax="745">
      <contour>
        <pt x="613" y="366" on="1"/>
        <pt x="613" y="288" on="0"/>
        <pt x="569" y="150" on="0"/>
        <pt x="492" y="47" on="0"/>
        <pt x="387" y="-12" on="0"/>
        <pt x="325" y="-12" on="1"/>
        <pt x="263" y="-12" on="0"/>
        <pt x="158" y="47" on="0"/>
        <pt x="81" y="150" on="0"/>
        <pt x="37" y="288" on="0"/>
        <pt x="37" y="366" on="1"/>
        <pt x="37" y="444" on="0"/>
        <pt x="81" y="582" on="0"/>
        <pt x="158" y="685" on="0"/>
        <pt x="263" y="745" on="0"/>
        <pt x="325" y="745" on="1"/>
        <pt x="387" y="745" on="0"/>
        <pt x="492" y="685" on="0"/>
        <pt x="569" y="582" on="0"/>
        <pt x="613" y="444" on="0"/>
      </contour>
      <contour>
        <pt x="573" y="366" on="1"/>
        <pt x="573" y="435" on="0"/>
        <pt x="536" y="559" on="0"/>
        <pt x="470" y="653" on="0"/>
        <pt x="379" y="708" on="0"/>
        <pt x="325" y="708" on="1"/>
        <pt x="271" y="708" on="0"/>
        <pt x="180" y="653" on="0"/>
        <pt x="114" y="559" on="0"/>
        <pt x="77" y="435" on="0"/>
        <pt x="77" y="366" on="1"/>
        <pt x="77" y="297" on="0"/>
        <pt x="114" y="174" on="0"/>
        <pt x="180" y="80" on="0"/>
        <pt x="271" y="25" on="0"/>
        <pt x="325" y="25" on="1"/>
        <pt x="379" y="25" on="0"/>
        <pt x="470" y="80" on="0"/>
        <pt x="536" y="174" on="0"/>
        <pt x="573" y="297" on="0"/>
      </contour>
      <contour>
        <pt x="426" y="210" on="1"/>
        <pt x="407" y="196" on="0"/>
        <pt x="365" y="181" on="0"/>
        <pt x="340" y="181" on="1"/>
        <pt x="310" y="181" on="0"/>
        <pt x="256" y="206" on="0"/>
        <pt x="217" y="254" on="0"/>
        <pt x="194" y="324" on="0"/>
        <pt x="194" y="368" on="1"/>
        <pt x="194" y="411" on="0"/>
        <pt x="216" y="480" on="0"/>
        <pt x="256" y="530" on="0"/>
        <pt x="309" y="557" on="0"/>
        <pt x="341" y="557" on="1"/>
        <pt x="367" y="557" on="0"/>
        <pt x="408" y="543" on="0"/>
        <pt x="427" y="529" on="1"/>
        <pt x="409" y="494" on="1"/>
        <pt x="395" y="504" on="0"/>
        <pt x="360" y="516" on="0"/>
        <pt x="340" y="516" on="1"/>
        <pt x="298" y="516" on="0"/>
        <pt x="240" y="440" on="0"/>
        <pt x="240" y="371" on="1"/>
        <pt x="240" y="299" on="0"/>
        <pt x="300" y="222" on="0"/>
        <pt x="342" y="222" on="1"/>
        <pt x="361" y="222" on="0"/>
        <pt x="397" y="235" on="0"/>
        <pt x="411" y="245" on="1"/>
      </contour>
    </TTGlyph>
    <TTGlyph name="d" xMin="32" yMin="-8" xMax="348" yMax="733">
      <contour>
        <pt x="298" y="0" on="1"/>
        <pt x="298" y="44" on="1"/>
        <pt x="278" y="22" on="0"/>
        <pt x="223" y="-8" on="0"/>
        <pt x="188" y="-8" on="1"/>
        <pt x="156" y="-8" on="0"/>
        <pt x="99" y="21" on="0"/>
        <pt x="57" y="77" on="0"/>
        <pt x="32" y="158" on="0"/>
        <pt x="32" y="211" on="1"/>
        <pt x="32" y="262" on="0"/>
        <pt x="58" y="347" on="0"/>
        <pt x="103" y="407" on="0"/>
        <pt x="162" y="440" on="0"/>
        <pt x="195" y="440" on="1"/>
        <pt x="227" y="440" on="0"/>
        <pt x="277" y="414" on="0"/>
        <pt x="297" y="393" on="1"/>
        <pt x="297" y="733" on="1"/>
        <pt x="348" y="733" on="1"/>
        <pt x="348" y="0" on="1"/>
      </contour>
      <contour>
        <pt x="297" y="344" on="1"/>
        <pt x="279" y="366" on="0"/>
        <pt x="231" y="396" on="0"/>
        <pt x="200" y="396" on="1"/>
        <pt x="175" y="396" on="0"/>
        <pt x="133" y="370" on="0"/>
        <pt x="102" y="322" on="0"/>
        <pt x="84" y="253" on="0"/>
        <pt x="84" y="211" on="1"/>
        <pt x="84" y="125" on="0"/>
        <pt x="149" y="37" on="0"/>
        <pt x="199" y="37" on="1"/>
        <pt x="229" y="37" on="0"/>
        <pt x="280" y="67" on="0"/>
        <pt x="297" y="90" on="1"/>
      </contour>
    </TTGlyph>
    <TTGlyph name="dagger" xMin="29" yMin="189" xMax="313" yMax="733">
      <contour>
        <pt x="196" y="549" on="1"/>
        <pt x="196" y="189" on="1"/>
        <pt x="148" y="189" on="1"/>
        <pt x="148" y="549" on="1"/>
        <pt x="29" y="549" on="1"/>
        <pt x="29" y="595" on="1"/>
        <pt x="148" y="595" on="1"/>
        <pt x="148" y="733" on="1"/>
        <pt x="196" y="733" on="1"/>
        <pt x="196" y="595" on="1"/>
        <pt x="313" y="595" on="1"/>
        <pt x="313" y="549" on="1"/>
      </contour>
    </TTGlyph>
    <TTGlyph name="daggerdbl" xMin="36" yMin="189" xMax="321" yMax="733">
      <contour>
        <pt x="203" y="330" on="1"/>
        <pt x="203" y="189" on="1"/>
        <pt x="154" y="189" on="1"/>
        <pt x="154" y="330" on="1"/>
        <pt x="37" y="330" on="1"/>
        <pt x="37" y="376" on="1"/>
        <pt x="154" y="376" on="1"/>
        <pt x="154" y="547" on="1"/>
        <pt x="36" y="547" on="1"/>
        <pt x="36" y="592" on="1"/>
        <pt x="154" y="592" on="1"/>
        <pt x="154" y="733" on="1"/>
        <pt x="203" y="733" on="1"/>
        <pt x="203" y="592" on="1"/>
        <pt x="320" y="592" on="1"/>
        <pt x="320" y="547" on="1"/>
        <pt x="203" y="547" on="1"/>
        <pt x="203" y="376" on="1"/>
        <pt x="321" y="376" on="1"/>
        <pt x="321" y="330" on="1"/>
      </contour>
    </TTGlyph>
    <TTGlyph name="dcaron" xMin="32" yMin="-8" xMax="469" yMax="735">
      <component glyphName="caron.alt" x="323" y="-2" flags="0x4"/>
      <component glyphName="d" x="0" y="0" flags="0x4"/>
    </TTGlyph>
    <TTGlyph name="dcroat" xMin="32" yMin="-8" xMax="397" yMax="733">
      <contour>
        <pt x="298" y="0" on="1"/>
        <pt x="298" y="44" on="1"/>
        <pt x="278" y="22" on="0"/>
        <pt x="223" y="-8" on="0"/>
        <pt x="188" y="-8" on="1"/>
        <pt x="156" y="-8" on="0"/>
        <pt x="99" y="21" on="0"/>
        <pt x="57" y="77" on="0"/>
        <pt x="32" y="158" on="0"/>
        <pt x="32" y="211" on="1"/>
        <pt x="32" y="262" on="0"/>
        <pt x="58" y="347" on="0"/>
        <pt x="103" y="407" on="0"/>
        <pt x="162" y="440" on="0"/>
        <pt x="195" y="440" on="1"/>
        <pt x="227" y="440" on="0"/>
        <pt x="277" y="414" on="0"/>
        <pt x="297" y="393" on="1"/>
        <pt x="297" y="571" on="1"/>
        <pt x="181" y="571" on="1"/>
        <pt x="181" y="617" on="1"/>
        <pt x="297" y="617" on="1"/>
        <pt x="297" y="733" on="1"/>
        <pt x="348" y="733" on="1"/>
        <pt x="348" y="617" on="1"/>
        <pt x="397" y="617" on="1"/>
        <pt x="397" y="571" on="1"/>
        <pt x="348" y="571" on="1"/>
        <pt x="348" y="0" on="1"/>
      </contour>
      <contour>
        <pt x="297" y="344" on="1"/>
        <pt x="279" y="366" on="0"/>
        <pt x="231" y="396" on="0"/>
        <pt x="200" y="396" on="1"/>
        <pt x="175" y="396" on="0"/>
        <pt x="133" y="370" on="0"/>
        <pt x="102" y="322" on="0"/>
        <pt x="84" y="253" on="0"/>
        <pt x="84" y="211" on="1"/>
        <pt x="84" y="125" on="0"/>
        <pt x="149" y="37" on="0"/>
        <pt x="199" y="37" on="1"/>
        <pt x="229" y="37" on="0"/>
        <pt x="280" y="67" on="0"/>
        <pt x="297" y="90" on="1"/>
      </contour>
    </TTGlyph>
    <TTGlyph name="degree" xMin="58" yMin="478" xMax="291" yMax="711">
      <contour>
        <pt x="291" y="594" on="1"/>
        <pt x="291" y="570" on="0"/>
        <pt x="274" y="528" on="0"/>
        <pt x="244" y="497" on="0"/>
        <pt x="201" y="478" on="0"/>
        <pt x="175" y="478" on="1"/>
        <pt x="149" y="478" on="0"/>
        <pt x="106" y="497" on="0"/>
        <pt x="75" y="528" on="0"/>
        <pt x="58" y="570" on="0"/>
        <pt x="58" y="594" on="1"/>
        <pt x="58" y="643" on="0"/>
        <pt x="122" y="711" on="0"/>
        <pt x="175" y="711" on="1"/>
        <pt x="228" y="711" on="0"/>
        <pt x="291" y="643" on="0"/>
      </contour>
      <contour>
        <pt x="249" y="595" on="1"/>
        <pt x="249" y="630" on="0"/>
        <pt x="207" y="675" on="0"/>
        <pt x="175" y="675" on="1"/>
        <pt x="142" y="675" on="0"/>
        <pt x="101" y="630" on="0"/>
        <pt x="101" y="595" on="1"/>
        <pt x="101" y="560" on="0"/>
        <pt x="142" y="514" on="0"/>
        <pt x="175" y="514" on="1"/>
        <pt x="207" y="514" on="0"/>
        <pt x="249" y="560" on="0"/>
      </contour>
    </TTGlyph>
    <TTGlyph name="degree.lin" xMin="45" yMin="479" xMax="300" yMax="736">
      <contour>
        <pt x="300" y="607" on="1"/>
        <pt x="300" y="581" on="0"/>
        <pt x="282" y="535" on="0"/>
        <pt x="249" y="500" on="0"/>
        <pt x="202" y="479" on="0"/>
        <pt x="173" y="479" on="1"/>
        <pt x="144" y="479" on="0"/>
        <pt x="96" y="500" on="0"/>
        <pt x="63" y="535" on="0"/>
        <pt x="45" y="581" on="0"/>
        <pt x="45" y="607" on="1"/>
        <pt x="45" y="633" on="0"/>
        <pt x="63" y="680" on="0"/>
        <pt x="96" y="715" on="0"/>
        <pt x="144" y="736" on="0"/>
        <pt x="173" y="736" on="1"/>
        <pt x="202" y="736" on="0"/>
        <pt x="249" y="715" on="0"/>
        <pt x="282" y="680" on="0"/>
        <pt x="300" y="633" on="0"/>
      </contour>
      <contour>
        <pt x="255" y="608" on="1"/>
        <pt x="255" y="647" on="0"/>
        <pt x="209" y="697" on="0"/>
        <pt x="172" y="697" on="1"/>
        <pt x="136" y="697" on="0"/>
        <pt x="90" y="647" on="0"/>
        <pt x="90" y="608" on="1"/>
        <pt x="90" y="569" on="0"/>
        <pt x="136" y="517" on="0"/>
        <pt x="173" y="517" on="1"/>
        <pt x="209" y="517" on="0"/>
        <pt x="255" y="569" on="0"/>
      </contour>
    </TTGlyph>
    <TTGlyph name="dieresis" xMin="104" yMin="496" xMax="313" yMax="570">
      <contour>
        <pt x="313" y="533" on="1"/>
        <pt x="313" y="518" on="0"/>
        <pt x="292" y="496" on="0"/>
        <pt x="277" y="496" on="1"/>
        <pt x="262" y="496" on="0"/>
        <pt x="240" y="518" on="0"/>
        <pt x="240" y="533" on="1"/>
        <pt x="240" y="548" on="0"/>
        <pt x="262" y="570" on="0"/>
        <pt x="277" y="570" on="1"/>
        <pt x="292" y="570" on="0"/>
        <pt x="313" y="548" on="0"/>
      </contour>
      <contour>
        <pt x="177" y="533" on="1"/>
        <pt x="177" y="518" on="0"/>
        <pt x="155" y="496" on="0"/>
        <pt x="140" y="496" on="1"/>
        <pt x="125" y="496" on="0"/>
        <pt x="104" y="518" on="0"/>
        <pt x="104" y="533" on="1"/>
        <pt x="104" y="548" on="0"/>
        <pt x="125" y="570" on="0"/>
        <pt x="140" y="570" on="1"/>
        <pt x="155" y="570" on="0"/>
        <pt x="177" y="548" on="0"/>
      </contour>
    </TTGlyph>
    <TTGlyph name="divide" xMin="43" yMin="170" xMax="343" yMax="494">
      <contour>
        <pt x="43" y="355" on="1"/>
        <pt x="343" y="355" on="1"/>
        <pt x="343" y="309" on="1"/>
        <pt x="43" y="309" on="1"/>
      </contour>
      <contour>
        <pt x="158" y="457" on="1"/>
        <pt x="158" y="472" on="0"/>
        <pt x="179" y="494" on="0"/>
        <pt x="193" y="494" on="1"/>
        <pt x="208" y="494" on="0"/>
        <pt x="228" y="472" on="0"/>
        <pt x="228" y="457" on="1"/>
        <pt x="228" y="443" on="0"/>
        <pt x="208" y="422" on="0"/>
        <pt x="193" y="422" on="1"/>
        <pt x="178" y="422" on="0"/>
        <pt x="158" y="443" on="0"/>
      </contour>
      <contour>
        <pt x="158" y="206" on="1"/>
        <pt x="158" y="221" on="0"/>
        <pt x="179" y="242" on="0"/>
        <pt x="193" y="242" on="1"/>
        <pt x="208" y="242" on="0"/>
        <pt x="229" y="221" on="0"/>
        <pt x="229" y="206" on="1"/>
        <pt x="229" y="192" on="0"/>
        <pt x="208" y="170" on="0"/>
        <pt x="193" y="170" on="1"/>
        <pt x="179" y="170" on="0"/>
        <pt x="158" y="192" on="0"/>
      </contour>
    </TTGlyph>
    <TTGlyph name="divide.lin" xMin="43" yMin="209" xMax="343" yMax="533">
      <component glyphName="divide" x="0" y="39" flags="0x204"/>
    </TTGlyph>
    <TTGlyph name="dollar" xMin="17" yMin="-73" xMax="338" yMax="727">
      <contour>
        <pt x="254" y="722" on="1"/>
        <pt x="246" y="662" on="1"/>
        <pt x="272" y="656" on="0"/>
        <pt x="315" y="634" on="0"/>
        <pt x="332" y="620" on="1"/>
        <pt x="308" y="578" on="1"/>
        <pt x="294" y="590" on="0"/>
        <pt x="260" y="610" on="0"/>
        <pt x="241" y="616" on="1"/>
        <pt x="209" y="353" on="1"/>
        <pt x="236" y="333" on="0"/>
        <pt x="284" y="293" on="0"/>
        <pt x="318" y="247" on="0"/>
        <pt x="338" y="192" on="0"/>
        <pt x="338" y="158" on="1"/>
        <pt x="338" y="120" on="0"/>
        <pt x="312" y="58" on="0"/>
        <pt x="268" y="14" on="0"/>
        <pt x="209" y="-10" on="0"/>
        <pt x="175" y="-10" on="1"/>
        <pt x="165" y="-10" on="1"/>
        <pt x="158" y="-73" on="1"/>
        <pt x="119" y="-68" on="1"/>
        <pt x="126" y="-4" on="1"/>
        <pt x="96" y="2" on="0"/>
        <pt x="42" y="30" on="0"/>
        <pt x="17" y="49" on="1"/>
        <pt x="42" y="91" on="1"/>
        <pt x="62" y="75" on="0"/>
        <pt x="107" y="49" on="0"/>
        <pt x="132" y="41" on="1"/>
        <pt x="165" y="325" on="1"/>
        <pt x="140" y="343" on="0"/>
        <pt x="95" y="382" on="0"/>
        <pt x="62" y="426" on="0"/>
        <pt x="43" y="478" on="0"/>
        <pt x="43" y="510" on="1"/>
        <pt x="43" y="544" on="0"/>
        <pt x="67" y="602" on="0"/>
        <pt x="109" y="644" on="0"/>
        <pt x="167" y="668" on="0"/>
        <pt x="202" y="668" on="1"/>
        <pt x="207" y="668" on="1"/>
        <pt x="214" y="727" on="1"/>
      </contour>
      <contour>
        <pt x="287" y="155" on="1"/>
        <pt x="287" y="202" on="0"/>
        <pt x="238" y="268" on="0"/>
        <pt x="202" y="297" on="1"/>
        <pt x="171" y="35" on="1"/>
        <pt x="174" y="35" on="1"/>
        <pt x="223" y="35" on="0"/>
        <pt x="287" y="98" on="0"/>
      </contour>
      <contour>
        <pt x="93" y="512" on="1"/>
        <pt x="93" y="469" on="0"/>
        <pt x="140" y="408" on="0"/>
        <pt x="172" y="381" on="1"/>
        <pt x="201" y="622" on="1"/>
        <pt x="149" y="622" on="0"/>
        <pt x="93" y="558" on="0"/>
      </contour>
    </TTGlyph>
    <TTGlyph name="dollar.lin" xMin="15" yMin="-82" xMax="371" yMax="803">
      <contour>
        <pt x="275" y="797" on="1"/>
        <pt x="267" y="731" on="1"/>
        <pt x="295" y="725" on="0"/>
        <pt x="342" y="701" on="0"/>
        <pt x="362" y="685" on="1"/>
        <pt x="338" y="643" on="1"/>
        <pt x="321" y="657" on="0"/>
        <pt x="283" y="678" on="0"/>
        <pt x="261" y="684" on="1"/>
        <pt x="227" y="388" on="1"/>
        <pt x="258" y="366" on="0"/>
        <pt x="310" y="321" on="0"/>
        <pt x="349" y="270" on="0"/>
        <pt x="371" y="210" on="0"/>
        <pt x="371" y="173" on="1"/>
        <pt x="371" y="132" on="0"/>
        <pt x="342" y="64" on="0"/>
        <pt x="293" y="16" on="0"/>
        <pt x="226" y="-11" on="0"/>
        <pt x="189" y="-11" on="1"/>
        <pt x="179" y="-11" on="1"/>
        <pt x="171" y="-82" on="1"/>
        <pt x="130" y="-76" on="1"/>
        <pt x="138" y="-5" on="1"/>
        <pt x="104" y="2" on="0"/>
        <pt x="43" y="33" on="0"/>
        <pt x="15" y="53" on="1"/>
        <pt x="40" y="96" on="1"/>
        <pt x="64" y="77" on="0"/>
        <pt x="116" y="49" on="0"/>
        <pt x="144" y="41" on="1"/>
        <pt x="181" y="358" on="1"/>
        <pt x="152" y="379" on="0"/>
        <pt x="102" y="422" on="0"/>
        <pt x="65" y="471" on="0"/>
        <pt x="44" y="528" on="0"/>
        <pt x="44" y="563" on="1"/>
        <pt x="44" y="600" on="0"/>
        <pt x="71" y="663" on="0"/>
        <pt x="118" y="709" on="0"/>
        <pt x="183" y="736" on="0"/>
        <pt x="221" y="736" on="1"/>
        <pt x="225" y="736" on="1"/>
        <pt x="233" y="803" on="1"/>
      </contour>
      <contour>
        <pt x="320" y="169" on="1"/>
        <pt x="320" y="222" on="0"/>
        <pt x="264" y="296" on="0"/>
        <pt x="220" y="330" on="1"/>
        <pt x="185" y="35" on="1"/>
        <pt x="190" y="35" on="1"/>
        <pt x="248" y="35" on="0"/>
        <pt x="320" y="110" on="0"/>
      </contour>
      <contour>
        <pt x="95" y="566" on="1"/>
        <pt x="95" y="516" on="0"/>
        <pt x="146" y="447" on="0"/>
        <pt x="188" y="415" on="1"/>
        <pt x="220" y="690" on="1"/>
        <pt x="218" y="690" on="1"/>
        <pt x="162" y="690" on="0"/>
        <pt x="95" y="619" on="0"/>
      </contour>
    </TTGlyph>
    <TTGlyph name="dotaccent" xMin="172" yMin="496" xMax="245" yMax="570">
      <contour>
        <pt x="172" y="533" on="1"/>
        <pt x="172" y="548" on="0"/>
        <pt x="193" y="570" on="0"/>
        <pt x="209" y="570" on="1"/>
        <pt x="224" y="570" on="0"/>
        <pt x="245" y="548" on="0"/>
        <pt x="245" y="533" on="1"/>
        <pt x="245" y="518" on="0"/>
        <pt x="224" y="496" on="0"/>
        <pt x="209" y="496" on="1"/>
        <pt x="193" y="496" on="0"/>
        <pt x="172" y="518" on="0"/>
      </contour>
    </TTGlyph>
    <TTGlyph name="dotlessi" xMin="55" yMin="0" xMax="107" yMax="432">
      <contour>
        <pt x="55" y="0" on="1"/>
        <pt x="55" y="432" on="1"/>
        <pt x="107" y="432" on="1"/>
        <pt x="107" y="0" on="1"/>
      </contour>
    </TTGlyph>
    <TTGlyph name="e" xMin="32" yMin="-9" xMax="335" yMax="442">
      <contour>
        <pt x="335" y="233" on="1"/>
        <pt x="335" y="224" on="0"/>
        <pt x="335" y="209" on="0"/>
        <pt x="333" y="201" on="1"/>
        <pt x="84" y="201" on="1"/>
        <pt x="85" y="128" on="0"/>
        <pt x="148" y="36" on="0"/>
        <pt x="213" y="36" on="1"/>
        <pt x="236" y="36" on="0"/>
        <pt x="282" y="50" on="0"/>
        <pt x="306" y="62" on="1"/>
        <pt x="320" y="20" on="1"/>
        <pt x="294" y="7" on="0"/>
        <pt x="237" y="-9" on="0"/>
        <pt x="208" y="-9" on="1"/>
        <pt x="123" y="-9" on="0"/>
        <pt x="32" y="109" on="0"/>
        <pt x="32" y="215" on="1"/>
        <pt x="32" y="263" on="0"/>
        <pt x="54" y="346" on="0"/>
        <pt x="96" y="407" on="0"/>
        <pt x="155" y="442" on="0"/>
        <pt x="191" y="442" on="1"/>
        <pt x="225" y="442" on="0"/>
        <pt x="279" y="410" on="0"/>
        <pt x="316" y="355" on="0"/>
        <pt x="335" y="278" on="0"/>
      </contour>
      <contour>
        <pt x="286" y="242" on="1"/>
        <pt x="285" y="275" on="0"/>
        <pt x="272" y="331" on="0"/>
        <pt x="248" y="373" on="0"/>
        <pt x="213" y="397" on="0"/>
        <pt x="189" y="397" on="1"/>
        <pt x="144" y="397" on="0"/>
        <pt x="90" y="314" on="0"/>
        <pt x="85" y="242" on="1"/>
      </contour>
    </TTGlyph>
    <TTGlyph name="eacute" xMin="32" yMin="-9" xMax="335" yMax="615">
      <component glyphName="acute" x="33" y="0" flags="0x4"/>
      <component glyphName="e" x="0" y="0" flags="0x4"/>
    </TTGlyph>
    <TTGlyph name="ebreve" xMin="32" yMin="-9" xMax="335" yMax="595">
      <component glyphName="e" x="0" y="0" flags="0x204"/>
      <component glyphName="breve" x="-18" y="0" flags="0x4"/>
    </TTGlyph>
    <TTGlyph name="ecaron" xMin="32" yMin="-9" xMax="335" yMax="610">
      <component glyphName="caron" x="-18" y="0" flags="0x4"/>
      <component glyphName="e" x="0" y="0" flags="0x4"/>
    </TTGlyph>
    <TTGlyph name="ecircumflex" xMin="32" yMin="-9" xMax="335" yMax="613">
      <component glyphName="circumflex" x="-20" y="0" flags="0x4"/>
      <component glyphName="e" x="0" y="0" flags="0x4"/>
    </TTGlyph>
    <TTGlyph name="edieresis" xMin="32" yMin="-9" xMax="335" yMax="570">
      <component glyphName="dieresis" x="-18" y="0" flags="0x4"/>
      <component glyphName="e" x="0" y="0" flags="0x4"/>
    </TTGlyph>
    <TTGlyph name="edotaccent" xMin="32" yMin="-9" xMax="335" yMax="570">
      <component glyphName="e" x="0" y="0" flags="0x204"/>
      <component glyphName="dotaccent" x="-18" y="0" flags="0x4"/>
    </TTGlyph>
    <TTGlyph name="egrave" xMin="32" yMin="-9" xMax="335" yMax="615">
      <component glyphName="e" x="0" y="0" flags="0x204"/>
      <component glyphName="grave" x="-76" y="0" flags="0x4"/>
    </TTGlyph>
    <TTGlyph name="eight" xMin="42" yMin="-9" xMax="353" yMax="668">
      <contour>
        <pt x="353" y="171" on="1"/>
        <pt x="353" y="132" on="0"/>
        <pt x="330" y="66" on="0"/>
        <pt x="288" y="18" on="0"/>
        <pt x="231" y="-9" on="0"/>
        <pt x="197" y="-9" on="1"/>
        <pt x="163" y="-9" on="0"/>
        <pt x="106" y="18" on="0"/>
        <pt x="65" y="66" on="0"/>
        <pt x="42" y="132" on="0"/>
        <pt x="42" y="171" on="1"/>
        <pt x="42" y="196" on="0"/>
        <pt x="54" y="246" on="0"/>
        <pt x="76" y="291" on="0"/>
        <pt x="110" y="326" on="0"/>
        <pt x="132" y="336" on="1"/>
        <pt x="93" y="359" on="0"/>
        <pt x="51" y="442" on="0"/>
        <pt x="51" y="493" on="1"/>
        <pt x="51" y="531" on="0"/>
        <pt x="72" y="595" on="0"/>
        <pt x="111" y="642" on="0"/>
        <pt x="165" y="668" on="0"/>
        <pt x="197" y="668" on="1"/>
        <pt x="229" y="668" on="0"/>
        <pt x="283" y="642" on="0"/>
        <pt x="322" y="595" on="0"/>
        <pt x="344" y="531" on="0"/>
        <pt x="344" y="493" on="1"/>
        <pt x="344" y="442" on="0"/>
        <pt x="301" y="359" on="0"/>
        <pt x="263" y="337" on="1"/>
        <pt x="285" y="326" on="0"/>
        <pt x="319" y="291" on="0"/>
        <pt x="341" y="246" on="0"/>
        <pt x="353" y="196" on="0"/>
      </contour>
      <contour>
        <pt x="293" y="492" on="1"/>
        <pt x="293" y="549" on="0"/>
        <pt x="242" y="622" on="0"/>
        <pt x="197" y="622" on="1"/>
        <pt x="153" y="622" on="0"/>
        <pt x="101" y="549" on="0"/>
        <pt x="101" y="492" on="1"/>
        <pt x="101" y="463" on="0"/>
        <pt x="115" y="414" on="0"/>
        <pt x="140" y="378" on="0"/>
        <pt x="176" y="357" on="0"/>
        <pt x="197" y="357" on="1"/>
        <pt x="219" y="357" on="0"/>
        <pt x="254" y="378" on="0"/>
        <pt x="279" y="414" on="0"/>
        <pt x="293" y="463" on="0"/>
      </contour>
      <contour>
        <pt x="302" y="172" on="1"/>
        <pt x="302" y="202" on="0"/>
        <pt x="287" y="254" on="0"/>
        <pt x="259" y="291" on="0"/>
        <pt x="220" y="313" on="0"/>
        <pt x="197" y="313" on="1"/>
        <pt x="174" y="313" on="0"/>
        <pt x="135" y="291" on="0"/>
        <pt x="108" y="254" on="0"/>
        <pt x="93" y="202" on="0"/>
        <pt x="93" y="172" on="1"/>
        <pt x="93" y="143" on="0"/>
        <pt x="108" y="94" on="0"/>
        <pt x="136" y="57" on="0"/>
        <pt x="174" y="36" on="0"/>
        <pt x="197" y="36" on="1"/>
        <pt x="220" y="36" on="0"/>
        <pt x="258" y="57" on="0"/>
        <pt x="286" y="94" on="0"/>
        <pt x="302" y="144" on="0"/>
      </contour>
    </TTGlyph>
    <TTGlyph name="eight.lin" xMin="43" yMin="-10" xMax="394" yMax="736">
      <contour>
        <pt x="394" y="188" on="1"/>
        <pt x="394" y="145" on="0"/>
        <pt x="368" y="73" on="0"/>
        <pt x="321" y="20" on="0"/>
        <pt x="257" y="-10" on="0"/>
        <pt x="219" y="-10" on="1"/>
        <pt x="181" y="-10" on="0"/>
        <pt x="116" y="20" on="0"/>
        <pt x="69" y="73" on="0"/>
        <pt x="43" y="145" on="0"/>
        <pt x="43" y="188" on="1"/>
        <pt x="43" y="245" on="0"/>
        <pt x="95" y="346" on="0"/>
        <pt x="146" y="369" on="1"/>
        <pt x="101" y="393" on="0"/>
        <pt x="54" y="487" on="0"/>
        <pt x="54" y="543" on="1"/>
        <pt x="54" y="585" on="0"/>
        <pt x="78" y="655" on="0"/>
        <pt x="122" y="707" on="0"/>
        <pt x="183" y="736" on="0"/>
        <pt x="219" y="736" on="1"/>
        <pt x="255" y="736" on="0"/>
        <pt x="316" y="707" on="0"/>
        <pt x="360" y="656" on="0"/>
        <pt x="384" y="585" on="0"/>
        <pt x="384" y="543" on="1"/>
        <pt x="384" y="487" on="0"/>
        <pt x="336" y="394" on="0"/>
        <pt x="292" y="370" on="1"/>
        <pt x="342" y="347" on="0"/>
        <pt x="394" y="244" on="0"/>
      </contour>
      <contour>
        <pt x="333" y="542" on="1"/>
        <pt x="333" y="607" on="0"/>
        <pt x="271" y="690" on="0"/>
        <pt x="219" y="690" on="1"/>
        <pt x="166" y="690" on="0"/>
        <pt x="105" y="607" on="0"/>
        <pt x="105" y="542" on="1"/>
        <pt x="105" y="510" on="0"/>
        <pt x="121" y="454" on="0"/>
        <pt x="151" y="414" on="0"/>
        <pt x="193" y="391" on="0"/>
        <pt x="219" y="391" on="1"/>
        <pt x="245" y="391" on="0"/>
        <pt x="287" y="414" on="0"/>
        <pt x="317" y="454" on="0"/>
        <pt x="333" y="510" on="0"/>
      </contour>
      <contour>
        <pt x="342" y="190" on="1"/>
        <pt x="342" y="224" on="0"/>
        <pt x="324" y="281" on="0"/>
        <pt x="291" y="323" on="0"/>
        <pt x="245" y="347" on="0"/>
        <pt x="218" y="347" on="1"/>
        <pt x="191" y="347" on="0"/>
        <pt x="146" y="323" on="0"/>
        <pt x="114" y="281" on="0"/>
        <pt x="96" y="224" on="0"/>
        <pt x="96" y="190" on="1"/>
        <pt x="96" y="158" on="0"/>
        <pt x="114" y="102" on="0"/>
        <pt x="147" y="61" on="0"/>
        <pt x="192" y="37" on="0"/>
        <pt x="219" y="37" on="1"/>
        <pt x="246" y="37" on="0"/>
        <pt x="291" y="61" on="0"/>
        <pt x="324" y="102" on="0"/>
        <pt x="342" y="158" on="0"/>
      </contour>
    </TTGlyph>
    <TTGlyph name="ellipsis" xMin="44" yMin="-9" xMax="460" yMax="72">
      <contour>
        <pt x="44" y="32" on="1"/>
        <pt x="44" y="49" on="0"/>
        <pt x="67" y="72" on="0"/>
        <pt x="84" y="72" on="1"/>
        <pt x="101" y="72" on="0"/>
        <pt x="124" y="49" on="0"/>
        <pt x="124" y="32" on="1"/>
        <pt x="124" y="15" on="0"/>
        <pt x="101" y="-9" on="0"/>
        <pt x="84" y="-9" on="1"/>
        <pt x="67" y="-9" on="0"/>
        <pt x="44" y="15" on="0"/>
      </contour>
      <contour>
        <pt x="212" y="32" on="1"/>
        <pt x="212" y="49" on="0"/>
        <pt x="235" y="72" on="0"/>
        <pt x="252" y="72" on="1"/>
        <pt x="269" y="72" on="0"/>
        <pt x="292" y="49" on="0"/>
        <pt x="292" y="32" on="1"/>
        <pt x="292" y="15" on="0"/>
        <pt x="269" y="-9" on="0"/>
        <pt x="252" y="-9" on="1"/>
        <pt x="235" y="-9" on="0"/>
        <pt x="212" y="15" on="0"/>
      </contour>
      <contour>
        <pt x="380" y="32" on="1"/>
        <pt x="380" y="49" on="0"/>
        <pt x="403" y="72" on="0"/>
        <pt x="420" y="72" on="1"/>
        <pt x="437" y="72" on="0"/>
        <pt x="460" y="49" on="0"/>
        <pt x="460" y="32" on="1"/>
        <pt x="460" y="15" on="0"/>
        <pt x="437" y="-9" on="0"/>
        <pt x="420" y="-9" on="1"/>
        <pt x="403" y="-9" on="0"/>
        <pt x="380" y="15" on="0"/>
      </contour>
    </TTGlyph>
    <TTGlyph name="emacron" xMin="32" yMin="-9" xMax="335" yMax="547">
      <component glyphName="e" x="0" y="0" flags="0x204"/>
      <component glyphName="macron" x="-18" y="0" flags="0x4"/>
    </TTGlyph>
    <TTGlyph name="emdash" xMin="40" yMin="233" xMax="531" yMax="280">
      <contour>
        <pt x="40" y="233" on="1"/>
        <pt x="40" y="280" on="1"/>
        <pt x="531" y="280" on="1"/>
        <pt x="531" y="233" on="1"/>
      </contour>
    </TTGlyph>
    <TTGlyph name="emdash.cap" xMin="40" yMin="347" xMax="531" yMax="394">
      <component glyphName="emdash" x="0" y="114" flags="0x204"/>
    </TTGlyph>
    <TTGlyph name="endash" xMin="40" yMin="233" xMax="342" yMax="280">
      <contour>
        <pt x="40" y="233" on="1"/>
        <pt x="40" y="280" on="1"/>
        <pt x="342" y="280" on="1"/>
        <pt x="342" y="233" on="1"/>
      </contour>
    </TTGlyph>
    <TTGlyph name="endash.cap" xMin="40" yMin="347" xMax="342" yMax="394">
      <component glyphName="endash" x="0" y="114" flags="0x204"/>
    </TTGlyph>
    <TTGlyph name="eogonek" xMin="32" yMin="-202" xMax="335" yMax="442">
      <contour>
        <pt x="335" y="233" on="1"/>
        <pt x="335" y="224" on="0"/>
        <pt x="335" y="209" on="0"/>
        <pt x="333" y="201" on="1"/>
        <pt x="84" y="201" on="1"/>
        <pt x="85" y="128" on="0"/>
        <pt x="148" y="36" on="0"/>
        <pt x="213" y="36" on="1"/>
        <pt x="236" y="36" on="0"/>
        <pt x="282" y="50" on="0"/>
        <pt x="306" y="62" on="1"/>
        <pt x="320" y="21" on="1"/>
        <pt x="282" y="-15" on="0"/>
        <pt x="236" y="-92" on="0"/>
        <pt x="236" y="-123" on="1"/>
        <pt x="236" y="-143" on="0"/>
        <pt x="254" y="-164" on="0"/>
        <pt x="268" y="-164" on="1"/>
        <pt x="290" y="-164" on="0"/>
        <pt x="309" y="-142" on="1"/>
        <pt x="327" y="-166" on="1"/>
        <pt x="315" y="-182" on="0"/>
        <pt x="282" y="-201" on="0"/>
        <pt x="260" y="-201" on="1"/>
        <pt x="230" y="-202" on="0"/>
        <pt x="194" y="-162" on="0"/>
        <pt x="194" y="-130" on="1"/>
        <pt x="194" y="-71" on="0"/>
        <pt x="256" y="-3" on="1"/>
        <pt x="232" y="-9" on="0"/>
        <pt x="208" y="-9" on="1"/>
        <pt x="123" y="-9" on="0"/>
        <pt x="32" y="109" on="0"/>
        <pt x="32" y="215" on="1"/>
        <pt x="32" y="263" on="0"/>
        <pt x="54" y="346" on="0"/>
        <pt x="96" y="407" on="0"/>
        <pt x="155" y="442" on="0"/>
        <pt x="191" y="442" on="1"/>
        <pt x="225" y="442" on="0"/>
        <pt x="279" y="410" on="0"/>
        <pt x="316" y="355" on="0"/>
        <pt x="335" y="278" on="0"/>
      </contour>
      <contour>
        <pt x="286" y="242" on="1"/>
        <pt x="285" y="275" on="0"/>
        <pt x="272" y="331" on="0"/>
        <pt x="248" y="373" on="0"/>
        <pt x="213" y="397" on="0"/>
        <pt x="189" y="397" on="1"/>
        <pt x="144" y="397" on="0"/>
        <pt x="90" y="314" on="0"/>
        <pt x="85" y="242" on="1"/>
      </contour>
    </TTGlyph>
    <TTGlyph name="equal" xMin="45" yMin="243" xMax="268" yMax="421">
      <contour>
        <pt x="45" y="375" on="1"/>
        <pt x="45" y="421" on="1"/>
        <pt x="268" y="421" on="1"/>
        <pt x="268" y="375" on="1"/>
      </contour>
      <contour>
        <pt x="45" y="243" on="1"/>
        <pt x="45" y="289" on="1"/>
        <pt x="268" y="289" on="1"/>
        <pt x="268" y="243" on="1"/>
      </contour>
    </TTGlyph>
    <TTGlyph name="equal.lin" xMin="45" yMin="282" xMax="268" yMax="460">
      <component glyphName="equal" x="0" y="39" flags="0x204"/>
    </TTGlyph>
    <TTGlyph name="eth" xMin="33" yMin="-9" xMax="363" yMax="734">
      <contour>
        <pt x="78" y="574" on="1"/>
        <pt x="148" y="634" on="1"/>
        <pt x="112" y="668" on="0"/>
        <pt x="70" y="698" on="1"/>
        <pt x="98" y="734" on="1"/>
        <pt x="120" y="718" on="0"/>
        <pt x="163" y="684" on="0"/>
        <pt x="183" y="665" on="1"/>
        <pt x="248" y="721" on="1"/>
        <pt x="275" y="688" on="1"/>
        <pt x="213" y="634" on="1"/>
        <pt x="279" y="561" on="0"/>
        <pt x="363" y="363" on="0"/>
        <pt x="363" y="231" on="1"/>
        <pt x="363" y="176" on="0"/>
        <pt x="339" y="88" on="0"/>
        <pt x="295" y="25" on="0"/>
        <pt x="234" y="-9" on="0"/>
        <pt x="197" y="-9" on="1"/>
        <pt x="158" y="-9" on="0"/>
        <pt x="97" y="24" on="0"/>
        <pt x="55" y="84" on="0"/>
        <pt x="33" y="168" on="0"/>
        <pt x="33" y="219" on="1"/>
        <pt x="33" y="267" on="0"/>
        <pt x="55" y="349" on="0"/>
        <pt x="96" y="408" on="0"/>
        <pt x="151" y="442" on="0"/>
        <pt x="184" y="442" on="1"/>
        <pt x="222" y="442" on="0"/>
        <pt x="282" y="400" on="0"/>
        <pt x="304" y="363" on="1"/>
        <pt x="289" y="432" on="0"/>
        <pt x="223" y="553" on="0"/>
        <pt x="178" y="604" on="1"/>
        <pt x="106" y="542" on="1"/>
      </contour>
      <contour>
        <pt x="311" y="217" on="1"/>
        <pt x="311" y="255" on="0"/>
        <pt x="294" y="321" on="0"/>
        <pt x="263" y="369" on="0"/>
        <pt x="219" y="397" on="0"/>
        <pt x="191" y="397" on="1"/>
        <pt x="166" y="397" on="0"/>
        <pt x="126" y="369" on="0"/>
        <pt x="99" y="320" on="0"/>
        <pt x="84" y="255" on="0"/>
        <pt x="84" y="218" on="1"/>
        <pt x="84" y="180" on="0"/>
        <pt x="99" y="113" on="0"/>
        <pt x="128" y="63" on="0"/>
        <pt x="170" y="35" on="0"/>
        <pt x="197" y="35" on="1"/>
        <pt x="224" y="35" on="0"/>
        <pt x="266" y="64" on="0"/>
        <pt x="296" y="114" on="0"/>
        <pt x="311" y="180" on="0"/>
      </contour>
    </TTGlyph>
    <TTGlyph name="exclam" xMin="44" yMin="-9" xMax="124" yMax="733">
      <contour>
        <pt x="102" y="182" on="1"/>
        <pt x="65" y="182" on="1"/>
        <pt x="55" y="733" on="1"/>
        <pt x="112" y="733" on="1"/>
      </contour>
      <contour>
        <pt x="124" y="32" on="1"/>
        <pt x="124" y="15" on="0"/>
        <pt x="101" y="-9" on="0"/>
        <pt x="84" y="-9" on="1"/>
        <pt x="67" y="-9" on="0"/>
        <pt x="44" y="15" on="0"/>
        <pt x="44" y="32" on="1"/>
        <pt x="44" y="49" on="0"/>
        <pt x="67" y="72" on="0"/>
        <pt x="84" y="72" on="1"/>
        <pt x="101" y="72" on="0"/>
        <pt x="124" y="49" on="0"/>
      </contour>
    </TTGlyph>
    <TTGlyph name="exclamdown" xMin="43" yMin="0" xMax="123" yMax="742">
      <contour>
        <pt x="43" y="701" on="1"/>
        <pt x="43" y="718" on="0"/>
        <pt x="67" y="742" on="0"/>
        <pt x="84" y="742" on="1"/>
        <pt x="101" y="742" on="0"/>
        <pt x="123" y="718" on="0"/>
        <pt x="123" y="701" on="1"/>
        <pt x="123" y="685" on="0"/>
        <pt x="101" y="661" on="0"/>
        <pt x="84" y="661" on="1"/>
        <pt x="67" y="661" on="0"/>
        <pt x="43" y="685" on="0"/>
      </contour>
      <contour>
        <pt x="65" y="551" on="1"/>
        <pt x="102" y="551" on="1"/>
        <pt x="112" y="0" on="1"/>
        <pt x="55" y="0" on="1"/>
      </contour>
    </TTGlyph>
    <TTGlyph name="f" xMin="13" yMin="0" xMax="250" yMax="740">
      <contour>
        <pt x="242" y="686" on="1"/>
        <pt x="233" y="689" on="0"/>
        <pt x="209" y="692" on="0"/>
        <pt x="199" y="692" on="1"/>
        <pt x="163" y="692" on="0"/>
        <pt x="126" y="648" on="0"/>
        <pt x="126" y="592" on="1"/>
        <pt x="126" y="432" on="1"/>
        <pt x="223" y="432" on="1"/>
        <pt x="223" y="386" on="1"/>
        <pt x="126" y="386" on="1"/>
        <pt x="126" y="0" on="1"/>
        <pt x="75" y="0" on="1"/>
        <pt x="75" y="386" on="1"/>
        <pt x="13" y="386" on="1"/>
        <pt x="13" y="400" on="1"/>
        <pt x="75" y="436" on="1"/>
        <pt x="75" y="587" on="1"/>
        <pt x="75" y="666" on="0"/>
        <pt x="139" y="740" on="0"/>
        <pt x="196" y="740" on="1"/>
        <pt x="228" y="740" on="0"/>
        <pt x="250" y="732" on="1"/>
      </contour>
    </TTGlyph>
    <TTGlyph name="f_f" xMin="13" yMin="0" xMax="478" yMax="740">
      <contour>
        <pt x="242" y="686" on="1"/>
        <pt x="233" y="689" on="0"/>
        <pt x="209" y="692" on="0"/>
        <pt x="199" y="692" on="1"/>
        <pt x="163" y="692" on="0"/>
        <pt x="126" y="648" on="0"/>
        <pt x="126" y="592" on="1"/>
        <pt x="126" y="432" on="1"/>
        <pt x="223" y="432" on="1"/>
        <pt x="223" y="386" on="1"/>
        <pt x="126" y="386" on="1"/>
        <pt x="126" y="0" on="1"/>
        <pt x="75" y="0" on="1"/>
        <pt x="75" y="386" on="1"/>
        <pt x="13" y="386" on="1"/>
        <pt x="13" y="400" on="1"/>
        <pt x="75" y="436" on="1"/>
        <pt x="75" y="587" on="1"/>
        <pt x="75" y="666" on="0"/>
        <pt x="139" y="740" on="0"/>
        <pt x="196" y="740" on="1"/>
        <pt x="228" y="740" on="0"/>
        <pt x="250" y="732" on="1"/>
      </contour>
      <contour>
        <pt x="470" y="686" on="1"/>
        <pt x="461" y="689" on="0"/>
        <pt x="437" y="692" on="0"/>
        <pt x="427" y="692" on="1"/>
        <pt x="391" y="692" on="0"/>
        <pt x="354" y="648" on="0"/>
        <pt x="354" y="592" on="1"/>
        <pt x="354" y="432" on="1"/>
        <pt x="450" y="432" on="1"/>
        <pt x="450" y="386" on="1"/>
        <pt x="354" y="386" on="1"/>
        <pt x="354" y="0" on="1"/>
        <pt x="303" y="0" on="1"/>
        <pt x="303" y="386" on="1"/>
        <pt x="241" y="386" on="1"/>
        <pt x="241" y="400" on="1"/>
        <pt x="303" y="436" on="1"/>
        <pt x="303" y="587" on="1"/>
        <pt x="303" y="666" on="0"/>
        <pt x="366" y="740" on="0"/>
        <pt x="423" y="740" on="1"/>
        <pt x="456" y="740" on="0"/>
        <pt x="478" y="732" on="1"/>
      </contour>
    </TTGlyph>
    <TTGlyph name="f_f_i" xMin="13" yMin="0" xMax="574" yMax="740">
      <contour>
        <pt x="242" y="686" on="1"/>
        <pt x="233" y="689" on="0"/>
        <pt x="209" y="692" on="0"/>
        <pt x="199" y="692" on="1"/>
        <pt x="163" y="692" on="0"/>
        <pt x="126" y="648" on="0"/>
        <pt x="126" y="592" on="1"/>
        <pt x="126" y="432" on="1"/>
        <pt x="223" y="432" on="1"/>
        <pt x="223" y="386" on="1"/>
        <pt x="126" y="386" on="1"/>
        <pt x="126" y="0" on="1"/>
        <pt x="75" y="0" on="1"/>
        <pt x="75" y="386" on="1"/>
        <pt x="13" y="386" on="1"/>
        <pt x="13" y="400" on="1"/>
        <pt x="75" y="436" on="1"/>
        <pt x="75" y="587" on="1"/>
        <pt x="75" y="666" on="0"/>
        <pt x="139" y="740" on="0"/>
        <pt x="196" y="740" on="1"/>
        <pt x="228" y="740" on="0"/>
        <pt x="250" y="732" on="1"/>
      </contour>
      <contour>
        <pt x="470" y="686" on="1"/>
        <pt x="461" y="689" on="0"/>
        <pt x="437" y="692" on="0"/>
        <pt x="427" y="692" on="1"/>
        <pt x="391" y="692" on="0"/>
        <pt x="354" y="648" on="0"/>
        <pt x="354" y="592" on="1"/>
        <pt x="354" y="432" on="1"/>
        <pt x="450" y="432" on="1"/>
        <pt x="450" y="386" on="1"/>
        <pt x="354" y="386" on="1"/>
        <pt x="354" y="0" on="1"/>
        <pt x="303" y="0" on="1"/>
        <pt x="303" y="386" on="1"/>
        <pt x="241" y="386" on="1"/>
        <pt x="241" y="400" on="1"/>
        <pt x="303" y="436" on="1"/>
        <pt x="303" y="587" on="1"/>
        <pt x="303" y="666" on="0"/>
        <pt x="366" y="740" on="0"/>
        <pt x="423" y="740" on="1"/>
        <pt x="456" y="740" on="0"/>
        <pt x="478" y="732" on="1"/>
      </contour>
      <contour>
        <pt x="574" y="576" on="1"/>
        <pt x="574" y="561" on="0"/>
        <pt x="553" y="538" on="0"/>
        <pt x="537" y="538" on="1"/>
        <pt x="521" y="538" on="0"/>
        <pt x="500" y="561" on="0"/>
        <pt x="500" y="576" on="1"/>
        <pt x="500" y="592" on="0"/>
        <pt x="521" y="615" on="0"/>
        <pt x="537" y="615" on="1"/>
        <pt x="553" y="615" on="0"/>
        <pt x="574" y="592" on="0"/>
      </contour>
      <contour>
        <pt x="511" y="0" on="1"/>
        <pt x="511" y="432" on="1"/>
        <pt x="563" y="432" on="1"/>
        <pt x="563" y="0" on="1"/>
      </contour>
    </TTGlyph>
    <TTGlyph name="f_f_l" xMin="13" yMin="0" xMax="563" yMax="740">
      <contour>
        <pt x="242" y="686" on="1"/>
        <pt x="233" y="689" on="0"/>
        <pt x="209" y="692" on="0"/>
        <pt x="199" y="692" on="1"/>
        <pt x="163" y="692" on="0"/>
        <pt x="126" y="648" on="0"/>
        <pt x="126" y="592" on="1"/>
        <pt x="126" y="432" on="1"/>
        <pt x="223" y="432" on="1"/>
        <pt x="223" y="386" on="1"/>
        <pt x="126" y="386" on="1"/>
        <pt x="126" y="0" on="1"/>
        <pt x="75" y="0" on="1"/>
        <pt x="75" y="386" on="1"/>
        <pt x="13" y="386" on="1"/>
        <pt x="13" y="400" on="1"/>
        <pt x="75" y="436" on="1"/>
        <pt x="75" y="587" on="1"/>
        <pt x="75" y="666" on="0"/>
        <pt x="139" y="740" on="0"/>
        <pt x="196" y="740" on="1"/>
        <pt x="228" y="740" on="0"/>
        <pt x="250" y="732" on="1"/>
      </contour>
      <contour>
        <pt x="470" y="686" on="1"/>
        <pt x="461" y="689" on="0"/>
        <pt x="437" y="692" on="0"/>
        <pt x="427" y="692" on="1"/>
        <pt x="391" y="692" on="0"/>
        <pt x="354" y="648" on="0"/>
        <pt x="354" y="592" on="1"/>
        <pt x="354" y="432" on="1"/>
        <pt x="450" y="432" on="1"/>
        <pt x="450" y="386" on="1"/>
        <pt x="354" y="386" on="1"/>
        <pt x="354" y="0" on="1"/>
        <pt x="303" y="0" on="1"/>
        <pt x="303" y="386" on="1"/>
        <pt x="241" y="386" on="1"/>
        <pt x="241" y="400" on="1"/>
        <pt x="303" y="436" on="1"/>
        <pt x="303" y="587" on="1"/>
        <pt x="303" y="666" on="0"/>
        <pt x="366" y="740" on="0"/>
        <pt x="423" y="740" on="1"/>
        <pt x="456" y="740" on="0"/>
        <pt x="478" y="732" on="1"/>
      </contour>
      <contour>
        <pt x="511" y="0" on="1"/>
        <pt x="511" y="733" on="1"/>
        <pt x="563" y="733" on="1"/>
        <pt x="563" y="0" on="1"/>
      </contour>
    </TTGlyph>
    <TTGlyph name="fi" xMin="13" yMin="0" xMax="346" yMax="740">
      <contour>
        <pt x="346" y="576" on="1"/>
        <pt x="346" y="561" on="0"/>
        <pt x="325" y="538" on="0"/>
        <pt x="309" y="538" on="1"/>
        <pt x="293" y="538" on="0"/>
        <pt x="272" y="561" on="0"/>
        <pt x="272" y="576" on="1"/>
        <pt x="272" y="592" on="0"/>
        <pt x="293" y="615" on="0"/>
        <pt x="309" y="615" on="1"/>
        <pt x="325" y="615" on="0"/>
        <pt x="346" y="592" on="0"/>
      </contour>
      <contour>
        <pt x="242" y="686" on="1"/>
        <pt x="233" y="689" on="0"/>
        <pt x="209" y="692" on="0"/>
        <pt x="199" y="692" on="1"/>
        <pt x="163" y="692" on="0"/>
        <pt x="126" y="648" on="0"/>
        <pt x="126" y="592" on="1"/>
        <pt x="126" y="432" on="1"/>
        <pt x="223" y="432" on="1"/>
        <pt x="223" y="386" on="1"/>
        <pt x="126" y="386" on="1"/>
        <pt x="126" y="0" on="1"/>
        <pt x="75" y="0" on="1"/>
        <pt x="75" y="386" on="1"/>
        <pt x="13" y="386" on="1"/>
        <pt x="13" y="400" on="1"/>
        <pt x="75" y="436" on="1"/>
        <pt x="75" y="587" on="1"/>
        <pt x="75" y="666" on="0"/>
        <pt x="139" y="740" on="0"/>
        <pt x="196" y="740" on="1"/>
        <pt x="228" y="740" on="0"/>
        <pt x="250" y="732" on="1"/>
      </contour>
      <contour>
        <pt x="283" y="0" on="1"/>
        <pt x="283" y="432" on="1"/>
        <pt x="335" y="432" on="1"/>
        <pt x="335" y="0" on="1"/>
      </contour>
    </TTGlyph>
    <TTGlyph name="five" xMin="40" yMin="-9" xMax="339" yMax="659">
      <contour>
        <pt x="339" y="203" on="1"/>
        <pt x="339" y="156" on="0"/>
        <pt x="314" y="79" on="0"/>
        <pt x="269" y="22" on="0"/>
        <pt x="203" y="-9" on="0"/>
        <pt x="163" y="-9" on="1"/>
        <pt x="129" y="-9" on="0"/>
        <pt x="70" y="6" on="0"/>
        <pt x="40" y="20" on="1"/>
        <pt x="58" y="65" on="1"/>
        <pt x="83" y="53" on="0"/>
        <pt x="134" y="38" on="0"/>
        <pt x="162" y="38" on="1"/>
        <pt x="219" y="38" on="0"/>
        <pt x="287" y="124" on="0"/>
        <pt x="287" y="200" on="1"/>
        <pt x="287" y="272" on="0"/>
        <pt x="219" y="348" on="0"/>
        <pt x="156" y="348" on="1"/>
        <pt x="130" y="348" on="0"/>
        <pt x="88" y="341" on="0"/>
        <pt x="70" y="335" on="1"/>
        <pt x="64" y="341" on="1"/>
        <pt x="64" y="659" on="1"/>
        <pt x="320" y="659" on="1"/>
        <pt x="320" y="611" on="1"/>
        <pt x="114" y="611" on="1"/>
        <pt x="114" y="391" on="1"/>
        <pt x="125" y="393" on="0"/>
        <pt x="149" y="395" on="0"/>
        <pt x="164" y="395" on="1"/>
        <pt x="247" y="395" on="0"/>
        <pt x="339" y="291" on="0"/>
      </contour>
    </TTGlyph>
    <TTGlyph name="five.lin" xMin="43" yMin="-10" xMax="379" yMax="726">
      <contour>
        <pt x="379" y="221" on="1"/>
        <pt x="379" y="170" on="0"/>
        <pt x="351" y="86" on="0"/>
        <pt x="299" y="24" on="0"/>
        <pt x="226" y="-10" on="0"/>
        <pt x="181" y="-10" on="1"/>
        <pt x="143" y="-10" on="0"/>
        <pt x="76" y="7" on="0"/>
        <pt x="43" y="22" on="1"/>
        <pt x="63" y="68" on="1"/>
        <pt x="90" y="54" on="0"/>
        <pt x="147" y="38" on="0"/>
        <pt x="179" y="38" on="1"/>
        <pt x="245" y="38" on="0"/>
        <pt x="326" y="134" on="0"/>
        <pt x="326" y="218" on="1"/>
        <pt x="326" y="296" on="0"/>
        <pt x="245" y="385" on="0"/>
        <pt x="173" y="385" on="1"/>
        <pt x="144" y="385" on="0"/>
        <pt x="94" y="376" on="0"/>
        <pt x="76" y="371" on="1"/>
        <pt x="70" y="378" on="1"/>
        <pt x="70" y="726" on="1"/>
        <pt x="357" y="726" on="1"/>
        <pt x="357" y="678" on="1"/>
        <pt x="121" y="678" on="1"/>
        <pt x="121" y="426" on="1"/>
        <pt x="146" y="432" on="0"/>
        <pt x="182" y="432" on="1"/>
        <pt x="228" y="432" on="0"/>
        <pt x="301" y="402" on="0"/>
        <pt x="352" y="346" on="0"/>
        <pt x="379" y="269" on="0"/>
      </contour>
    </TTGlyph>
    <TTGlyph name="fl" xMin="13" yMin="0" xMax="335" yMax="740">
      <contour>
        <pt x="242" y="686" on="1"/>
        <pt x="233" y="689" on="0"/>
        <pt x="209" y="692" on="0"/>
        <pt x="199" y="692" on="1"/>
        <pt x="163" y="692" on="0"/>
        <pt x="126" y="648" on="0"/>
        <pt x="126" y="592" on="1"/>
        <pt x="126" y="432" on="1"/>
        <pt x="223" y="432" on="1"/>
        <pt x="223" y="386" on="1"/>
        <pt x="126" y="386" on="1"/>
        <pt x="126" y="0" on="1"/>
        <pt x="75" y="0" on="1"/>
        <pt x="75" y="386" on="1"/>
        <pt x="13" y="386" on="1"/>
        <pt x="13" y="400" on="1"/>
        <pt x="75" y="436" on="1"/>
        <pt x="75" y="587" on="1"/>
        <pt x="75" y="666" on="0"/>
        <pt x="139" y="740" on="0"/>
        <pt x="196" y="740" on="1"/>
        <pt x="228" y="740" on="0"/>
        <pt x="250" y="732" on="1"/>
      </contour>
      <contour>
        <pt x="283" y="0" on="1"/>
        <pt x="283" y="733" on="1"/>
        <pt x="335" y="733" on="1"/>
        <pt x="335" y="0" on="1"/>
      </contour>
    </TTGlyph>
    <TTGlyph name="florin" xMin="40" yMin="0" xMax="306" yMax="668">
      <contour>
        <pt x="295" y="614" on="1"/>
        <pt x="287" y="616" on="0"/>
        <pt x="265" y="620" on="0"/>
        <pt x="254" y="620" on="1"/>
        <pt x="213" y="620" on="0"/>
        <pt x="174" y="571" on="0"/>
        <pt x="168" y="515" on="1"/>
        <pt x="155" y="394" on="1"/>
        <pt x="243" y="394" on="1"/>
        <pt x="242" y="349" on="1"/>
        <pt x="150" y="349" on="1"/>
        <pt x="113" y="0" on="1"/>
        <pt x="62" y="0" on="1"/>
        <pt x="99" y="348" on="1"/>
        <pt x="40" y="348" on="1"/>
        <pt x="42" y="362" on="1"/>
        <pt x="104" y="398" on="1"/>
        <pt x="116" y="512" on="1"/>
        <pt x="124" y="596" on="0"/>
        <pt x="197" y="668" on="0"/>
        <pt x="254" y="668" on="1"/>
        <pt x="270" y="668" on="0"/>
        <pt x="295" y="663" on="0"/>
        <pt x="306" y="660" on="1"/>
      </contour>
    </TTGlyph>
    <TTGlyph name="florin.lin" xMin="50" yMin="0" xMax="347" yMax="736">
      <contour>
        <pt x="335" y="680" on="1"/>
        <pt x="324" y="683" on="0"/>
        <pt x="299" y="688" on="0"/>
        <pt x="287" y="688" on="1"/>
        <pt x="239" y="688" on="0"/>
        <pt x="192" y="627" on="0"/>
        <pt x="184" y="561" on="1"/>
        <pt x="170" y="430" on="1"/>
        <pt x="274" y="430" on="1"/>
        <pt x="273" y="383" on="1"/>
        <pt x="165" y="383" on="1"/>
        <pt x="124" y="0" on="1"/>
        <pt x="72" y="0" on="1"/>
        <pt x="113" y="382" on="1"/>
        <pt x="50" y="382" on="1"/>
        <pt x="51" y="396" on="1"/>
        <pt x="118" y="432" on="1"/>
        <pt x="132" y="561" on="1"/>
        <pt x="142" y="654" on="0"/>
        <pt x="224" y="736" on="0"/>
        <pt x="288" y="736" on="1"/>
        <pt x="305" y="736" on="0"/>
        <pt x="336" y="730" on="0"/>
        <pt x="347" y="726" on="1"/>
      </contour>
    </TTGlyph>
    <TTGlyph name="four" xMin="11" yMin="0" xMax="383" yMax="666">
      <contour>
        <pt x="305" y="194" on="1"/>
        <pt x="305" y="0" on="1"/>
        <pt x="256" y="0" on="1"/>
        <pt x="256" y="194" on="1"/>
        <pt x="11" y="194" on="1"/>
        <pt x="11" y="210" on="1"/>
        <pt x="279" y="666" on="1"/>
        <pt x="305" y="666" on="1"/>
        <pt x="305" y="241" on="1"/>
        <pt x="383" y="241" on="1"/>
        <pt x="383" y="194" on="1"/>
      </contour>
      <contour>
        <pt x="256" y="544" on="1"/>
        <pt x="84" y="241" on="1"/>
        <pt x="256" y="241" on="1"/>
      </contour>
    </TTGlyph>
    <TTGlyph name="four.lin" xMin="14" yMin="0" xMax="435" yMax="734">
      <contour>
        <pt x="346" y="215" on="1"/>
        <pt x="346" y="0" on="1"/>
        <pt x="295" y="0" on="1"/>
        <pt x="295" y="215" on="1"/>
        <pt x="14" y="215" on="1"/>
        <pt x="14" y="232" on="1"/>
        <pt x="319" y="734" on="1"/>
        <pt x="346" y="734" on="1"/>
        <pt x="346" y="262" on="1"/>
        <pt x="435" y="262" on="1"/>
        <pt x="435" y="215" on="1"/>
      </contour>
      <contour>
        <pt x="295" y="611" on="1"/>
        <pt x="86" y="262" on="1"/>
        <pt x="295" y="262" on="1"/>
      </contour>
    </TTGlyph>
    <TTGlyph name="fraction" xMin="11" yMin="-12" xMax="461" yMax="683">
      <contour>
        <pt x="45" y="-12" on="1"/>
        <pt x="11" y="10" on="1"/>
        <pt x="427" y="683" on="1"/>
        <pt x="461" y="661" on="1"/>
      </contour>
    </TTGlyph>
    <TTGlyph name="fraction.lin" xMin="12" yMin="-10" xMax="516" yMax="751">
      <contour>
        <pt x="46" y="-10" on="1"/>
        <pt x="12" y="13" on="1"/>
        <pt x="482" y="751" on="1"/>
        <pt x="516" y="728" on="1"/>
      </contour>
    </TTGlyph>
    <TTGlyph name="g" xMin="32" yMin="-207" xMax="348" yMax="440">
      <contour>
        <pt x="348" y="-59" on="1"/>
        <pt x="348" y="-137" on="0"/>
        <pt x="278" y="-207" on="0"/>
        <pt x="212" y="-207" on="1"/>
        <pt x="181" y="-207" on="0"/>
        <pt x="121" y="-193" on="0"/>
        <pt x="93" y="-182" on="1"/>
        <pt x="104" y="-135" on="1"/>
        <pt x="131" y="-146" on="0"/>
        <pt x="185" y="-159" on="0"/>
        <pt x="209" y="-159" on="1"/>
        <pt x="255" y="-159" on="0"/>
        <pt x="297" y="-113" on="0"/>
        <pt x="297" y="-62" on="1"/>
        <pt x="297" y="42" on="1"/>
        <pt x="277" y="22" on="0"/>
        <pt x="223" y="-8" on="0"/>
        <pt x="188" y="-8" on="1"/>
        <pt x="156" y="-8" on="0"/>
        <pt x="99" y="21" on="0"/>
        <pt x="57" y="77" on="0"/>
        <pt x="32" y="158" on="0"/>
        <pt x="32" y="211" on="1"/>
        <pt x="32" y="262" on="0"/>
        <pt x="58" y="347" on="0"/>
        <pt x="103" y="407" on="0"/>
        <pt x="162" y="440" on="0"/>
        <pt x="195" y="440" on="1"/>
        <pt x="227" y="440" on="0"/>
        <pt x="279" y="412" on="0"/>
        <pt x="298" y="391" on="1"/>
        <pt x="298" y="432" on="1"/>
        <pt x="348" y="432" on="1"/>
      </contour>
      <contour>
        <pt x="297" y="343" on="1"/>
        <pt x="279" y="365" on="0"/>
        <pt x="230" y="396" on="0"/>
        <pt x="200" y="396" on="1"/>
        <pt x="175" y="396" on="0"/>
        <pt x="133" y="370" on="0"/>
        <pt x="102" y="322" on="0"/>
        <pt x="84" y="253" on="0"/>
        <pt x="84" y="211" on="1"/>
        <pt x="84" y="125" on="0"/>
        <pt x="149" y="36" on="0"/>
        <pt x="200" y="36" on="1"/>
        <pt x="229" y="36" on="0"/>
        <pt x="280" y="66" on="0"/>
        <pt x="297" y="89" on="1"/>
      </contour>
    </TTGlyph>
    <TTGlyph name="gbreve" xMin="32" yMin="-207" xMax="348" yMax="595">
      <component glyphName="g" x="0" y="0" flags="0x204"/>
      <component glyphName="breve" x="0" y="0" flags="0x4"/>
    </TTGlyph>
    <TTGlyph name="gcommaaccent" xMin="32" yMin="-207" xMax="348" yMax="671">
      <contour>
        <pt x="348" y="-59" on="1"/>
        <pt x="348" y="-137" on="0"/>
        <pt x="278" y="-207" on="0"/>
        <pt x="212" y="-207" on="1"/>
        <pt x="181" y="-207" on="0"/>
        <pt x="121" y="-193" on="0"/>
        <pt x="93" y="-182" on="1"/>
        <pt x="104" y="-135" on="1"/>
        <pt x="131" y="-146" on="0"/>
        <pt x="185" y="-159" on="0"/>
        <pt x="209" y="-159" on="1"/>
        <pt x="255" y="-159" on="0"/>
        <pt x="297" y="-113" on="0"/>
        <pt x="297" y="-62" on="1"/>
        <pt x="297" y="42" on="1"/>
        <pt x="277" y="22" on="0"/>
        <pt x="223" y="-8" on="0"/>
        <pt x="188" y="-8" on="1"/>
        <pt x="156" y="-8" on="0"/>
        <pt x="99" y="21" on="0"/>
        <pt x="57" y="77" on="0"/>
        <pt x="32" y="158" on="0"/>
        <pt x="32" y="211" on="1"/>
        <pt x="32" y="262" on="0"/>
        <pt x="58" y="347" on="0"/>
        <pt x="103" y="407" on="0"/>
        <pt x="162" y="440" on="0"/>
        <pt x="195" y="440" on="1"/>
        <pt x="227" y="440" on="0"/>
        <pt x="279" y="412" on="0"/>
        <pt x="298" y="391" on="1"/>
        <pt x="298" y="432" on="1"/>
        <pt x="348" y="432" on="1"/>
      </contour>
      <contour>
        <pt x="297" y="343" on="1"/>
        <pt x="279" y="365" on="0"/>
        <pt x="230" y="396" on="0"/>
        <pt x="200" y="396" on="1"/>
        <pt x="175" y="396" on="0"/>
        <pt x="133" y="370" on="0"/>
        <pt x="102" y="322" on="0"/>
        <pt x="84" y="253" on="0"/>
        <pt x="84" y="211" on="1"/>
        <pt x="84" y="125" on="0"/>
        <pt x="149" y="36" on="0"/>
        <pt x="200" y="36" on="1"/>
        <pt x="229" y="36" on="0"/>
        <pt x="280" y="66" on="0"/>
        <pt x="297" y="89" on="1"/>
      </contour>
      <contour>
        <pt x="166" y="552" on="1"/>
        <pt x="166" y="568" on="0"/>
        <pt x="179" y="604" on="0"/>
        <pt x="200" y="636" on="0"/>
        <pt x="228" y="663" on="0"/>
        <pt x="243" y="671" on="1"/>
        <pt x="253" y="660" on="1"/>
        <pt x="211" y="621" on="0"/>
        <pt x="203" y="577" on="1"/>
        <pt x="223" y="575" on="0"/>
        <pt x="245" y="553" on="0"/>
        <pt x="245" y="538" on="1"/>
        <pt x="245" y="523" on="0"/>
        <pt x="223" y="501" on="0"/>
        <pt x="208" y="501" on="1"/>
        <pt x="189" y="501" on="0"/>
        <pt x="166" y="529" on="0"/>
      </contour>
    </TTGlyph>
    <TTGlyph name="gdotaccent" xMin="32" yMin="-207" xMax="348" yMax="570">
      <component glyphName="g" x="0" y="0" flags="0x204"/>
      <component glyphName="dotaccent" x="0" y="0" flags="0x4"/>
    </TTGlyph>
    <TTGlyph name="germandbls" xMin="52" yMin="-94" xMax="351" yMax="740">
      <contour>
        <pt x="232" y="212" on="1"/>
        <pt x="286" y="204" on="0"/>
        <pt x="351" y="129" on="0"/>
        <pt x="351" y="69" on="1"/>
        <pt x="351" y="30" on="0"/>
        <pt x="327" y="-30" on="0"/>
        <pt x="283" y="-72" on="0"/>
        <pt x="224" y="-94" on="0"/>
        <pt x="190" y="-94" on="1"/>
        <pt x="179" y="-94" on="0"/>
        <pt x="158" y="-92" on="0"/>
        <pt x="150" y="-90" on="1"/>
        <pt x="156" y="-45" on="1"/>
        <pt x="168" y="-48" on="0"/>
        <pt x="189" y="-48" on="1"/>
        <pt x="240" y="-48" on="0"/>
        <pt x="301" y="13" on="0"/>
        <pt x="301" y="67" on="1"/>
        <pt x="301" y="117" on="0"/>
        <pt x="239" y="173" on="0"/>
        <pt x="190" y="174" on="1"/>
        <pt x="185" y="174" on="0"/>
        <pt x="175" y="174" on="0"/>
        <pt x="170" y="173" on="1"/>
        <pt x="167" y="183" on="1"/>
        <pt x="275" y="386" on="1"/>
        <pt x="103" y="386" on="1"/>
        <pt x="103" y="0" on="1"/>
        <pt x="52" y="0" on="1"/>
        <pt x="52" y="587" on="1"/>
        <pt x="52" y="666" on="0"/>
        <pt x="116" y="740" on="0"/>
        <pt x="173" y="740" on="1"/>
        <pt x="205" y="740" on="0"/>
        <pt x="227" y="732" on="1"/>
        <pt x="219" y="686" on="1"/>
        <pt x="211" y="689" on="0"/>
        <pt x="186" y="692" on="0"/>
        <pt x="177" y="692" on="1"/>
        <pt x="140" y="692" on="0"/>
        <pt x="103" y="648" on="0"/>
        <pt x="103" y="592" on="1"/>
        <pt x="103" y="432" on="1"/>
        <pt x="345" y="432" on="1"/>
        <pt x="347" y="423" on="1"/>
      </contour>
    </TTGlyph>
    <TTGlyph name="grave" xMin="128" yMin="481" xMax="302" yMax="615">
      <contour>
        <pt x="283" y="481" on="1"/>
        <pt x="128" y="567" on="1"/>
        <pt x="155" y="615" on="1"/>
        <pt x="302" y="508" on="1"/>
      </contour>
    </TTGlyph>
    <TTGlyph name="greater" xMin="30" yMin="91" xMax="266" yMax="575">
      <contour>
        <pt x="65" y="91" on="1"/>
        <pt x="30" y="122" on="1"/>
        <pt x="203" y="333" on="1"/>
        <pt x="30" y="545" on="1"/>
        <pt x="65" y="575" on="1"/>
        <pt x="266" y="333" on="1"/>
      </contour>
    </TTGlyph>
    <TTGlyph name="greater.lin" xMin="30" yMin="129" xMax="266" yMax="613">
      <component glyphName="greater" x="0" y="38" flags="0x204"/>
    </TTGlyph>
    <TTGlyph name="guillemotleft" xMin="31" yMin="38" xMax="277" yMax="365">
      <contour>
        <pt x="226" y="38" on="1"/>
        <pt x="145" y="202" on="1"/>
        <pt x="226" y="365" on="1"/>
        <pt x="277" y="365" on="1"/>
        <pt x="193" y="202" on="1"/>
        <pt x="277" y="38" on="1"/>
      </contour>
      <contour>
        <pt x="112" y="38" on="1"/>
        <pt x="31" y="202" on="1"/>
        <pt x="112" y="365" on="1"/>
        <pt x="162" y="365" on="1"/>
        <pt x="79" y="202" on="1"/>
        <pt x="162" y="38" on="1"/>
      </contour>
    </TTGlyph>
    <TTGlyph name="guillemotleft.cap" xMin="31" yMin="207" xMax="277" yMax="534">
      <component glyphName="guillemotleft" x="0" y="169" flags="0x204"/>
    </TTGlyph>
    <TTGlyph name="guillemotright" xMin="29" yMin="38" xMax="275" yMax="365">
      <contour>
        <pt x="194" y="38" on="1"/>
        <pt x="144" y="38" on="1"/>
        <pt x="227" y="202" on="1"/>
        <pt x="144" y="365" on="1"/>
        <pt x="194" y="365" on="1"/>
        <pt x="275" y="202" on="1"/>
      </contour>
      <contour>
        <pt x="80" y="38" on="1"/>
        <pt x="29" y="38" on="1"/>
        <pt x="113" y="202" on="1"/>
        <pt x="29" y="365" on="1"/>
        <pt x="80" y="365" on="1"/>
        <pt x="161" y="202" on="1"/>
      </contour>
    </TTGlyph>
    <TTGlyph name="guillemotright.cap" xMin="29" yMin="207" xMax="275" yMax="534">
      <component glyphName="guillemotright" x="0" y="169" flags="0x204"/>
    </TTGlyph>
    <TTGlyph name="guilsinglleft" xMin="31" yMin="38" xMax="162" yMax="365">
      <contour>
        <pt x="112" y="38" on="1"/>
        <pt x="31" y="202" on="1"/>
        <pt x="112" y="365" on="1"/>
        <pt x="162" y="365" on="1"/>
        <pt x="79" y="202" on="1"/>
        <pt x="162" y="38" on="1"/>
      </contour>
    </TTGlyph>
    <TTGlyph name="guilsinglleft.cap" xMin="31" yMin="207" xMax="162" yMax="534">
      <component glyphName="guilsinglleft" x="0" y="169" flags="0x204"/>
    </TTGlyph>
    <TTGlyph name="guilsinglright" xMin="30" yMin="38" xMax="161" yMax="365">
      <contour>
        <pt x="80" y="38" on="1"/>
        <pt x="30" y="38" on="1"/>
        <pt x="113" y="202" on="1"/>
        <pt x="30" y="365" on="1"/>
        <pt x="80" y="365" on="1"/>
        <pt x="161" y="202" on="1"/>
      </contour>
    </TTGlyph>
    <TTGlyph name="guilsinglright.cap" xMin="30" yMin="207" xMax="161" yMax="534">
      <component glyphName="guilsinglright" x="0" y="169" flags="0x204"/>
    </TTGlyph>
    <TTGlyph name="h" xMin="50" yMin="0" xMax="338" yMax="733">
      <contour>
        <pt x="286" y="0" on="1"/>
        <pt x="286" y="313" on="1"/>
        <pt x="286" y="353" on="0"/>
        <pt x="252" y="396" on="0"/>
        <pt x="216" y="396" on="1"/>
        <pt x="183" y="396" on="0"/>
        <pt x="124" y="354" on="0"/>
        <pt x="102" y="324" on="1"/>
        <pt x="102" y="0" on="1"/>
        <pt x="50" y="0" on="1"/>
        <pt x="50" y="733" on="1"/>
        <pt x="102" y="733" on="1"/>
        <pt x="102" y="366" on="1"/>
        <pt x="127" y="398" on="0"/>
        <pt x="190" y="441" on="0"/>
        <pt x="229" y="441" on="1"/>
        <pt x="285" y="441" on="0"/>
        <pt x="338" y="373" on="0"/>
        <pt x="338" y="320" on="1"/>
        <pt x="338" y="0" on="1"/>
      </contour>
    </TTGlyph>
    <TTGlyph name="hbar" xMin="1" yMin="0" xMax="338" yMax="733">
      <contour>
        <pt x="286" y="0" on="1"/>
        <pt x="286" y="313" on="1"/>
        <pt x="286" y="353" on="0"/>
        <pt x="252" y="396" on="0"/>
        <pt x="216" y="396" on="1"/>
        <pt x="183" y="396" on="0"/>
        <pt x="124" y="354" on="0"/>
        <pt x="102" y="324" on="1"/>
        <pt x="102" y="0" on="1"/>
        <pt x="50" y="0" on="1"/>
        <pt x="50" y="571" on="1"/>
        <pt x="1" y="571" on="1"/>
        <pt x="1" y="617" on="1"/>
        <pt x="50" y="617" on="1"/>
        <pt x="50" y="733" on="1"/>
        <pt x="102" y="733" on="1"/>
        <pt x="102" y="617" on="1"/>
        <pt x="217" y="617" on="1"/>
        <pt x="217" y="571" on="1"/>
        <pt x="102" y="571" on="1"/>
        <pt x="102" y="366" on="1"/>
        <pt x="127" y="398" on="0"/>
        <pt x="190" y="441" on="0"/>
        <pt x="229" y="441" on="1"/>
        <pt x="285" y="441" on="0"/>
        <pt x="338" y="373" on="0"/>
        <pt x="338" y="320" on="1"/>
        <pt x="338" y="0" on="1"/>
      </contour>
    </TTGlyph>
    <TTGlyph name="hcoslug" xMin="50" yMin="-100" xMax="644" yMax="700">
      <contour>
        <pt x="273" y="18" on="1"/>
        <pt x="275" y="40" on="0"/>
        <pt x="254" y="40" on="1"/>
        <pt x="245" y="40" on="0"/>
        <pt x="234" y="29" on="0"/>
        <pt x="234" y="19" on="1"/>
        <pt x="235" y="-1" on="0"/>
        <pt x="255" y="-1" on="1"/>
        <pt x="270" y="-1" on="0"/>
        <pt x="273" y="13" on="1"/>
        <pt x="266" y="13" on="1"/>
        <pt x="264" y="6" on="0"/>
        <pt x="257" y="6" on="1"/>
        <pt x="247" y="6" on="0"/>
        <pt x="247" y="18" on="1"/>
      </contour>
      <contour>
        <pt x="254" y="35" on="1"/>
        <pt x="261" y="35" on="0"/>
        <pt x="261" y="23" on="1"/>
        <pt x="247" y="23" on="1"/>
        <pt x="247" y="35" on="0"/>
      </contour>
      <contour>
        <pt x="195" y="78" on="1"/>
        <pt x="187" y="78" on="0"/>
        <pt x="187" y="94" on="1"/>
        <pt x="187" y="109" on="0"/>
        <pt x="195" y="109" on="1"/>
        <pt x="203" y="109" on="0"/>
        <pt x="203" y="94" on="1"/>
        <pt x="203" y="78" on="0"/>
      </contour>
      <contour>
        <pt x="210" y="4" on="1"/>
        <pt x="202" y="4" on="0"/>
        <pt x="202" y="20" on="1"/>
        <pt x="202" y="35" on="0"/>
        <pt x="210" y="35" on="1"/>
        <pt x="218" y="35" on="0"/>
        <pt x="218" y="20" on="1"/>
        <pt x="218" y="4" on="0"/>
      </contour>
      <contour>
        <pt x="210" y="-1" on="1"/>
        <pt x="219" y="-1" on="0"/>
        <pt x="231" y="11" on="0"/>
        <pt x="231" y="20" on="1"/>
        <pt x="231" y="29" on="0"/>
        <pt x="219" y="40" on="0"/>
        <pt x="210" y="40" on="1"/>
        <pt x="201" y="40" on="0"/>
        <pt x="189" y="29" on="0"/>
        <pt x="189" y="20" on="1"/>
        <pt x="189" y="10" on="0"/>
        <pt x="201" y="-1" on="0"/>
      </contour>
      <contour>
        <pt x="546" y="4" on="1"/>
        <pt x="538" y="4" on="0"/>
        <pt x="538" y="20" on="1"/>
        <pt x="538" y="35" on="0"/>
        <pt x="546" y="35" on="1"/>
        <pt x="554" y="35" on="0"/>
        <pt x="554" y="20" on="1"/>
        <pt x="554" y="4" on="0"/>
      </contour>
      <contour>
        <pt x="546" y="-1" on="1"/>
        <pt x="555" y="-1" on="0"/>
        <pt x="567" y="11" on="0"/>
        <pt x="567" y="20" on="1"/>
        <pt x="567" y="29" on="0"/>
        <pt x="555" y="40" on="0"/>
        <pt x="546" y="40" on="1"/>
        <pt x="537" y="40" on="0"/>
        <pt x="525" y="29" on="0"/>
        <pt x="525" y="20" on="1"/>
        <pt x="525" y="10" on="0"/>
        <pt x="537" y="-1" on="0"/>
      </contour>
      <contour>
        <pt x="125" y="74" on="1"/>
        <pt x="155" y="74" on="1"/>
        <pt x="155" y="81" on="1"/>
        <pt x="145" y="81" on="1"/>
        <pt x="145" y="97" on="1"/>
        <pt x="149" y="97" on="1"/>
        <pt x="154" y="97" on="0"/>
        <pt x="155" y="89" on="1"/>
        <pt x="162" y="89" on="1"/>
        <pt x="162" y="112" on="1"/>
        <pt x="155" y="112" on="1"/>
        <pt x="154" y="104" on="0"/>
        <pt x="149" y="104" on="1"/>
        <pt x="145" y="104" on="1"/>
        <pt x="145" y="122" on="1"/>
        <pt x="157" y="122" on="1"/>
        <pt x="162" y="122" on="0"/>
        <pt x="166" y="117" on="0"/>
        <pt x="168" y="109" on="1"/>
        <pt x="176" y="109" on="1"/>
        <pt x="176" y="129" on="1"/>
        <pt x="125" y="129" on="1"/>
        <pt x="125" y="122" on="1"/>
        <pt x="132" y="122" on="1"/>
        <pt x="132" y="81" on="1"/>
        <pt x="125" y="81" on="1"/>
      </contour>
      <contour>
        <pt x="195" y="73" on="1"/>
        <pt x="204" y="73" on="0"/>
        <pt x="216" y="85" on="0"/>
        <pt x="216" y="94" on="1"/>
        <pt x="216" y="103" on="0"/>
        <pt x="204" y="114" on="0"/>
        <pt x="195" y="114" on="1"/>
        <pt x="186" y="114" on="0"/>
        <pt x="174" y="103" on="0"/>
        <pt x="174" y="94" on="1"/>
        <pt x="174" y="84" on="0"/>
        <pt x="186" y="73" on="0"/>
      </contour>
      <contour>
        <pt x="644" y="-100" on="1"/>
        <pt x="50" y="-100" on="1"/>
        <pt x="50" y="700" on="1"/>
        <pt x="644" y="700" on="1"/>
      </contour>
      <contour>
        <pt x="498" y="-1" on="1"/>
        <pt x="520" y="-1" on="0"/>
        <pt x="522" y="22" on="1"/>
        <pt x="514" y="22" on="1"/>
        <pt x="512" y="6" on="0"/>
        <pt x="500" y="6" on="1"/>
        <pt x="484" y="6" on="0"/>
        <pt x="484" y="28" on="1"/>
        <pt x="484" y="50" on="0"/>
        <pt x="498" y="50" on="1"/>
        <pt x="508" y="50" on="0"/>
        <pt x="513" y="34" on="1"/>
        <pt x="521" y="34" on="1"/>
        <pt x="521" y="56" on="1"/>
        <pt x="513" y="56" on="1"/>
        <pt x="512" y="50" on="1"/>
        <pt x="505" y="57" on="0"/>
        <pt x="496" y="57" on="1"/>
        <pt x="485" y="57" on="0"/>
        <pt x="469" y="41" on="0"/>
        <pt x="469" y="27" on="1"/>
        <pt x="469" y="-1" on="0"/>
      </contour>
      <contour>
        <pt x="372" y="80" on="1"/>
        <pt x="364" y="80" on="0"/>
        <pt x="364" y="93" on="1"/>
        <pt x="364" y="106" on="0"/>
        <pt x="372" y="106" on="1"/>
        <pt x="379" y="106" on="0"/>
        <pt x="379" y="93" on="1"/>
        <pt x="379" y="80" on="0"/>
      </contour>
      <contour>
        <pt x="276" y="0" on="1"/>
        <pt x="299" y="0" on="1"/>
        <pt x="299" y="7" on="1"/>
        <pt x="294" y="7" on="1"/>
        <pt x="294" y="32" on="1"/>
        <pt x="308" y="32" on="1"/>
        <pt x="308" y="7" on="1"/>
        <pt x="303" y="7" on="1"/>
        <pt x="303" y="0" on="1"/>
        <pt x="326" y="0" on="1"/>
        <pt x="326" y="7" on="1"/>
        <pt x="320" y="7" on="1"/>
        <pt x="320" y="59" on="1"/>
        <pt x="310" y="57" on="1"/>
        <pt x="306" y="59" on="0"/>
        <pt x="301" y="59" on="1"/>
        <pt x="293" y="59" on="0"/>
        <pt x="282" y="50" on="0"/>
        <pt x="282" y="40" on="1"/>
        <pt x="282" y="39" on="1"/>
        <pt x="275" y="39" on="1"/>
        <pt x="275" y="32" on="1"/>
        <pt x="282" y="32" on="1"/>
        <pt x="282" y="7" on="1"/>
        <pt x="276" y="7" on="1"/>
      </contour>
      <contour>
        <pt x="368" y="0" on="1"/>
        <pt x="394" y="0" on="1"/>
        <pt x="394" y="7" on="1"/>
        <pt x="386" y="7" on="1"/>
        <pt x="386" y="23" on="1"/>
        <pt x="390" y="32" on="0"/>
        <pt x="393" y="32" on="1"/>
        <pt x="393" y="31" on="1"/>
        <pt x="393" y="25" on="0"/>
        <pt x="399" y="25" on="1"/>
        <pt x="406" y="25" on="0"/>
        <pt x="406" y="32" on="1"/>
        <pt x="406" y="40" on="0"/>
        <pt x="398" y="40" on="1"/>
        <pt x="390" y="40" on="0"/>
        <pt x="386" y="29" on="1"/>
        <pt x="386" y="39" on="1"/>
        <pt x="368" y="39" on="1"/>
        <pt x="368" y="32" on="1"/>
        <pt x="374" y="32" on="1"/>
        <pt x="374" y="7" on="1"/>
        <pt x="368" y="7" on="1"/>
      </contour>
      <contour>
        <pt x="352" y="73" on="1"/>
        <pt x="358" y="73" on="1"/>
        <pt x="362" y="81" on="1"/>
        <pt x="367" y="73" on="0"/>
        <pt x="376" y="73" on="1"/>
        <pt x="385" y="73" on="0"/>
        <pt x="392" y="87" on="0"/>
        <pt x="392" y="94" on="1"/>
        <pt x="392" y="114" on="0"/>
        <pt x="377" y="114" on="1"/>
        <pt x="367" y="114" on="0"/>
        <pt x="364" y="105" on="1"/>
        <pt x="364" y="132" on="1"/>
        <pt x="346" y="132" on="1"/>
        <pt x="346" y="125" on="1"/>
        <pt x="352" y="125" on="1"/>
      </contour>
      <contour>
        <pt x="400" y="75" on="1"/>
        <pt x="393" y="75" on="0"/>
        <pt x="393" y="68" on="1"/>
        <pt x="393" y="59" on="0"/>
        <pt x="404" y="59" on="1"/>
        <pt x="416" y="59" on="0"/>
        <pt x="422" y="75" on="1"/>
        <pt x="435" y="106" on="1"/>
        <pt x="440" y="106" on="1"/>
        <pt x="440" y="113" on="1"/>
        <pt x="423" y="113" on="1"/>
        <pt x="423" y="106" on="1"/>
        <pt x="428" y="106" on="1"/>
        <pt x="420" y="86" on="1"/>
        <pt x="411" y="106" on="1"/>
        <pt x="417" y="106" on="1"/>
        <pt x="417" y="113" on="1"/>
        <pt x="392" y="113" on="1"/>
        <pt x="392" y="106" on="1"/>
        <pt x="397" y="106" on="1"/>
        <pt x="399" y="101" on="0"/>
        <pt x="403" y="93" on="1"/>
        <pt x="406" y="87" on="0"/>
        <pt x="411" y="77" on="0"/>
        <pt x="413" y="73" on="1"/>
        <pt x="411" y="65" on="0"/>
        <pt x="405" y="65" on="1"/>
        <pt x="407" y="67" on="0"/>
        <pt x="405" y="75" on="0"/>
      </contour>
      <contour>
        <pt x="247" y="428" on="1"/>
        <pt x="247" y="441" on="0"/>
        <pt x="262" y="457" on="0"/>
        <pt x="274" y="457" on="1"/>
        <pt x="287" y="457" on="0"/>
        <pt x="303" y="436" on="0"/>
        <pt x="303" y="419" on="1"/>
        <pt x="303" y="406" on="0"/>
        <pt x="293" y="382" on="0"/>
        <pt x="285" y="369" on="1"/>
        <pt x="268" y="386" on="0"/>
        <pt x="247" y="411" on="0"/>
      </contour>
      <contour>
        <pt x="302" y="74" on="1"/>
        <pt x="309" y="74" on="1"/>
        <pt x="310" y="78" on="1"/>
        <pt x="312" y="76" on="0"/>
        <pt x="318" y="73" on="0"/>
        <pt x="323" y="73" on="1"/>
        <pt x="337" y="73" on="0"/>
        <pt x="337" y="86" on="1"/>
        <pt x="337" y="92" on="0"/>
        <pt x="329" y="97" on="0"/>
        <pt x="320" y="99" on="0"/>
        <pt x="313" y="101" on="0"/>
        <pt x="313" y="104" on="1"/>
        <pt x="313" y="108" on="0"/>
        <pt x="318" y="108" on="1"/>
        <pt x="323" y="108" on="0"/>
        <pt x="328" y="101" on="1"/>
        <pt x="335" y="101" on="1"/>
        <pt x="335" y="114" on="1"/>
        <pt x="329" y="114" on="1"/>
        <pt x="327" y="109" on="1"/>
        <pt x="324" y="114" on="0"/>
        <pt x="316" y="114" on="1"/>
        <pt x="309" y="114" on="0"/>
        <pt x="302" y="107" on="0"/>
        <pt x="302" y="102" on="1"/>
        <pt x="302" y="96" on="0"/>
        <pt x="309" y="91" on="0"/>
        <pt x="318" y="88" on="0"/>
        <pt x="326" y="86" on="0"/>
        <pt x="326" y="83" on="1"/>
        <pt x="326" y="79" on="0"/>
        <pt x="321" y="79" on="1"/>
        <pt x="315" y="79" on="0"/>
        <pt x="309" y="88" on="1"/>
        <pt x="302" y="88" on="1"/>
      </contour>
      <contour>
        <pt x="261" y="219" on="1"/>
        <pt x="238" y="219" on="0"/>
        <pt x="209" y="250" on="0"/>
        <pt x="209" y="273" on="1"/>
        <pt x="209" y="297" on="0"/>
        <pt x="225" y="313" on="1"/>
        <pt x="239" y="300" on="0"/>
        <pt x="278" y="257" on="0"/>
        <pt x="299" y="231" on="1"/>
        <pt x="284" y="219" on="0"/>
      </contour>
      <contour>
        <pt x="274" y="122" on="1"/>
        <pt x="274" y="113" on="1"/>
        <pt x="267" y="113" on="1"/>
        <pt x="267" y="106" on="1"/>
        <pt x="274" y="106" on="1"/>
        <pt x="274" y="86" on="1"/>
        <pt x="274" y="73" on="0"/>
        <pt x="286" y="73" on="1"/>
        <pt x="297" y="73" on="0"/>
        <pt x="300" y="86" on="1"/>
        <pt x="295" y="88" on="1"/>
        <pt x="294" y="81" on="0"/>
        <pt x="290" y="81" on="1"/>
        <pt x="286" y="81" on="0"/>
        <pt x="286" y="86" on="1"/>
        <pt x="286" y="106" on="1"/>
        <pt x="299" y="106" on="1"/>
        <pt x="299" y="113" on="1"/>
        <pt x="286" y="113" on="1"/>
        <pt x="286" y="124" on="1"/>
      </contour>
      <contour>
        <pt x="428" y="306" on="1"/>
        <pt x="435" y="295" on="0"/>
        <pt x="457" y="281" on="0"/>
        <pt x="471" y="281" on="1"/>
        <pt x="492" y="281" on="0"/>
        <pt x="521" y="312" on="0"/>
        <pt x="521" y="335" on="1"/>
        <pt x="521" y="358" on="0"/>
        <pt x="492" y="387" on="0"/>
        <pt x="471" y="387" on="1"/>
        <pt x="436" y="387" on="0"/>
        <pt x="411" y="349" on="1"/>
        <pt x="409" y="369" on="0"/>
        <pt x="382" y="387" on="0"/>
        <pt x="362" y="386" on="1"/>
        <pt x="371" y="401" on="0"/>
        <pt x="371" y="420" on="1"/>
        <pt x="371" y="433" on="0"/>
        <pt x="359" y="460" on="0"/>
        <pt x="335" y="481" on="0"/>
        <pt x="299" y="494" on="0"/>
        <pt x="276" y="494" on="1"/>
        <pt x="251" y="494" on="0"/>
        <pt x="211" y="480" on="0"/>
        <pt x="182" y="456" on="0"/>
        <pt x="167" y="425" on="0"/>
        <pt x="167" y="409" on="1"/>
        <pt x="167" y="387" on="0"/>
        <pt x="182" y="357" on="0"/>
        <pt x="198" y="340" on="1"/>
        <pt x="116" y="312" on="0"/>
        <pt x="116" y="249" on="1"/>
        <pt x="116" y="229" on="0"/>
        <pt x="133" y="195" on="0"/>
        <pt x="163" y="170" on="0"/>
        <pt x="202" y="156" on="0"/>
        <pt x="225" y="156" on="1"/>
        <pt x="288" y="156" on="0"/>
        <pt x="329" y="201" on="1"/>
        <pt x="354" y="175" on="0"/>
        <pt x="391" y="156" on="0"/>
        <pt x="414" y="156" on="1"/>
        <pt x="446" y="156" on="0"/>
        <pt x="492" y="206" on="0"/>
        <pt x="494" y="250" on="1"/>
        <pt x="487" y="252" on="1"/>
        <pt x="479" y="239" on="0"/>
        <pt x="460" y="223" on="0"/>
        <pt x="444" y="223" on="1"/>
        <pt x="429" y="223" on="0"/>
        <pt x="401" y="242" on="0"/>
        <pt x="382" y="264" on="1"/>
        <pt x="393" y="279" on="0"/>
        <pt x="417" y="299" on="0"/>
      </contour>
      <contour>
        <pt x="219" y="74" on="1"/>
        <pt x="241" y="74" on="1"/>
        <pt x="241" y="81" on="1"/>
        <pt x="237" y="81" on="1"/>
        <pt x="237" y="96" on="1"/>
        <pt x="237" y="106" on="0"/>
        <pt x="244" y="106" on="1"/>
        <pt x="250" y="106" on="0"/>
        <pt x="250" y="99" on="1"/>
        <pt x="250" y="81" on="1"/>
        <pt x="246" y="81" on="1"/>
        <pt x="246" y="74" on="1"/>
        <pt x="268" y="74" on="1"/>
        <pt x="268" y="81" on="1"/>
        <pt x="262" y="81" on="1"/>
        <pt x="262" y="100" on="1"/>
        <pt x="262" y="114" on="0"/>
        <pt x="250" y="114" on="1"/>
        <pt x="241" y="114" on="0"/>
        <pt x="236" y="103" on="1"/>
        <pt x="236" y="113" on="1"/>
        <pt x="219" y="113" on="1"/>
        <pt x="219" y="106" on="1"/>
        <pt x="225" y="106" on="1"/>
        <pt x="225" y="81" on="1"/>
        <pt x="219" y="81" on="1"/>
      </contour>
      <contour>
        <pt x="446" y="33" on="1"/>
        <pt x="446" y="26" on="1"/>
        <pt x="452" y="26" on="1"/>
        <pt x="450" y="21" on="0"/>
        <pt x="446" y="17" on="1"/>
        <pt x="443" y="20" on="0"/>
        <pt x="438" y="26" on="0"/>
        <pt x="434" y="30" on="1"/>
        <pt x="445" y="35" on="0"/>
        <pt x="445" y="42" on="1"/>
        <pt x="445" y="47" on="0"/>
        <pt x="438" y="54" on="0"/>
        <pt x="431" y="54" on="1"/>
        <pt x="423" y="54" on="0"/>
        <pt x="414" y="46" on="0"/>
        <pt x="414" y="40" on="1"/>
        <pt x="414" y="34" on="0"/>
        <pt x="420" y="28" on="1"/>
        <pt x="407" y="24" on="0"/>
        <pt x="407" y="13" on="1"/>
        <pt x="407" y="-1" on="0"/>
        <pt x="425" y="-1" on="1"/>
        <pt x="434" y="-1" on="0"/>
        <pt x="440" y="5" on="1"/>
        <pt x="445" y="-1" on="0"/>
        <pt x="452" y="-1" on="1"/>
        <pt x="462" y="-1" on="0"/>
        <pt x="465" y="11" on="1"/>
        <pt x="460" y="12" on="1"/>
        <pt x="459" y="7" on="0"/>
        <pt x="456" y="7" on="1"/>
        <pt x="453" y="7" on="0"/>
        <pt x="450" y="12" on="1"/>
        <pt x="453" y="15" on="0"/>
        <pt x="457" y="21" on="0"/>
        <pt x="459" y="26" on="1"/>
        <pt x="464" y="26" on="1"/>
        <pt x="464" y="33" on="1"/>
      </contour>
      <contour>
        <pt x="429" y="6" on="1"/>
        <pt x="419" y="6" on="0"/>
        <pt x="419" y="16" on="1"/>
        <pt x="419" y="21" on="0"/>
        <pt x="423" y="25" on="1"/>
        <pt x="427" y="21" on="0"/>
        <pt x="433" y="14" on="0"/>
        <pt x="437" y="9" on="1"/>
        <pt x="433" y="6" on="0"/>
      </contour>
      <contour>
        <pt x="294" y="42" on="1"/>
        <pt x="294" y="49" on="0"/>
        <pt x="297" y="54" on="0"/>
        <pt x="300" y="54" on="1"/>
        <pt x="302" y="54" on="0"/>
        <pt x="303" y="53" on="1"/>
        <pt x="302" y="51" on="0"/>
        <pt x="302" y="49" on="1"/>
        <pt x="302" y="44" on="0"/>
        <pt x="308" y="44" on="1"/>
        <pt x="308" y="39" on="1"/>
        <pt x="294" y="39" on="1"/>
      </contour>
      <contour>
        <pt x="425" y="43" on="1"/>
        <pt x="425" y="48" on="0"/>
        <pt x="430" y="48" on="1"/>
        <pt x="436" y="48" on="0"/>
        <pt x="436" y="42" on="1"/>
        <pt x="436" y="36" on="0"/>
        <pt x="431" y="33" on="1"/>
        <pt x="425" y="39" on="0"/>
      </contour>
      <contour>
        <pt x="312" y="342" on="1"/>
        <pt x="342" y="362" on="0"/>
        <pt x="354" y="376" on="1"/>
        <pt x="371" y="359" on="0"/>
        <pt x="367" y="321" on="0"/>
        <pt x="353" y="296" on="1"/>
        <pt x="343" y="307" on="0"/>
        <pt x="324" y="330" on="0"/>
      </contour>
      <contour>
        <pt x="366" y="18" on="1"/>
        <pt x="368" y="40" on="0"/>
        <pt x="347" y="40" on="1"/>
        <pt x="339" y="40" on="0"/>
        <pt x="327" y="28" on="0"/>
        <pt x="327" y="19" on="1"/>
        <pt x="327" y="-1" on="0"/>
        <pt x="348" y="-1" on="1"/>
        <pt x="362" y="-1" on="0"/>
        <pt x="366" y="13" on="1"/>
        <pt x="359" y="13" on="1"/>
        <pt x="358" y="6" on="0"/>
        <pt x="350" y="6" on="1"/>
        <pt x="340" y="6" on="0"/>
        <pt x="340" y="18" on="1"/>
      </contour>
      <contour>
        <pt x="347" y="35" on="1"/>
        <pt x="354" y="35" on="0"/>
        <pt x="354" y="23" on="1"/>
        <pt x="340" y="23" on="1"/>
        <pt x="340" y="35" on="0"/>
      </contour>
      <contour>
        <pt x="124" y="0" on="1"/>
        <pt x="153" y="0" on="1"/>
        <pt x="153" y="7" on="1"/>
        <pt x="145" y="7" on="1"/>
        <pt x="145" y="25" on="1"/>
        <pt x="167" y="25" on="1"/>
        <pt x="167" y="7" on="1"/>
        <pt x="159" y="7" on="1"/>
        <pt x="159" y="0" on="1"/>
        <pt x="188" y="0" on="1"/>
        <pt x="188" y="7" on="1"/>
        <pt x="180" y="7" on="1"/>
        <pt x="180" y="48" on="1"/>
        <pt x="188" y="48" on="1"/>
        <pt x="188" y="55" on="1"/>
        <pt x="159" y="55" on="1"/>
        <pt x="159" y="48" on="1"/>
        <pt x="167" y="48" on="1"/>
        <pt x="167" y="32" on="1"/>
        <pt x="145" y="32" on="1"/>
        <pt x="145" y="48" on="1"/>
        <pt x="153" y="48" on="1"/>
        <pt x="153" y="55" on="1"/>
        <pt x="124" y="55" on="1"/>
        <pt x="124" y="48" on="1"/>
        <pt x="132" y="48" on="1"/>
        <pt x="132" y="7" on="1"/>
        <pt x="124" y="7" on="1"/>
      </contour>
      <contour>
        <pt x="576" y="13" on="1"/>
        <pt x="569" y="13" on="0"/>
        <pt x="569" y="6" on="1"/>
        <pt x="569" y="-1" on="0"/>
        <pt x="576" y="-1" on="1"/>
        <pt x="583" y="-1" on="0"/>
        <pt x="583" y="6" on="1"/>
        <pt x="583" y="13" on="0"/>
      </contour>
    </TTGlyph>
    <TTGlyph name="hungarumlaut" xMin="104" yMin="481" xMax="336" yMax="656">
      <contour>
        <pt x="129" y="490" on="1"/>
        <pt x="104" y="507" on="1"/>
        <pt x="180" y="656" on="1"/>
        <pt x="224" y="629" on="1"/>
      </contour>
      <contour>
        <pt x="242" y="481" on="1"/>
        <pt x="216" y="497" on="1"/>
        <pt x="292" y="646" on="1"/>
        <pt x="336" y="618" on="1"/>
      </contour>
    </TTGlyph>
    <TTGlyph name="hyphen" xMin="40" yMin="232" xMax="223" yMax="282">
      <contour>
        <pt x="40" y="232" on="1"/>
        <pt x="40" y="282" on="1"/>
        <pt x="223" y="282" on="1"/>
        <pt x="223" y="232" on="1"/>
      </contour>
    </TTGlyph>
    <TTGlyph name="hyphen.cap" xMin="40" yMin="346" xMax="223" yMax="396">
      <component glyphName="hyphen" x="0" y="114" flags="0x204"/>
    </TTGlyph>
    <TTGlyph name="i" xMin="43" yMin="0" xMax="118" yMax="615">
      <contour>
        <pt x="118" y="576" on="1"/>
        <pt x="118" y="561" on="0"/>
        <pt x="96" y="538" on="0"/>
        <pt x="80" y="538" on="1"/>
        <pt x="64" y="538" on="0"/>
        <pt x="43" y="561" on="0"/>
        <pt x="43" y="576" on="1"/>
        <pt x="43" y="592" on="0"/>
        <pt x="64" y="615" on="0"/>
        <pt x="80" y="615" on="1"/>
        <pt x="96" y="615" on="0"/>
        <pt x="118" y="592" on="0"/>
      </contour>
      <contour>
        <pt x="55" y="0" on="1"/>
        <pt x="55" y="432" on="1"/>
        <pt x="106" y="432" on="1"/>
        <pt x="106" y="0" on="1"/>
      </contour>
    </TTGlyph>
    <TTGlyph name="i.dot" xMin="43" yMin="0" xMax="118" yMax="615">
      <contour>
        <pt x="118" y="576" on="1"/>
        <pt x="118" y="561" on="0"/>
        <pt x="96" y="538" on="0"/>
        <pt x="80" y="538" on="1"/>
        <pt x="64" y="538" on="0"/>
        <pt x="43" y="561" on="0"/>
        <pt x="43" y="576" on="1"/>
        <pt x="43" y="592" on="0"/>
        <pt x="64" y="615" on="0"/>
        <pt x="80" y="615" on="1"/>
        <pt x="96" y="615" on="0"/>
        <pt x="118" y="592" on="0"/>
      </contour>
      <contour>
        <pt x="55" y="0" on="1"/>
        <pt x="55" y="432" on="1"/>
        <pt x="106" y="432" on="1"/>
        <pt x="106" y="0" on="1"/>
      </contour>
    </TTGlyph>
    <TTGlyph name="iacute" xMin="44" yMin="0" xMax="218" yMax="615">
      <component glyphName="acute" x="-73" y="0" flags="0x4"/>
      <component glyphName="dotlessi" x="0" y="0" flags="0x4"/>
    </TTGlyph>
    <TTGlyph name="ibreve" xMin="-20" yMin="0" xMax="186" yMax="595">
      <component glyphName="dotlessi" x="0" y="0" flags="0x204"/>
      <component glyphName="breve" x="-126" y="0" flags="0x4"/>
    </TTGlyph>
</ttFont>
